<svg width="129" height="70" viewBox="0 0 129 70" fill="none" xmlns="http://www.w3.org/2000/svg" xmlns:xlink="http://www.w3.org/1999/xlink" version="1.1">
<g id="CEUB cor">
<g id="Vector">
<path fill-rule="evenodd" clip-rule="evenodd" d="M86.4396 10.4499C86.4353 16.1973 86.4117 25.2003 86.3871 30.4566C86.347 39.0414 86.3315 40.0803 86.2352 40.6714C85.5653 44.7812 83.4903 46.7781 79.6813 46.9788C78.3381 47.0496 76.8689 46.792 75.8609 46.309C73.8905 45.3649 72.8076 43.6735 72.3004 40.7479C72.2049 40.1968 72.1917 39.043 72.1613 28.6392L72.1277 17.1397L71.9563 16.8481C71.829 16.6315 71.7007 16.5145 71.4583 16.3937L71.1317 16.231H59.7508V23.1871H63.5687L63.5904 32.1643C63.61 40.2997 63.6223 41.209 63.721 41.8621C64.359 46.087 66.2649 49.2214 69.4956 51.3592C71.4381 52.6445 73.6314 53.4211 76.4204 53.8112C77.5328 53.9668 80.6237 53.9671 81.7785 53.8117C85.0987 53.365 87.7868 52.3 89.9567 50.5714C90.6553 50.0148 91.7663 48.8671 92.2906 48.1602C93.7778 46.1553 94.6782 43.6104 94.9067 40.7654C94.9582 40.1245 94.9652 34.5129 94.9325 19.944L94.8879 0H86.4473L86.4396 10.4499ZM18.4527 15.922C14.0895 16.1531 10.1076 17.5811 6.92279 20.057C6.20136 20.6178 4.99958 21.7738 4.38537 22.4978C2.06829 25.2288 0.664592 28.4807 0.1447 32.3218C-0.034217 33.6436 -0.0498854 36.1888 0.112612 37.538C0.400446 39.9281 0.93933 41.8001 1.90748 43.7737C4.46427 48.9854 9.49211 52.421 16.2109 53.5473C17.7559 53.8063 18.8123 53.8986 20.6774 53.9375C23.6233 53.9989 25.9685 53.7553 28.5205 53.1226L29.3255 52.923L29.3579 45.5437L29.185 45.5811C27.8698 45.8666 26.8764 46.0055 25.3461 46.1178C21.5541 46.3959 18.6799 46.1494 16.1966 45.3332C12.3871 44.0811 9.96995 41.5958 9.05519 37.9905C8.60035 36.1977 8.56594 33.8903 8.96438 31.8979C9.40324 29.7036 10.3008 27.9531 11.7139 26.5357C13.3791 24.8652 15.5872 23.9058 18.4213 23.6211C19.1398 23.5489 21.4016 23.5768 22.0717 23.6661L22.3381 23.7016V27.6376L29.3255 27.6052L29.3446 22.9991C29.3583 19.6748 29.3433 18.2987 29.2909 18.0542C29.1517 17.4056 28.5485 16.9517 27.4535 16.6717C26.1535 16.3392 23.5802 16.0277 21.2414 15.9198C19.752 15.8511 19.7942 15.851 18.4527 15.922ZM34.1412 16.3826C33.8916 16.4988 33.7776 16.602 33.6399 16.8363L33.4616 17.1397L33.4455 34.7788C33.4275 54.5149 33.389 52.8737 33.8796 53.2935C34.0228 53.4162 34.2412 53.5381 34.3648 53.5644C34.4885 53.5908 39.6093 53.6123 45.7445 53.6123H56.8994V46.6562L42.0158 46.6244V38.4158L59.4688 38.384L59.501 30.7699H42.0158V23.1871H55.6774V16.231L34.4643 16.2322L34.1412 16.3826ZM99.8611 16.3127C99.5104 16.4245 99.1921 16.7917 99.1085 17.1809C99.0557 17.4269 99.0417 20.1006 99.0557 27.2605C99.0748 37.0037 99.0748 37.0054 99.2058 37.256C99.2778 37.3939 99.4564 37.5913 99.6028 37.6947L99.8689 37.8827L107.274 37.9184C114.941 37.9553 114.926 37.9548 116.058 38.2251C117.862 38.656 118.991 39.6679 119.321 41.1514C119.478 41.8565 119.421 43.1059 119.203 43.7318C118.647 45.3332 117.291 46.2675 115.06 46.5885C114.553 46.6613 113.021 46.6873 107.284 46.72C103.302 46.7427 100.04 46.7862 99.9134 46.8184C99.6117 46.895 99.3803 47.0852 99.2297 47.3803C99.1081 47.6187 99.1062 47.799 99.1062 58.8113V70H107.566V53.7063L111.436 53.7054C115.469 53.7043 116.617 53.6607 118.032 53.4547C122.644 52.783 126.002 50.4492 127.367 46.9664C128.189 44.8704 128.363 42.2302 127.81 40.2498C127.097 37.6998 125.05 35.6148 122.291 34.6296L121.73 34.4293L122.058 34.3133C122.239 34.2494 122.641 34.0711 122.951 33.917C124.851 32.973 126.375 31.3424 127.116 29.4612C127.956 27.3266 127.784 24.325 126.697 22.1531C125.022 18.8099 121.419 16.7344 116.528 16.296C115.504 16.2042 100.153 16.2196 99.8611 16.3127ZM107.629 30.9579L111.091 30.9577C115.417 30.9575 115.978 30.8983 117.151 30.3171C118.448 29.6751 119.135 28.4361 119.012 26.9622C118.922 25.8912 118.611 25.1904 117.923 24.5091C117.183 23.7755 116.309 23.4037 114.964 23.2495C114.669 23.2157 112.899 23.1879 111.029 23.1876L107.629 23.1871V30.9579Z" fill="#43054E"/>
<path d="M98.8898 48.0877C98.8898 47.3648 99.4729 46.7772 100.196 46.7717L107.601 46.715V70H98.8898V48.0877Z" fill="#BF0087"/>
<path d="M86.4138 0H94.9398V23.1871H86.4138V0Z" fill="#BF0087"/>
</g>
</g>
</svg>
