<svg width="142" height="72" viewBox="0 0 142 72" fill="none" xmlns="http://www.w3.org/2000/svg" xmlns:xlink="http://www.w3.org/1999/xlink" version="1.1">
<g id="Vector">
<path d="M24.9925 9.65197H20.2112C20.0748 8.86788 19.8234 8.17327 19.4569 7.56816C19.0905 6.95452 18.6345 6.43464 18.089 6.0085C17.5436 5.58236 16.9214 5.26276 16.2226 5.04969C15.5322 4.8281 14.7865 4.71731 13.9854 4.71731C12.5621 4.71731 11.3007 5.07526 10.2013 5.79117C9.10183 6.49856 8.24103 7.53833 7.61887 8.91049C6.99672 10.2741 6.68564 11.9403 6.68564 13.9091C6.68564 15.9119 6.99672 17.5994 7.61887 18.9716C8.24956 20.3352 9.11035 21.3665 10.2013 22.0653C11.3007 22.7557 12.5578 23.1008 13.9726 23.1008C14.7567 23.1008 15.4896 22.9986 16.1714 22.794C16.8618 22.5809 17.4797 22.2699 18.0251 21.8608C18.5791 21.4517 19.0436 20.9488 19.4186 20.3523C19.8021 19.7557 20.0663 19.0738 20.2112 18.3068L24.9925 18.3324C24.8135 19.5767 24.4257 20.7443 23.8291 21.8352C23.241 22.9261 22.4697 23.8892 21.5152 24.7244C20.5606 25.5511 19.4442 26.1988 18.1658 26.6676C16.8873 27.1278 15.4683 27.3579 13.9086 27.3579C11.6075 27.3579 9.55353 26.8253 7.74672 25.7599C5.9399 24.6946 4.5166 23.1562 3.47683 21.1449C2.43706 19.1335 1.91717 16.7216 1.91717 13.9091C1.91717 11.088 2.44132 8.67611 3.48961 6.67327C4.53791 4.66191 5.96547 3.12356 7.77228 2.05822C9.5791 0.992875 11.6246 0.460205 13.9086 0.460205C15.366 0.460205 16.7211 0.66475 17.974 1.07384C19.2268 1.48293 20.3433 2.08379 21.3234 2.8764C22.3035 3.66049 23.1089 4.62356 23.7396 5.7656C24.3788 6.89913 24.7964 8.19458 24.9925 9.65197Z" fill="#FCFCFC"/>
<path d="M34.0787 0.81816V27H29.3358V0.81816H34.0787Z" fill="#FCFCFC"/>
<path d="M61.6253 9.65197H56.844C56.7077 8.86788 56.4562 8.17327 56.0898 7.56816C55.7233 6.95452 55.2673 6.43464 54.7219 6.0085C54.1764 5.58236 53.5542 5.26276 52.8554 5.04969C52.165 4.8281 51.4193 4.71731 50.6182 4.71731C49.1949 4.71731 47.9335 5.07526 46.8341 5.79117C45.7346 6.49856 44.8738 7.53833 44.2517 8.91049C43.6295 10.2741 43.3184 11.9403 43.3184 13.9091C43.3184 15.9119 43.6295 17.5994 44.2517 18.9716C44.8824 20.3352 45.7432 21.3665 46.8341 22.0653C47.9335 22.7557 49.1906 23.1008 50.6054 23.1008C51.3895 23.1008 52.1224 22.9986 52.8042 22.794C53.4946 22.5809 54.1125 22.2699 54.6579 21.8608C55.2119 21.4517 55.6764 20.9488 56.0514 20.3523C56.4349 19.7557 56.6991 19.0738 56.844 18.3068L61.6253 18.3324C61.4463 19.5767 61.0585 20.7443 60.4619 21.8352C59.8738 22.9261 59.1025 23.8892 58.148 24.7244C57.1935 25.5511 56.077 26.1988 54.7986 26.6676C53.5202 27.1278 52.1011 27.3579 50.5415 27.3579C48.2403 27.3579 46.1863 26.8253 44.3795 25.7599C42.5727 24.6946 41.1494 23.1562 40.1096 21.1449C39.0699 19.1335 38.55 16.7216 38.55 13.9091C38.55 11.088 39.0741 8.67611 40.1224 6.67327C41.1707 4.66191 42.5983 3.12356 44.4051 2.05822C46.2119 0.992875 48.2574 0.460205 50.5415 0.460205C51.9988 0.460205 53.354 0.66475 54.6068 1.07384C55.8596 1.48293 56.9761 2.08379 57.9562 2.8764C58.9363 3.66049 59.7417 4.62356 60.3724 5.7656C61.0116 6.89913 61.4292 8.19458 61.6253 9.65197Z" fill="#FCFCFC"/>
<path d="M10.7723 41H9.36319C9.27986 40.5947 9.13403 40.2386 8.92569 39.9318C8.72115 39.625 8.47115 39.3674 8.17569 39.1591C7.88403 38.9469 7.56016 38.7879 7.2041 38.6818C6.84804 38.5757 6.47683 38.5227 6.09047 38.5227C5.38592 38.5227 4.74766 38.7007 4.17569 39.0568C3.60751 39.4129 3.15486 39.9375 2.81774 40.6307C2.4844 41.3238 2.31774 42.1742 2.31774 43.1818C2.31774 44.1894 2.4844 45.0398 2.81774 45.7329C3.15486 46.4261 3.60751 46.9507 4.17569 47.3068C4.74766 47.6629 5.38592 47.8409 6.09047 47.8409C6.47683 47.8409 6.84804 47.7879 7.2041 47.6818C7.56016 47.5757 7.88403 47.4185 8.17569 47.2102C8.47115 46.9981 8.72115 46.7386 8.92569 46.4318C9.13403 46.1212 9.27986 45.7651 9.36319 45.3636H10.7723C10.6662 45.9583 10.473 46.4905 10.1927 46.9602C9.91243 47.4299 9.56395 47.8295 9.14728 48.1591C8.73062 48.4848 8.26281 48.7329 7.74387 48.9034C7.22872 49.0738 6.67759 49.1591 6.09047 49.1591C5.09804 49.1591 4.21547 48.9166 3.44274 48.4318C2.67001 47.9469 2.06206 47.2576 1.61887 46.3636C1.17569 45.4697 0.954102 44.4091 0.954102 43.1818C0.954102 41.9545 1.17569 40.8939 1.61887 40C2.06206 39.106 2.67001 38.4166 3.44274 37.9318C4.21547 37.4469 5.09804 37.2045 6.09047 37.2045C6.67759 37.2045 7.22872 37.2898 7.74387 37.4602C8.26281 37.6307 8.73062 37.8807 9.14728 38.2102C9.56395 38.536 9.91243 38.9337 10.1927 39.4034C10.473 39.8693 10.6662 40.4015 10.7723 41Z" fill="#FCFCFC"/>
<path d="M16.4129 49.1818C15.625 49.1818 14.9337 48.9943 14.339 48.6193C13.7481 48.2443 13.286 47.7197 12.9527 47.0454C12.6231 46.3712 12.4584 45.5833 12.4584 44.6818C12.4584 43.7727 12.6231 42.9791 12.9527 42.3011C13.286 41.6231 13.7481 41.0966 14.339 40.7216C14.9337 40.3466 15.625 40.1591 16.4129 40.1591C17.2008 40.1591 17.8902 40.3466 18.4811 40.7216C19.0758 41.0966 19.5379 41.6231 19.8675 42.3011C20.2008 42.9791 20.3675 43.7727 20.3675 44.6818C20.3675 45.5833 20.2008 46.3712 19.8675 47.0454C19.5379 47.7197 19.0758 48.2443 18.4811 48.6193C17.8902 48.9943 17.2008 49.1818 16.4129 49.1818ZM16.4129 47.9773C17.0114 47.9773 17.5038 47.8238 17.8902 47.517C18.2765 47.2102 18.5625 46.8068 18.7481 46.3068C18.9337 45.8068 19.0265 45.2651 19.0265 44.6818C19.0265 44.0985 18.9337 43.5549 18.7481 43.0511C18.5625 42.5473 18.2765 42.1401 17.8902 41.8295C17.5038 41.5189 17.0114 41.3636 16.4129 41.3636C15.8144 41.3636 15.322 41.5189 14.9356 41.8295C14.5493 42.1401 14.2633 42.5473 14.0777 43.0511C13.8921 43.5549 13.7993 44.0985 13.7993 44.6818C13.7993 45.2651 13.8921 45.8068 14.0777 46.3068C14.2633 46.8068 14.5493 47.2102 14.9356 47.517C15.322 47.8238 15.8144 47.9773 16.4129 47.9773Z" fill="#FCFCFC"/>
<path d="M23.7552 43.75V49H22.4143V40.2727H23.7098V41.6363H23.8234C24.028 41.1932 24.3386 40.8371 24.7552 40.5682C25.1719 40.2954 25.7098 40.1591 26.3689 40.1591C26.9598 40.1591 27.4768 40.2803 27.92 40.5227C28.3632 40.7613 28.7079 41.125 28.9541 41.6136C29.2003 42.0985 29.3234 42.7121 29.3234 43.4545V49H27.9825V43.5454C27.9825 42.8598 27.8045 42.3257 27.4484 41.9432C27.0924 41.5568 26.6037 41.3636 25.9825 41.3636C25.5545 41.3636 25.1719 41.4564 24.8348 41.642C24.5015 41.8276 24.2382 42.0985 24.045 42.4545C23.8518 42.8106 23.7552 43.2424 23.7552 43.75Z" fill="#FCFCFC"/>
<path d="M35.2964 52.4545C34.6487 52.4545 34.0919 52.3712 33.626 52.2045C33.1601 52.0416 32.7718 51.8257 32.4612 51.5568C32.1544 51.2916 31.9101 51.0076 31.7282 50.7045L32.7964 49.9545C32.9176 50.1136 33.0711 50.2954 33.2567 50.5C33.4423 50.7083 33.6961 50.8882 34.018 51.0398C34.3438 51.1951 34.7699 51.2727 35.2964 51.2727C36.001 51.2727 36.5824 51.1023 37.0407 50.7613C37.4991 50.4204 37.7282 49.8863 37.7282 49.1591V47.3863H37.6146C37.5161 47.5454 37.376 47.7424 37.1942 47.9773C37.0161 48.2083 36.7586 48.4148 36.4214 48.5966C36.0881 48.7746 35.6373 48.8636 35.0692 48.8636C34.3646 48.8636 33.732 48.697 33.1714 48.3636C32.6146 48.0303 32.1733 47.5454 31.8476 46.9091C31.5256 46.2727 31.3646 45.5 31.3646 44.5909C31.3646 43.6969 31.5218 42.9185 31.8362 42.2557C32.1506 41.589 32.5881 41.0738 33.1487 40.7102C33.7093 40.3428 34.357 40.1591 35.0919 40.1591C35.6601 40.1591 36.1108 40.2538 36.4442 40.4432C36.7813 40.6288 37.0389 40.8409 37.2169 41.0795C37.3987 41.3144 37.5389 41.5076 37.6373 41.6591H37.7737V40.2727H39.0692V49.25C39.0692 50 38.8987 50.6098 38.5578 51.0795C38.2207 51.553 37.7661 51.8996 37.1942 52.1193C36.626 52.3428 35.9934 52.4545 35.2964 52.4545ZM35.251 47.6591C35.7889 47.6591 36.2434 47.536 36.6146 47.2898C36.9858 47.0435 37.268 46.6894 37.4612 46.2273C37.6544 45.7651 37.751 45.2121 37.751 44.5682C37.751 43.9394 37.6563 43.3844 37.4669 42.9034C37.2775 42.4223 36.9972 42.0454 36.626 41.7727C36.2548 41.5 35.7964 41.3636 35.251 41.3636C34.6828 41.3636 34.2093 41.5076 33.8305 41.7954C33.4555 42.0833 33.1733 42.4697 32.9839 42.9545C32.7983 43.4394 32.7055 43.9773 32.7055 44.5682C32.7055 45.1742 32.8002 45.7102 32.9896 46.1761C33.1828 46.6382 33.4669 47.0019 33.8419 47.267C34.2207 47.5284 34.6904 47.6591 35.251 47.6591Z" fill="#FCFCFC"/>
<path d="M41.5237 49V40.2727H42.8192V41.5909H42.9101C43.0692 41.1591 43.357 40.8087 43.7737 40.5397C44.1904 40.2708 44.6601 40.1363 45.1828 40.1363C45.2813 40.1363 45.4044 40.1382 45.5521 40.142C45.6998 40.1458 45.8116 40.1515 45.8873 40.1591V41.5227C45.8419 41.5113 45.7377 41.4943 45.5748 41.4716C45.4157 41.4451 45.2472 41.4318 45.0692 41.4318C44.6449 41.4318 44.2661 41.5208 43.9328 41.6988C43.6033 41.8731 43.3419 42.1155 43.1487 42.4261C42.9593 42.7329 42.8646 43.0833 42.8646 43.4773V49H41.5237Z" fill="#FCFCFC"/>
<path d="M50.8703 49.1818C50.0294 49.1818 49.304 48.9962 48.6942 48.625C48.0881 48.25 47.6203 47.7273 47.2907 47.0568C46.965 46.3826 46.8021 45.5985 46.8021 44.7045C46.8021 43.8106 46.965 43.0227 47.2907 42.3409C47.6203 41.6553 48.0786 41.1212 48.6657 40.7386C49.2567 40.3522 49.9461 40.1591 50.7339 40.1591C51.1885 40.1591 51.6373 40.2348 52.0805 40.3863C52.5237 40.5379 52.9271 40.7841 53.2907 41.125C53.6544 41.4621 53.9442 41.9091 54.1601 42.4659C54.376 43.0227 54.4839 43.7083 54.4839 44.5227V45.0909H47.7567V43.9318H53.1203C53.1203 43.4394 53.0218 43 52.8248 42.6136C52.6317 42.2272 52.3551 41.9223 51.9953 41.6988C51.6392 41.4754 51.2188 41.3636 50.7339 41.3636C50.1998 41.3636 49.7377 41.4962 49.3476 41.7613C48.9612 42.0227 48.6639 42.3636 48.4555 42.7841C48.2472 43.2045 48.143 43.6553 48.143 44.1363V44.9091C48.143 45.5682 48.2567 46.1269 48.4839 46.5852C48.715 47.0398 49.0351 47.3863 49.4442 47.625C49.8533 47.8598 50.3286 47.9773 50.8703 47.9773C51.2226 47.9773 51.5407 47.928 51.8248 47.8295C52.1127 47.7273 52.3608 47.5757 52.5692 47.375C52.7775 47.1704 52.9385 46.9166 53.0521 46.6136L54.3476 46.9773C54.2112 47.4166 53.982 47.803 53.6601 48.1363C53.3381 48.4659 52.9404 48.7235 52.4669 48.9091C51.9934 49.0909 51.4612 49.1818 50.8703 49.1818Z" fill="#FCFCFC"/>
<path d="M62.7055 42.2273L61.501 42.5682C61.4252 42.3674 61.3135 42.1723 61.1657 41.9829C61.0218 41.7898 60.8248 41.6307 60.5748 41.5057C60.3248 41.3807 60.0048 41.3182 59.6146 41.3182C59.0805 41.3182 58.6354 41.4413 58.2794 41.6875C57.9271 41.9299 57.751 42.2386 57.751 42.6136C57.751 42.9469 57.8722 43.2102 58.1146 43.4034C58.357 43.5966 58.7358 43.7576 59.251 43.8863L60.5464 44.2045C61.3267 44.3939 61.9082 44.6837 62.2907 45.0738C62.6733 45.4602 62.8646 45.9583 62.8646 46.5682C62.8646 47.0682 62.7207 47.5151 62.4328 47.9091C62.1487 48.303 61.751 48.6136 61.2396 48.8409C60.7282 49.0682 60.1336 49.1818 59.4555 49.1818C58.5654 49.1818 57.8286 48.9886 57.2453 48.6023C56.662 48.2159 56.2926 47.6515 56.1373 46.9091L57.4101 46.5909C57.5313 47.0606 57.7604 47.4129 58.0976 47.6477C58.4385 47.8826 58.8836 48 59.4328 48C60.0578 48 60.554 47.8674 60.9214 47.6023C61.2926 47.3333 61.4782 47.0113 61.4782 46.6363C61.4782 46.3333 61.3722 46.0795 61.1601 45.875C60.9479 45.6666 60.6222 45.5113 60.1828 45.4091L58.7282 45.0682C57.929 44.8788 57.3419 44.5852 56.9669 44.1875C56.5957 43.786 56.4101 43.2841 56.4101 42.6818C56.4101 42.1894 56.5483 41.7538 56.8248 41.375C57.1051 40.9962 57.4858 40.6988 57.9669 40.4829C58.4517 40.267 59.001 40.1591 59.6146 40.1591C60.4782 40.1591 61.1563 40.3485 61.6487 40.7272C62.1449 41.106 62.4972 41.606 62.7055 42.2273Z" fill="#FCFCFC"/>
<path d="M71.0649 42.2273L69.8604 42.5682C69.7846 42.3674 69.6729 42.1723 69.5251 41.9829C69.3812 41.7898 69.1842 41.6307 68.9342 41.5057C68.6842 41.3807 68.3641 41.3182 67.974 41.3182C67.4399 41.3182 66.9948 41.4413 66.6388 41.6875C66.2865 41.9299 66.1104 42.2386 66.1104 42.6136C66.1104 42.9469 66.2316 43.2102 66.474 43.4034C66.7164 43.5966 67.0952 43.7576 67.6104 43.8863L68.9058 44.2045C69.6861 44.3939 70.2675 44.6837 70.6501 45.0738C71.0327 45.4602 71.224 45.9583 71.224 46.5682C71.224 47.0682 71.08 47.5151 70.7922 47.9091C70.5081 48.303 70.1104 48.6136 69.599 48.8409C69.0876 49.0682 68.4929 49.1818 67.8149 49.1818C66.9247 49.1818 66.188 48.9886 65.6047 48.6023C65.0213 48.2159 64.652 47.6515 64.4967 46.9091L65.7694 46.5909C65.8907 47.0606 66.1198 47.4129 66.4569 47.6477C66.7978 47.8826 67.2429 48 67.7922 48C68.4172 48 68.9134 47.8674 69.2808 47.6023C69.652 47.3333 69.8376 47.0113 69.8376 46.6363C69.8376 46.3333 69.7316 46.0795 69.5194 45.875C69.3073 45.6666 68.9816 45.5113 68.5422 45.4091L67.0876 45.0682C66.2884 44.8788 65.7013 44.5852 65.3263 44.1875C64.9551 43.786 64.7694 43.2841 64.7694 42.6818C64.7694 42.1894 64.9077 41.7538 65.1842 41.375C65.4645 40.9962 65.8452 40.6988 66.3263 40.4829C66.8111 40.267 67.3604 40.1591 67.974 40.1591C68.8376 40.1591 69.5157 40.3485 70.0081 40.7272C70.5043 41.106 70.8566 41.606 71.0649 42.2273Z" fill="#FCFCFC"/>
<path d="M76.7879 49.1818C76 49.1818 75.3087 48.9943 74.714 48.6193C74.1231 48.2443 73.661 47.7197 73.3277 47.0454C72.9981 46.3712 72.8334 45.5833 72.8334 44.6818C72.8334 43.7727 72.9981 42.9791 73.3277 42.3011C73.661 41.6231 74.1231 41.0966 74.714 40.7216C75.3087 40.3466 76 40.1591 76.7879 40.1591C77.5758 40.1591 78.2652 40.3466 78.8561 40.7216C79.4508 41.0966 79.9129 41.6231 80.2425 42.3011C80.5758 42.9791 80.7425 43.7727 80.7425 44.6818C80.7425 45.5833 80.5758 46.3712 80.2425 47.0454C79.9129 47.7197 79.4508 48.2443 78.8561 48.6193C78.2652 48.9943 77.5758 49.1818 76.7879 49.1818ZM76.7879 47.9773C77.3864 47.9773 77.8788 47.8238 78.2652 47.517C78.6515 47.2102 78.9375 46.8068 79.1231 46.3068C79.3087 45.8068 79.4015 45.2651 79.4015 44.6818C79.4015 44.0985 79.3087 43.5549 79.1231 43.0511C78.9375 42.5473 78.6515 42.1401 78.2652 41.8295C77.8788 41.5189 77.3864 41.3636 76.7879 41.3636C76.1894 41.3636 75.697 41.5189 75.3106 41.8295C74.9243 42.1401 74.6383 42.5473 74.4527 43.0511C74.2671 43.5549 74.1743 44.0985 74.1743 44.6818C74.1743 45.2651 74.2671 45.8068 74.4527 46.3068C74.6383 46.8068 74.9243 47.2102 75.3106 47.517C75.697 47.8238 76.1894 47.9773 76.7879 47.9773Z" fill="#FCFCFC"/>
<path d="M90.5848 49.1818C89.8575 49.1818 89.2155 48.9981 88.6586 48.6307C88.1018 48.2594 87.6662 47.7367 87.3518 47.0625C87.0374 46.3844 86.8802 45.5833 86.8802 44.6591C86.8802 43.7424 87.0374 42.9469 87.3518 42.2727C87.6662 41.5985 88.1037 41.0776 88.6643 40.7102C89.2249 40.3428 89.8727 40.1591 90.6075 40.1591C91.1757 40.1591 91.6246 40.2538 91.9541 40.4432C92.2874 40.6288 92.5412 40.8409 92.7155 41.0795C92.8935 41.3144 93.0318 41.5076 93.1302 41.6591H93.2439V37.3636H94.5848V49H93.2893V47.6591H93.1302C93.0318 47.8182 92.8916 48.0189 92.7098 48.2613C92.528 48.5 92.2685 48.714 91.9314 48.9034C91.5943 49.089 91.1454 49.1818 90.5848 49.1818ZM90.7666 47.9773C91.3045 47.9773 91.759 47.8371 92.1302 47.5568C92.5015 47.2727 92.7836 46.8807 92.9768 46.3807C93.17 45.8769 93.2666 45.2954 93.2666 44.6363C93.2666 43.9848 93.1719 43.4147 92.9825 42.9261C92.7931 42.4337 92.5128 42.0511 92.1416 41.7784C91.7704 41.5019 91.3121 41.3636 90.7666 41.3636C90.1984 41.3636 89.7249 41.5094 89.3461 41.8011C88.9711 42.089 88.689 42.481 88.4996 42.9773C88.314 43.4697 88.2211 44.0227 88.2211 44.6363C88.2211 45.2576 88.3158 45.8219 88.5052 46.3295C88.6984 46.8333 88.9825 47.2348 89.3575 47.5341C89.7363 47.8295 90.206 47.9773 90.7666 47.9773Z" fill="#FCFCFC"/>
<path d="M100.886 49.1818C100.045 49.1818 99.3196 48.9962 98.7098 48.625C98.1037 48.25 97.6359 47.7273 97.3064 47.0568C96.9806 46.3826 96.8177 45.5985 96.8177 44.7045C96.8177 43.8106 96.9806 43.0227 97.3064 42.3409C97.6359 41.6553 98.0943 41.1212 98.6814 40.7386C99.2723 40.3522 99.9617 40.1591 100.75 40.1591C101.204 40.1591 101.653 40.2348 102.096 40.3863C102.539 40.5379 102.943 40.7841 103.306 41.125C103.67 41.4621 103.96 41.9091 104.176 42.4659C104.392 43.0227 104.5 43.7083 104.5 44.5227V45.0909H97.7723V43.9318H103.136C103.136 43.4394 103.037 43 102.84 42.6136C102.647 42.2272 102.371 41.9223 102.011 41.6988C101.655 41.4754 101.234 41.3636 100.75 41.3636C100.215 41.3636 99.7533 41.4962 99.3632 41.7613C98.9768 42.0227 98.6795 42.3636 98.4711 42.7841C98.2628 43.2045 98.1586 43.6553 98.1586 44.1363V44.9091C98.1586 45.5682 98.2723 46.1269 98.4996 46.5852C98.7306 47.0398 99.0507 47.3863 99.4598 47.625C99.8689 47.8598 100.344 47.9773 100.886 47.9773C101.238 47.9773 101.556 47.928 101.84 47.8295C102.128 47.7273 102.376 47.5757 102.585 47.375C102.793 47.1704 102.954 46.9166 103.068 46.6136L104.363 46.9773C104.227 47.4166 103.998 47.803 103.676 48.1363C103.354 48.4659 102.956 48.7235 102.483 48.9091C102.009 49.0909 101.477 49.1818 100.886 49.1818Z" fill="#FCFCFC"/>
<path d="M2.81774 56.3636V68H1.40865V56.3636H2.81774Z" fill="#FCFCFC"/>
<path d="M6.80211 62.75V68H5.4612V59.2727H6.75666V60.6363H6.87029C7.07484 60.1932 7.38545 59.8371 7.80211 59.5682C8.21878 59.2954 8.75666 59.1591 9.41575 59.1591C10.0067 59.1591 10.5237 59.2803 10.9669 59.5227C11.4101 59.7613 11.7548 60.125 12.001 60.6136C12.2472 61.0985 12.3703 61.7121 12.3703 62.4545V68H11.0294V62.5454C11.0294 61.8598 10.8514 61.3257 10.4953 60.9432C10.1392 60.5568 9.6506 60.3636 9.02939 60.3636C8.60136 60.3636 8.21878 60.4564 7.88166 60.642C7.54833 60.8276 7.28507 61.0985 7.09189 61.4545C6.8987 61.8106 6.80211 62.2424 6.80211 62.75Z" fill="#FCFCFC"/>
<path d="M14.8206 68V59.2727H16.1615V68H14.8206ZM15.5024 57.8182C15.241 57.8182 15.0157 57.7291 14.8263 57.5511C14.6407 57.3731 14.5479 57.1591 14.5479 56.9091C14.5479 56.6591 14.6407 56.4451 14.8263 56.267C15.0157 56.089 15.241 56 15.5024 56C15.7638 56 15.9872 56.089 16.1729 56.267C16.3622 56.4451 16.4569 56.6591 16.4569 56.9091C16.4569 57.1591 16.3622 57.3731 16.1729 57.5511C15.9872 57.7291 15.7638 57.8182 15.5024 57.8182Z" fill="#FCFCFC"/>
<path d="M22.1629 68.1818C21.3447 68.1818 20.6402 67.9886 20.0493 67.6022C19.4584 67.2159 19.0038 66.6837 18.6856 66.0057C18.3675 65.3276 18.2084 64.553 18.2084 63.6818C18.2084 62.7954 18.3712 62.0132 18.697 61.3352C19.0265 60.6534 19.4849 60.1212 20.072 59.7386C20.6629 59.3522 21.3523 59.1591 22.1402 59.1591C22.7538 59.1591 23.3068 59.2727 23.7993 59.5C24.2917 59.7272 24.6951 60.0454 25.0095 60.4545C25.3239 60.8636 25.519 61.3409 25.5947 61.8863H24.2538C24.1515 61.4886 23.9243 61.1363 23.572 60.8295C23.2235 60.5189 22.7538 60.3636 22.1629 60.3636C21.6402 60.3636 21.1818 60.5 20.7879 60.7727C20.3978 61.0416 20.0928 61.4223 19.8731 61.9148C19.6572 62.4034 19.5493 62.9773 19.5493 63.6363C19.5493 64.3106 19.6553 64.8977 19.8675 65.3977C20.0834 65.8977 20.3864 66.286 20.7765 66.5625C21.1705 66.839 21.6326 66.9772 22.1629 66.9772C22.5114 66.9772 22.8277 66.9166 23.1118 66.7954C23.3959 66.6742 23.6364 66.5 23.8334 66.2727C24.0303 66.0454 24.1705 65.7727 24.2538 65.4545H25.5947C25.519 65.9697 25.3315 66.4337 25.0322 66.8466C24.7368 67.2557 24.3447 67.5814 23.8561 67.8238C23.3712 68.0625 22.8068 68.1818 22.1629 68.1818Z" fill="#FCFCFC"/>
<path d="M27.555 68V59.2727H28.8959V68H27.555ZM28.2368 57.8182C27.9754 57.8182 27.75 57.7291 27.5606 57.5511C27.375 57.3731 27.2822 57.1591 27.2822 56.9091C27.2822 56.6591 27.375 56.4451 27.5606 56.267C27.75 56.089 27.9754 56 28.2368 56C28.4981 56 28.7216 56.089 28.9072 56.267C29.0966 56.4451 29.1913 56.6591 29.1913 56.9091C29.1913 57.1591 29.0966 57.3731 28.9072 57.5511C28.7216 57.7291 28.4981 57.8182 28.2368 57.8182Z" fill="#FCFCFC"/>
<path d="M33.92 68.2045C33.367 68.2045 32.8651 68.1004 32.4143 67.892C31.9636 67.6799 31.6056 67.375 31.3405 66.9772C31.0753 66.5757 30.9427 66.0909 30.9427 65.5227C30.9427 65.0227 31.0412 64.6174 31.2382 64.3068C31.4352 63.9924 31.6984 63.7462 32.028 63.5682C32.3575 63.3901 32.7211 63.2576 33.1189 63.1704C33.5204 63.0795 33.9238 63.0076 34.3291 62.9545C34.8594 62.8863 35.2893 62.8352 35.6189 62.8011C35.9522 62.7632 36.1946 62.7007 36.3461 62.6136C36.5014 62.5265 36.5791 62.375 36.5791 62.1591V62.1136C36.5791 61.553 36.4257 61.1174 36.1189 60.8068C35.8158 60.4962 35.3556 60.3409 34.7382 60.3409C34.098 60.3409 33.5961 60.481 33.2325 60.7613C32.8689 61.0416 32.6132 61.3409 32.4655 61.6591L31.1927 61.2045C31.42 60.6742 31.723 60.2613 32.1018 59.9659C32.4844 59.6666 32.9011 59.4583 33.3518 59.3409C33.8064 59.2197 34.2533 59.1591 34.6927 59.1591C34.973 59.1591 35.295 59.1932 35.6586 59.2613C36.0261 59.3257 36.3802 59.4602 36.7211 59.6647C37.0658 59.8693 37.3518 60.178 37.5791 60.5909C37.8064 61.0038 37.92 61.5568 37.92 62.25V68H36.5791V66.8182H36.5109C36.42 67.0076 36.2685 67.2102 36.0564 67.4261C35.8443 67.642 35.5621 67.8257 35.2098 67.9772C34.8575 68.1288 34.4276 68.2045 33.92 68.2045ZM34.1246 67C34.6549 67 35.1018 66.8958 35.4655 66.6875C35.8329 66.4791 36.1094 66.2102 36.295 65.8807C36.4844 65.5511 36.5791 65.2045 36.5791 64.8409V63.6136C36.5223 63.6818 36.3973 63.7443 36.2041 63.8011C36.0147 63.8541 35.795 63.9015 35.545 63.9432C35.2988 63.981 35.0583 64.0151 34.8234 64.0454C34.5924 64.0719 34.4049 64.0947 34.2609 64.1136C33.9124 64.1591 33.5867 64.2329 33.2836 64.3352C32.9844 64.4337 32.742 64.5833 32.5564 64.7841C32.3746 64.981 32.2836 65.25 32.2836 65.5909C32.2836 66.0568 32.456 66.4091 32.8007 66.6477C33.1492 66.8826 33.5905 67 34.1246 67Z" fill="#FCFCFC"/>
<path d="M43.9129 68.1818C43.0947 68.1818 42.3902 67.9886 41.7993 67.6022C41.2084 67.2159 40.7538 66.6837 40.4356 66.0057C40.1175 65.3276 39.9584 64.553 39.9584 63.6818C39.9584 62.7954 40.1212 62.0132 40.447 61.3352C40.7765 60.6534 41.2349 60.1212 41.822 59.7386C42.4129 59.3522 43.1023 59.1591 43.8902 59.1591C44.5038 59.1591 45.0568 59.2727 45.5493 59.5C46.0417 59.7272 46.4451 60.0454 46.7595 60.4545C47.0739 60.8636 47.269 61.3409 47.3447 61.8863H46.0038C45.9015 61.4886 45.6743 61.1363 45.322 60.8295C44.9735 60.5189 44.5038 60.3636 43.9129 60.3636C43.3902 60.3636 42.9318 60.5 42.5379 60.7727C42.1478 61.0416 41.8428 61.4223 41.6231 61.9148C41.4072 62.4034 41.2993 62.9773 41.2993 63.6363C41.2993 64.3106 41.4053 64.8977 41.6175 65.3977C41.8334 65.8977 42.1364 66.286 42.5265 66.5625C42.9205 66.839 43.3826 66.9772 43.9129 66.9772C44.2614 66.9772 44.5777 66.9166 44.8618 66.7954C45.1459 66.6742 45.3864 66.5 45.5834 66.2727C45.7803 66.0454 45.9205 65.7727 46.0038 65.4545H47.3447C47.269 65.9697 47.0815 66.4337 46.7822 66.8466C46.4868 67.2557 46.0947 67.5814 45.6061 67.8238C45.1212 68.0625 44.5568 68.1818 43.9129 68.1818ZM43.2765 67.9545H44.3902L44.2993 68.4091C44.5947 68.4545 44.8656 68.5776 45.1118 68.7784C45.358 68.9829 45.4811 69.3068 45.4811 69.75C45.4811 70.2386 45.2784 70.6363 44.8731 70.9432C44.4716 71.2538 43.8788 71.4091 43.0947 71.4091L43.0493 70.5227C43.4015 70.5227 43.6932 70.4659 43.9243 70.3522C44.1591 70.2424 44.2765 70.0568 44.2765 69.7954C44.2765 69.5341 44.18 69.356 43.9868 69.2613C43.7936 69.1666 43.4811 69.1023 43.0493 69.0682L43.2765 67.9545Z" fill="#FCFCFC"/>
<path d="M51.8731 68.2045C51.3201 68.2045 50.8182 68.1004 50.3675 67.892C49.9167 67.6799 49.5587 67.375 49.2936 66.9772C49.0284 66.5757 48.8959 66.0909 48.8959 65.5227C48.8959 65.0227 48.9943 64.6174 49.1913 64.3068C49.3883 63.9924 49.6515 63.7462 49.9811 63.5682C50.3106 63.3901 50.6743 63.2576 51.072 63.1704C51.4735 63.0795 51.8769 63.0076 52.2822 62.9545C52.8125 62.8863 53.2425 62.8352 53.572 62.8011C53.9053 62.7632 54.1478 62.7007 54.2993 62.6136C54.4546 62.5265 54.5322 62.375 54.5322 62.1591V62.1136C54.5322 61.553 54.3788 61.1174 54.072 60.8068C53.769 60.4962 53.3087 60.3409 52.6913 60.3409C52.0512 60.3409 51.5493 60.481 51.1856 60.7613C50.822 61.0416 50.5663 61.3409 50.4186 61.6591L49.1459 61.2045C49.3731 60.6742 49.6762 60.2613 50.055 59.9659C50.4375 59.6666 50.8542 59.4583 51.305 59.3409C51.7595 59.2197 52.2065 59.1591 52.6459 59.1591C52.9262 59.1591 53.2481 59.1932 53.6118 59.2613C53.9792 59.3257 54.3334 59.4602 54.6743 59.6647C55.019 59.8693 55.305 60.178 55.5322 60.5909C55.7595 61.0038 55.8731 61.5568 55.8731 62.25V68H54.5322V66.8182H54.464C54.3731 67.0076 54.2216 67.2102 54.0095 67.4261C53.7974 67.642 53.5152 67.8257 53.1629 67.9772C52.8106 68.1288 52.3807 68.2045 51.8731 68.2045ZM52.0777 67C52.608 67 53.055 66.8958 53.4186 66.6875C53.786 66.4791 54.0625 66.2102 54.2481 65.8807C54.4375 65.5511 54.5322 65.2045 54.5322 64.8409V63.6136C54.4754 63.6818 54.3504 63.7443 54.1572 63.8011C53.9678 63.8541 53.7481 63.9015 53.4981 63.9432C53.2519 63.981 53.0114 64.0151 52.7765 64.0454C52.5455 64.0719 52.358 64.0947 52.214 64.1136C51.8656 64.1591 51.5398 64.2329 51.2368 64.3352C50.9375 64.4337 50.6951 64.5833 50.5095 64.7841C50.3277 64.981 50.2368 65.25 50.2368 65.5909C50.2368 66.0568 50.4091 66.4091 50.7538 66.6477C51.1023 66.8826 51.5436 67 52.0777 67ZM50.9868 58.2272L49.9413 58.1818C49.9413 57.6023 50.1061 57.1288 50.4356 56.7613C50.769 56.3901 51.18 56.2045 51.6686 56.2045C51.8845 56.2045 52.0758 56.2424 52.2425 56.3182C52.4091 56.3901 52.5682 56.4735 52.7197 56.5682C52.8712 56.6629 53.0265 56.7481 53.1856 56.8238C53.3485 56.8958 53.5322 56.9318 53.7368 56.9318C53.9527 56.9318 54.1345 56.8485 54.2822 56.6818C54.4337 56.5113 54.5095 56.3068 54.5095 56.0682L55.5322 56.1591C55.5322 56.75 55.3656 57.2197 55.0322 57.5682C54.7027 57.9166 54.2936 58.0909 53.805 58.0909C53.5436 58.0909 53.3277 58.0549 53.1572 57.9829C52.9868 57.9072 52.8353 57.8219 52.7027 57.7272C52.5701 57.6326 52.43 57.5492 52.2822 57.4772C52.1345 57.4015 51.9527 57.3636 51.7368 57.3636C51.5209 57.3636 51.3409 57.4488 51.197 57.6193C51.0568 57.786 50.9868 57.9886 50.9868 58.2272Z" fill="#FCFCFC"/>
<path d="M61.866 68.1818C61.0782 68.1818 60.3869 67.9943 59.7922 67.6193C59.2013 67.2443 58.7391 66.7197 58.4058 66.0454C58.0763 65.3712 57.9115 64.5833 57.9115 63.6818C57.9115 62.7727 58.0763 61.9791 58.4058 61.3011C58.7391 60.6231 59.2013 60.0966 59.7922 59.7216C60.3869 59.3466 61.0782 59.1591 61.866 59.1591C62.6539 59.1591 63.3433 59.3466 63.9342 59.7216C64.5289 60.0966 64.991 60.6231 65.3206 61.3011C65.6539 61.9791 65.8206 62.7727 65.8206 63.6818C65.8206 64.5833 65.6539 65.3712 65.3206 66.0454C64.991 66.7197 64.5289 67.2443 63.9342 67.6193C63.3433 67.9943 62.6539 68.1818 61.866 68.1818ZM61.866 66.9772C62.4645 66.9772 62.9569 66.8238 63.3433 66.517C63.7297 66.2102 64.0157 65.8068 64.2013 65.3068C64.3869 64.8068 64.4797 64.2651 64.4797 63.6818C64.4797 63.0985 64.3869 62.5549 64.2013 62.0511C64.0157 61.5473 63.7297 61.1401 63.3433 60.8295C62.9569 60.5189 62.4645 60.3636 61.866 60.3636C61.2676 60.3636 60.7751 60.5189 60.3888 60.8295C60.0024 61.1401 59.7164 61.5473 59.5308 62.0511C59.3452 62.5549 59.2524 63.0985 59.2524 63.6818C59.2524 64.2651 59.3452 64.8068 59.5308 65.3068C59.7164 65.8068 60.0024 66.2102 60.3888 66.517C60.7751 66.8238 61.2676 66.9772 61.866 66.9772Z" fill="#FCFCFC"/>
<path d="M81.9129 60H80.5038C80.4205 59.5947 80.2746 59.2386 80.0663 58.9318C79.8618 58.625 79.6118 58.3674 79.3163 58.1591C79.0246 57.9469 78.7008 57.7879 78.3447 57.6818C77.9887 57.5757 77.6175 57.5227 77.2311 57.5227C76.5265 57.5227 75.8883 57.7007 75.3163 58.0568C74.7481 58.4129 74.2955 58.9375 73.9584 59.6307C73.625 60.3238 73.4584 61.1742 73.4584 62.1818C73.4584 63.1894 73.625 64.0398 73.9584 64.7329C74.2955 65.4261 74.7481 65.9507 75.3163 66.3068C75.8883 66.6629 76.5265 66.8409 77.2311 66.8409C77.6175 66.8409 77.9887 66.7879 78.3447 66.6818C78.7008 66.5757 79.0246 66.4185 79.3163 66.2102C79.6118 65.9981 79.8618 65.7386 80.0663 65.4318C80.2746 65.1212 80.4205 64.7651 80.5038 64.3636H81.9129C81.8068 64.9583 81.6137 65.4905 81.3334 65.9602C81.0531 66.4299 80.7046 66.8295 80.2879 67.1591C79.8712 67.4848 79.4034 67.7329 78.8845 67.9034C78.3693 68.0738 77.8182 68.1591 77.2311 68.1591C76.2387 68.1591 75.3561 67.9166 74.5834 67.4318C73.8106 66.9469 73.2027 66.2576 72.7595 65.3636C72.3163 64.4697 72.0947 63.4091 72.0947 62.1818C72.0947 60.9545 72.3163 59.8939 72.7595 59C73.2027 58.106 73.8106 57.4166 74.5834 56.9318C75.3561 56.4469 76.2387 56.2045 77.2311 56.2045C77.8182 56.2045 78.3693 56.2898 78.8845 56.4602C79.4034 56.6307 79.8712 56.8807 80.2879 57.2102C80.7046 57.536 81.0531 57.9337 81.3334 58.4034C81.6137 58.8693 81.8068 59.4015 81.9129 60Z" fill="#FCFCFC"/>
<path d="M84.0081 68V59.2727H85.349V68H84.0081ZM84.6899 57.8182C84.4285 57.8182 84.2032 57.7291 84.0138 57.5511C83.8282 57.3731 83.7354 57.1591 83.7354 56.9091C83.7354 56.6591 83.8282 56.4451 84.0138 56.267C84.2032 56.089 84.4285 56 84.6899 56C84.9513 56 85.1747 56.089 85.3604 56.267C85.5497 56.4451 85.6444 56.6591 85.6444 56.9091C85.6444 57.1591 85.5497 57.3731 85.3604 57.5511C85.1747 57.7291 84.9513 57.8182 84.6899 57.8182Z" fill="#FCFCFC"/>
<path d="M91.464 68.1818C90.6231 68.1818 89.8978 67.9962 89.2879 67.625C88.6818 67.25 88.214 66.7272 87.8845 66.0568C87.5587 65.3826 87.3959 64.5985 87.3959 63.7045C87.3959 62.8106 87.5587 62.0227 87.8845 61.3409C88.214 60.6553 88.6724 60.1212 89.2595 59.7386C89.8504 59.3522 90.5398 59.1591 91.3277 59.1591C91.7822 59.1591 92.2311 59.2348 92.6743 59.3863C93.1175 59.5379 93.5209 59.7841 93.8845 60.125C94.2481 60.4621 94.5379 60.9091 94.7538 61.4659C94.9697 62.0227 95.0777 62.7083 95.0777 63.5227V64.0909H88.3504V62.9318H93.714C93.714 62.4394 93.6156 62 93.4186 61.6136C93.2254 61.2272 92.9489 60.9223 92.589 60.6988C92.233 60.4754 91.8125 60.3636 91.3277 60.3636C90.7936 60.3636 90.3315 60.4962 89.9413 60.7613C89.555 61.0227 89.2576 61.3636 89.0493 61.7841C88.8409 62.2045 88.7368 62.6553 88.7368 63.1363V63.9091C88.7368 64.5682 88.8504 65.1269 89.0777 65.5852C89.3087 66.0398 89.6288 66.3863 90.0379 66.625C90.447 66.8598 90.9224 66.9772 91.464 66.9772C91.8163 66.9772 92.1345 66.928 92.4186 66.8295C92.7065 66.7272 92.9546 66.5757 93.1629 66.375C93.3712 66.1704 93.5322 65.9166 93.6459 65.6136L94.9413 65.9772C94.805 66.4166 94.5758 66.803 94.2538 67.1363C93.9318 67.4659 93.5341 67.7235 93.0606 67.9091C92.5872 68.0909 92.055 68.1818 91.464 68.1818Z" fill="#FCFCFC"/>
<path d="M98.4584 62.75V68H97.1175V59.2727H98.4129V60.6363H98.5265C98.7311 60.1932 99.0417 59.8371 99.4584 59.5682C99.875 59.2954 100.413 59.1591 101.072 59.1591C101.663 59.1591 102.18 59.2803 102.623 59.5227C103.066 59.7613 103.411 60.125 103.657 60.6136C103.903 61.0985 104.027 61.7121 104.027 62.4545V68H102.686V62.5454C102.686 61.8598 102.508 61.3257 102.152 60.9432C101.795 60.5568 101.307 60.3636 100.686 60.3636C100.258 60.3636 99.875 60.4564 99.5379 60.642C99.2046 60.8276 98.9413 61.0985 98.7481 61.4545C98.555 61.8106 98.4584 62.2424 98.4584 62.75Z" fill="#FCFCFC"/>
<path d="M110.272 59.2727V60.4091H105.75V59.2727H110.272ZM107.068 57.1818H108.409V65.5C108.409 65.8788 108.464 66.1629 108.573 66.3522C108.687 66.5379 108.831 66.6629 109.005 66.7272C109.183 66.7879 109.371 66.8182 109.568 66.8182C109.715 66.8182 109.837 66.8106 109.931 66.7954C110.026 66.7765 110.102 66.7613 110.159 66.75L110.431 67.9545C110.34 67.9886 110.214 68.0227 110.051 68.0568C109.888 68.0947 109.681 68.1136 109.431 68.1136C109.053 68.1136 108.681 68.0322 108.318 67.8693C107.958 67.7064 107.659 67.4583 107.42 67.125C107.185 66.7916 107.068 66.3712 107.068 65.8636V57.1818Z" fill="#FCFCFC"/>
<path d="M112.289 68V59.2727H113.63V68H112.289ZM112.358 58.0909L113.744 55.4545H115.312L113.539 58.0909H112.358Z" fill="#FCFCFC"/>
<path d="M119.973 59.2727V60.4091H115.268V59.2727H119.973ZM116.677 68V58.0682C116.677 57.5682 116.795 57.1515 117.029 56.8182C117.264 56.4848 117.569 56.2348 117.944 56.0682C118.319 55.9015 118.715 55.8182 119.132 55.8182C119.461 55.8182 119.73 55.8447 119.938 55.8977C120.147 55.9507 120.302 56 120.404 56.0454L120.018 57.2045C119.95 57.1818 119.855 57.1534 119.734 57.1193C119.617 57.0852 119.461 57.0682 119.268 57.0682C118.825 57.0682 118.505 57.1799 118.308 57.4034C118.115 57.6269 118.018 57.9545 118.018 58.3863V68H116.677Z" fill="#FCFCFC"/>
<path d="M121.852 68V59.2727H123.193V68H121.852ZM122.534 57.8182C122.272 57.8182 122.047 57.7291 121.858 57.5511C121.672 57.3731 121.579 57.1591 121.579 56.9091C121.579 56.6591 121.672 56.4451 121.858 56.267C122.047 56.089 122.272 56 122.534 56C122.795 56 123.018 56.089 123.204 56.267C123.393 56.4451 123.488 56.6591 123.488 56.9091C123.488 57.1591 123.393 57.3731 123.204 57.5511C123.018 57.7291 122.795 57.8182 122.534 57.8182Z" fill="#FCFCFC"/>
<path d="M129.194 68.1818C128.376 68.1818 127.671 67.9886 127.081 67.6022C126.49 67.2159 126.035 66.6837 125.717 66.0057C125.399 65.3276 125.24 64.553 125.24 63.6818C125.24 62.7954 125.402 62.0132 125.728 61.3352C126.058 60.6534 126.516 60.1212 127.103 59.7386C127.694 59.3522 128.384 59.1591 129.171 59.1591C129.785 59.1591 130.338 59.2727 130.831 59.5C131.323 59.7272 131.726 60.0454 132.041 60.4545C132.355 60.8636 132.55 61.3409 132.626 61.8863H131.285C131.183 61.4886 130.956 61.1363 130.603 60.8295C130.255 60.5189 129.785 60.3636 129.194 60.3636C128.671 60.3636 128.213 60.5 127.819 60.7727C127.429 61.0416 127.124 61.4223 126.904 61.9148C126.688 62.4034 126.581 62.9773 126.581 63.6363C126.581 64.3106 126.687 64.8977 126.899 65.3977C127.115 65.8977 127.418 66.286 127.808 66.5625C128.202 66.839 128.664 66.9772 129.194 66.9772C129.543 66.9772 129.859 66.9166 130.143 66.7954C130.427 66.6742 130.668 66.5 130.865 66.2727C131.062 66.0454 131.202 65.7727 131.285 65.4545H132.626C132.55 65.9697 132.363 66.4337 132.063 66.8466C131.768 67.2557 131.376 67.5814 130.887 67.8238C130.402 68.0625 129.838 68.1818 129.194 68.1818Z" fill="#FCFCFC"/>
<path d="M137.154 68.2045C136.601 68.2045 136.099 68.1004 135.649 67.892C135.198 67.6799 134.84 67.375 134.575 66.9772C134.31 66.5757 134.177 66.0909 134.177 65.5227C134.177 65.0227 134.276 64.6174 134.473 64.3068C134.67 63.9924 134.933 63.7462 135.262 63.5682C135.592 63.3901 135.956 63.2576 136.353 63.1704C136.755 63.0795 137.158 63.0076 137.563 62.9545C138.094 62.8863 138.524 62.8352 138.853 62.8011C139.187 62.7632 139.429 62.7007 139.581 62.6136C139.736 62.5265 139.813 62.375 139.813 62.1591V62.1136C139.813 61.553 139.66 61.1174 139.353 60.8068C139.05 60.4962 138.59 60.3409 137.973 60.3409C137.332 60.3409 136.831 60.481 136.467 60.7613C136.103 61.0416 135.848 61.3409 135.7 61.6591L134.427 61.2045C134.654 60.6742 134.957 60.2613 135.336 59.9659C135.719 59.6666 136.135 59.4583 136.586 59.3409C137.041 59.2197 137.488 59.1591 137.927 59.1591C138.207 59.1591 138.529 59.1932 138.893 59.2613C139.26 59.3257 139.615 59.4602 139.956 59.6647C140.3 59.8693 140.586 60.178 140.813 60.5909C141.041 61.0038 141.154 61.5568 141.154 62.25V68H139.813V66.8182H139.745C139.654 67.0076 139.503 67.2102 139.291 67.4261C139.079 67.642 138.796 67.8257 138.444 67.9772C138.092 68.1288 137.662 68.2045 137.154 68.2045ZM137.359 67C137.889 67 138.336 66.8958 138.7 66.6875C139.067 66.4791 139.344 66.2102 139.529 65.8807C139.719 65.5511 139.813 65.2045 139.813 64.8409V63.6136C139.757 63.6818 139.632 63.7443 139.438 63.8011C139.249 63.8541 139.029 63.9015 138.779 63.9432C138.533 63.981 138.293 64.0151 138.058 64.0454C137.827 64.0719 137.639 64.0947 137.495 64.1136C137.147 64.1591 136.821 64.2329 136.518 64.3352C136.219 64.4337 135.976 64.5833 135.791 64.7841C135.609 64.981 135.518 65.25 135.518 65.5909C135.518 66.0568 135.69 66.4091 136.035 66.6477C136.384 66.8826 136.825 67 137.359 67Z" fill="#FCFCFC"/>
</g>
</svg>
