<svg width="146" height="70" viewBox="0 0 146 70" fill="none" xmlns="http://www.w3.org/2000/svg">
<g id="CNPq - cor">
<path id="Vector" fill-rule="evenodd" clip-rule="evenodd" d="M22.4621 0.073883C18.7665 0.452069 15.0165 2.31855 11.9808 5.29083C9.00196 8.2075 6.59646 13.6097 5.98668 18.7522C5.90411 19.449 5.77561 20.2876 5.70111 20.6155C5.56428 21.2183 2.9235 28.3277 0.983805 33.3152C0.40367 34.8068 -0.037916 36.0647 0.002577 36.1103C0.04307 36.1559 1.2572 36.1932 2.70079 36.1932H5.32529V42.6031V49.013H18.029C25.016 49.013 30.7337 48.9628 30.7349 48.9012C30.7363 48.8397 30.4535 47.6325 30.1064 46.2185L29.4756 43.6475L19.7824 43.647L10.0892 43.6466V37.5348V31.423H8.56738C7.7304 31.423 7.04559 31.3627 7.04559 31.2891C7.04559 31.1606 9.6861 23.8221 10.5107 21.659C10.7937 20.9163 10.9627 20.1212 11.097 18.9012C11.4446 15.741 11.9732 14.0471 13.3282 11.751C14.9223 9.04989 17.7162 6.81222 20.597 5.92899C21.8789 5.5359 23.8558 5.30559 24.975 5.41888C31.061 6.03468 35.8843 10.519 37.3643 16.9372C38.3459 21.194 37.2763 26.5963 34.7555 30.1122L34.0388 31.1119L36.3288 40.0253L38.6186 48.9385L40.9614 48.9792C42.2498 49.0016 43.3034 48.968 43.3026 48.9047C43.3018 48.8413 42.4152 45.1 41.3325 40.5907C39.4487 32.7457 39.3729 32.3758 39.5758 32.0192C40.8098 29.8506 41.5148 27.9461 42.0864 25.2366C42.3932 23.7822 42.4328 23.2853 42.4366 20.8391C42.4413 17.7998 42.2807 16.543 41.5617 13.9873C40.7026 10.9346 39.4538 8.68169 37.1961 6.1119C35.8954 4.6312 34.6059 3.47592 33.2974 2.61908C31.7414 1.60005 28.6638 0.436268 26.6966 0.122926C25.8161 -0.0171978 23.6031 -0.0429866 22.4621 0.073883ZM21.8666 7.19816C19.2487 7.85794 17.1965 9.20224 15.2757 11.5152C13.7383 13.3666 12.7832 15.7973 12.3884 18.8631C12.2139 20.219 11.9607 21.1335 10.7483 24.7894C9.95963 27.1671 9.27456 29.2941 9.22573 29.5164L9.1368 29.9202L10.3078 29.9636L11.4786 30.0068L11.5132 36.0814L11.5477 42.1559H20.2801C27.091 42.1559 29.0124 42.1156 29.0124 41.973C29.0124 41.8724 28.7361 40.6985 28.3985 39.3643L27.7845 36.9385H22.0467H16.3087V31.4975V26.0565H15.8455C15.5634 26.0565 15.3823 25.9836 15.382 25.8702C15.3819 25.7678 15.7624 24.4764 16.228 23.0006C16.6935 21.5248 17.1422 19.8167 17.2254 19.2046C17.5464 16.8372 19.14 14.3433 20.9679 13.3469C24.1241 11.6268 27.7709 12.3795 29.7482 15.1589C31.8424 18.1027 32.0997 21.9404 30.404 24.9385C29.9182 25.7973 28.5954 27.2242 27.8441 27.6998L27.3293 28.0258L27.5036 28.7181C30.278 39.7396 31.9849 46.5816 32.4456 48.5286L32.5955 49.1621H34.9878C37.202 49.1621 37.3754 49.1427 37.3168 48.9012C37.282 48.7578 36.193 44.562 34.897 39.5775L32.5406 30.5144L33.2 29.7389C35.2684 27.3063 36.2992 24.2504 36.3043 20.5343C36.3129 14.3223 32.8301 9.18852 27.4014 7.41103C26.1251 6.99304 23.1365 6.87811 21.8666 7.19816ZM59.6468 10.5574C57.2521 10.8621 55.1188 11.6149 53.5755 12.6998C51.9387 13.8505 49.8506 16.5006 48.6739 18.9207C47.2401 21.8698 46.4644 26.5373 46.7575 30.4515C46.9924 33.5867 48.3349 36.4771 50.1115 37.6728C52.4284 39.2319 57.6399 39.6469 61.3969 38.5715C65.0272 37.5324 68.4211 34.3109 69.3634 31.0096C69.855 29.2871 70.1175 29.4168 66.0478 29.3709L62.5275 29.3312L62.3693 29.9672C62.2823 30.3169 62.0121 30.9118 61.769 31.2891C61.2756 32.0546 59.9509 33.1232 59.207 33.3561C58.538 33.5654 56.7491 33.5488 56.0924 33.3272C55.2869 33.0553 54.6404 32.2396 54.2728 31.0312C53.481 28.4291 54.2392 22.8384 55.8427 19.454C56.4685 18.1331 57.9508 16.3964 58.8528 15.9273C60.1301 15.2629 62.2009 15.3859 63.2178 16.1865C64.0135 16.8129 64.3446 17.4582 64.3446 18.382V19.1603L64.8408 19.2527C65.1138 19.3036 66.7532 19.3459 68.484 19.3468C71.3575 19.3483 71.6393 19.3258 71.7261 19.0876C71.7785 18.944 71.8179 18.0888 71.8137 17.1869C71.8057 15.4352 71.676 14.8934 71.0017 13.7934C70.2805 12.6168 68.0842 11.3841 65.734 10.8366C64.3259 10.5085 61.169 10.3638 59.6468 10.5574ZM76.1219 11.3433C76.1219 11.3678 75.0203 17.4177 73.6738 24.7875C72.3274 32.1571 71.2257 38.275 71.2257 38.3825C71.2257 38.5384 71.855 38.5783 74.3248 38.5783H77.4238L77.5425 37.9447C77.6077 37.5962 78.4303 32.9703 79.3704 27.6648C80.3105 22.3595 81.1183 18.0998 81.1654 18.199C81.2127 18.2982 82.2165 22.8739 83.3964 28.3671C84.5761 33.8602 85.5843 38.4058 85.637 38.4684C85.6895 38.531 87.8367 38.5645 90.4086 38.5429L95.0847 38.5037L97.689 24.9385L100.293 11.3733L97.1864 11.3333C95.4778 11.3113 94.056 11.3199 94.0271 11.3524C93.9983 11.3849 93.1015 15.7502 92.0344 21.0532C90.9179 26.6018 90.0575 30.5803 90.0077 30.4253C89.9601 30.2771 89.0085 25.9131 87.893 20.7273L85.8646 11.2987H80.9933C78.3141 11.2987 76.1219 11.3189 76.1219 11.3433ZM104.261 11.5481C104.222 11.6979 103.144 17.5223 101.867 24.4913C100.589 31.4602 99.4842 37.4434 99.4117 37.7871C99.3391 38.1309 99.2797 38.4495 99.2797 38.4952C99.2797 38.5408 100.818 38.5783 102.698 38.5783H106.117L106.815 34.9633C107.199 32.9751 107.613 30.8453 107.735 30.2304L107.957 29.1124L111.79 29.0243C115.091 28.9484 115.761 28.8936 116.619 28.6288C121.557 27.1055 123.9 24.103 124.227 18.8799C124.451 15.3018 123.53 13.4663 120.947 12.3382C118.848 11.4219 118.766 11.4135 111.235 11.3415C104.636 11.2786 104.329 11.2877 104.261 11.5481ZM22.5622 15.631C21.6261 16.0478 20.5127 17.2217 20.0529 18.2766C19.7229 19.0334 19.6831 19.2854 19.6831 20.6155C19.6831 21.8693 19.7314 22.2167 19.9871 22.8011C20.4745 23.9156 21.2572 24.8009 22.2347 25.3429C23.036 25.7873 23.2294 25.8329 24.3147 25.8329C25.3999 25.8329 25.5934 25.7873 26.3946 25.3429C27.3722 24.8009 28.1549 23.9156 28.6423 22.8011C28.8979 22.2167 28.9462 21.8693 28.9462 20.6155C28.9462 19.2627 28.9104 19.0451 28.5586 18.2631C28.0981 17.2394 27.1277 16.1698 26.2622 15.7322C25.3389 15.2651 23.4966 15.2148 22.5622 15.631ZM109.694 20.2056C109.351 21.9889 109.07 23.4982 109.071 23.5596C109.071 23.621 110.074 23.6714 111.298 23.6714C114.1 23.6714 114.502 23.541 115.633 22.267C117.099 20.6154 117.284 18.793 116.1 17.6702C115.472 17.0757 114.909 16.9651 112.508 16.9642L110.319 16.9633L109.694 20.2056ZM131.779 18.9974C130.64 19.2723 129.35 19.9226 128.493 20.6532C127.616 21.4014 126.402 23.2412 125.675 24.9254C124.136 28.4893 123.844 33.4282 125.013 36.1197C125.807 37.9483 126.914 38.7799 128.937 39.0675C131.358 39.4118 133.202 38.7719 134.857 37.0132C135.377 36.4603 135.8 36.0329 135.796 36.0633C135.793 36.0937 135.388 38.2987 134.897 40.9633L134.005 45.8081L137.107 45.848C138.813 45.8701 140.238 45.8555 140.273 45.8155C140.309 45.7756 141.451 39.8881 142.813 32.7321L145.288 19.7211L142.18 19.6811C140.47 19.6591 139.047 19.6694 139.016 19.7038C138.985 19.7384 138.873 20.1589 138.765 20.6383C138.658 21.1177 138.542 21.602 138.508 21.7146C138.467 21.8476 138.289 21.6894 138.001 21.2632C137.414 20.3971 136.512 19.5778 135.645 19.1235C135.063 18.8183 134.749 18.7569 133.818 18.7657C133.199 18.7717 132.282 18.8759 131.779 18.9974ZM133.805 23.5128C132.262 24.4576 130.902 28.1429 130.858 31.4975C130.828 33.7815 131.46 34.7065 133.044 34.6992C134.371 34.6931 135.514 33.8298 136.197 32.3174C136.918 30.7198 137.281 29.1118 137.343 27.2491C137.393 25.7148 137.367 25.4501 137.097 24.7288C136.684 23.6256 136.28 23.3187 135.17 23.2645C134.485 23.2309 134.172 23.2879 133.805 23.5128Z" fill="#0067A6"/>
<path id="Vector_2" fill-rule="evenodd" clip-rule="evenodd" d="M8.14269 52.6506C7.42718 53.0497 6.8534 53.8299 6.57087 54.7881C6.28993 55.7411 6.29377 57.1374 6.57881 57.6274C7.48408 59.1839 9.80462 58.7405 10.7999 56.8211L11.0389 56.3601H10.4931C10.041 56.3601 9.87264 56.4493 9.51072 56.8818C9.15383 57.3081 8.97769 57.4035 8.54762 57.4035C7.82364 57.4035 7.55633 57.0428 7.56295 56.0752C7.57301 54.6057 8.37903 53.3808 9.3367 53.3793C9.72999 53.3787 10.2299 53.8372 10.2299 54.1986C10.2299 54.3642 10.3844 54.4222 10.8254 54.4222C11.3375 54.4222 11.4209 54.3794 11.4209 54.1166C11.4209 53.6741 11.0829 53.0054 10.6779 52.6465C10.1888 52.2131 8.92383 52.2152 8.14269 52.6506ZM29.7394 52.5011C29.6392 52.6837 28.6238 57.9071 28.6238 58.2398C28.6238 58.3805 28.7861 58.447 29.13 58.447H29.636L30.1426 55.7265C30.4211 54.2302 30.6767 52.8552 30.7105 52.6706C30.7651 52.3726 30.7194 52.3352 30.3012 52.3352C30.0423 52.3352 29.7894 52.4099 29.7394 52.5011ZM31.73 52.5215C31.6462 52.7754 30.6088 58.1267 30.6088 58.3048C30.6088 58.3831 30.8422 58.447 31.1275 58.447H31.6462L31.8434 57.4408C31.9519 56.8875 32.0804 56.2174 32.1289 55.9519C32.2867 55.0879 33.3921 54.4787 33.5816 55.1511C33.6252 55.3061 33.5399 56.0576 33.3921 56.8211C33.2441 57.5848 33.1231 58.2629 33.1231 58.3282C33.1231 58.3935 33.3612 58.447 33.6524 58.447C33.9435 58.447 34.1817 58.4188 34.1817 58.3844C34.1817 58.35 34.3303 57.5475 34.512 56.6011C34.8752 54.7085 34.8308 54.3013 34.2271 53.9914C33.788 53.7661 33.3945 53.7849 32.9379 54.0531C32.727 54.1769 32.5314 54.2525 32.5033 54.2209C32.4752 54.1893 32.5123 53.8694 32.5859 53.5102C32.8084 52.423 32.7839 52.3352 32.2588 52.3352C32.0017 52.3352 31.7638 52.4191 31.73 52.5215ZM42.846 52.4904C42.7493 52.6667 41.7276 57.9287 41.7256 58.2607C41.7249 58.3777 41.914 58.447 42.234 58.447H42.7433L43.1222 56.3668C43.3305 55.2227 43.525 54.3138 43.5545 54.3469C43.5839 54.3801 43.8918 55.2994 44.2385 56.3899L44.8691 58.3725H45.4472H46.0252L46.5796 55.474C46.8845 53.8797 47.1043 52.5214 47.068 52.4554C47.0317 52.3893 46.802 52.3352 46.5573 52.3352C46.0693 52.3352 46.0759 52.316 45.5585 55.242C45.4716 55.734 45.3684 56.1967 45.3291 56.2702C45.2899 56.3437 44.9782 55.5051 44.6366 54.4068L44.0153 52.4097L43.4775 52.3646C43.1735 52.3391 42.8989 52.3936 42.846 52.4904ZM56.2312 52.801C56.1047 53.5133 56.1133 53.5278 56.6623 53.5278C57.0834 53.5278 57.1907 53.4672 57.2561 53.1923C57.4306 52.4582 57.3691 52.3352 56.8267 52.3352C56.3582 52.3352 56.3068 52.3755 56.2312 52.801ZM71.4342 52.6706C71.1413 54.0814 70.4402 57.9777 70.4402 58.1951C70.4402 58.4157 70.5304 58.4565 70.9348 58.4187L71.4295 58.3725L71.9822 55.4683C72.2863 53.8709 72.5068 52.5126 72.4722 52.4497C72.4377 52.3866 72.2057 52.3352 71.9567 52.3352C71.5959 52.3352 71.4897 52.4035 71.4342 52.6706ZM78.0528 52.5215C78.0229 52.6241 77.9315 53.0923 77.8496 53.5622L77.7006 54.4163L77.3209 54.1C76.6393 53.5324 75.5437 53.9915 74.9358 55.0994C74.5454 55.811 74.4382 57.1916 74.725 57.816C75.07 58.5676 75.9979 58.7344 76.7589 58.1818C77.024 57.9892 77.0567 57.9919 77.0567 58.2063C77.0567 58.3817 77.1815 58.447 77.5173 58.447C78.0507 58.447 77.9367 58.7852 78.6415 55.117C78.9118 53.7099 79.109 52.5086 79.0795 52.447C78.9895 52.259 78.1105 52.3228 78.0528 52.5215ZM86.2578 52.5008C86.1904 52.7076 85.1288 58.2261 85.1288 58.3707C85.1288 58.5223 87.7467 58.443 88.1858 58.278C90.0424 57.5802 91.0287 53.6534 89.5998 52.6481C89.1687 52.3449 86.3495 52.2206 86.2578 52.5008ZM116.42 52.5215C116.345 52.7462 115.3 58.1663 115.3 58.3312C115.3 58.3948 115.538 58.447 115.829 58.447C116.121 58.447 116.359 58.4212 116.359 58.3899C116.359 58.3585 116.597 57.076 116.888 55.5402C117.179 54.0043 117.417 52.6548 117.417 52.5414C117.417 52.2766 116.508 52.2584 116.42 52.5215ZM122.533 52.447C122.5 52.5086 122.452 52.76 122.426 53.006C122.383 53.4264 122.41 53.4561 122.877 53.4996C123.393 53.5476 123.41 53.5286 123.562 52.7451C123.639 52.3519 123.621 52.3352 123.118 52.3352C122.83 52.3352 122.567 52.3854 122.533 52.447ZM139.707 53.1923C139.567 53.9085 139.53 53.975 139.271 53.975C139.121 53.975 138.986 54.1106 138.938 54.3104C138.817 54.8211 138.833 54.8694 139.128 54.8694C139.326 54.8694 139.383 54.9417 139.335 55.1302C139.299 55.2736 139.164 55.9728 139.037 56.6835C138.754 58.2595 138.833 58.447 139.782 58.447C140.323 58.447 140.423 58.3999 140.492 58.1116C140.614 57.5996 140.597 57.5526 140.294 57.5526C140.039 57.5526 140.02 57.4952 140.097 56.9529C140.349 55.1806 140.451 54.8694 140.785 54.8694C140.96 54.8694 141.105 54.8191 141.106 54.7576C141.107 54.696 141.144 54.4949 141.188 54.3104C141.253 54.0355 141.214 53.975 140.971 53.975C140.698 53.975 140.681 53.9256 140.758 53.3787L140.843 52.7824H140.315C139.846 52.7824 139.777 52.8286 139.707 53.1923ZM86.8633 55.1302C86.7006 56.0117 86.5351 56.8836 86.4954 57.0681C86.4295 57.3751 86.47 57.4035 86.9714 57.4035C87.9128 57.4035 88.402 57.0707 88.7703 56.1795C89.1518 55.2563 89.2084 54.1199 88.8908 53.7619C88.7499 53.6033 88.4371 53.5278 87.921 53.5278H87.1591L86.8633 55.1302ZM12.8642 54.1723C11.5584 54.9482 11.007 57.0716 11.8733 57.9885C12.4854 58.6362 13.5457 58.6617 14.4927 58.0515C14.9889 57.7319 15.6555 56.4024 15.6555 55.7323C15.6555 54.1365 14.2483 53.3501 12.8642 54.1723ZM18.0705 54.1224C17.7074 54.3718 17.6404 54.3819 17.6404 54.1874C17.6404 54.0122 17.5213 53.9681 17.1444 54.0033L16.6486 54.0495L16.2925 55.9128C15.8033 58.4721 15.8035 58.4759 16.4145 58.4187L16.9089 58.3725L17.1925 56.8904C17.4955 55.3063 17.7537 54.8694 18.387 54.8694C18.8352 54.8694 18.904 55.2063 18.7041 56.4233C18.346 58.6035 18.3326 58.4737 18.9095 58.4197L19.4155 58.3725L19.715 56.8073C20.1057 54.7647 20.1019 54.5143 19.6737 54.1349C19.2347 53.7458 18.6255 53.7412 18.0705 54.1224ZM21.7976 54.0286C21.228 54.3206 20.8163 54.9619 20.8163 55.5569C20.8163 56.1525 21.0756 56.3772 22.1727 56.7317C22.5912 56.8669 22.9336 57.0264 22.9336 57.0862C22.9336 57.3518 22.5751 57.5526 22.1007 57.5526C21.6969 57.5526 21.5706 57.4882 21.5164 57.2545C21.4604 57.0136 21.3359 56.9563 20.867 56.9563C20.2644 56.9563 20.2179 57.0233 20.3719 57.6704C20.562 58.4701 22.3561 58.7812 23.2377 58.1675C23.8697 57.7275 24.188 56.7886 23.8864 56.2541C23.7614 56.0324 22.8988 55.6147 22.5661 55.6147C22.4322 55.6147 22.207 55.5141 22.0657 55.3911C21.8115 55.1697 21.8115 55.1653 22.0657 54.9439C22.4181 54.6373 22.7608 54.6637 23.0305 55.0184C23.1849 55.2216 23.4209 55.3166 23.7714 55.3166C24.2657 55.3166 24.2822 55.3006 24.1967 54.9066C24.1479 54.6812 24.0026 54.3757 23.8737 54.2276C23.5586 53.8655 22.3428 53.7491 21.7976 54.0286ZM26.132 53.9326C25.6756 54.0306 24.8238 55.0654 24.6633 55.7168C24.4767 56.4732 24.491 57.57 24.6912 57.8637C24.9649 58.2651 25.4603 58.4814 26.1064 58.4814C26.851 58.4814 27.4446 58.162 27.8284 57.5548L28.1125 57.1054H27.5243C27.1628 57.1054 26.8724 57.1916 26.7712 57.329C26.5738 57.597 25.9608 57.6236 25.739 57.3737C25.6517 57.2753 25.5802 57.0405 25.5802 56.852C25.5802 56.5173 25.6116 56.5091 26.8894 56.5091C28.3295 56.5091 28.3592 56.4894 28.3592 55.535C28.3592 54.2354 27.5234 53.634 26.132 53.9326ZM36.7621 54.1076C36.1215 54.4406 35.7183 54.9126 35.4452 55.6493C35.2104 56.2821 35.1768 57.2895 35.3766 57.7099C35.7096 58.4108 37.1799 58.7138 37.978 58.2462C38.7994 57.7649 39.3426 56.7028 39.3426 55.5782C39.3426 54.8059 39.0644 54.3138 38.4693 54.0337C37.8786 53.7557 37.3992 53.7764 36.7621 54.1076ZM48.4734 54.0358C48.0619 54.202 47.4147 54.9985 47.4147 55.3386C47.4147 55.4085 47.6386 55.4656 47.9121 55.4656C48.2664 55.4656 48.4573 55.3798 48.575 55.1675C48.8125 54.7389 49.6643 54.7427 49.6643 55.1721C49.6643 55.5133 49.6314 55.5311 48.5616 55.7681C47.5698 55.9878 47.0283 56.5061 46.9302 57.3299C46.8733 57.8078 46.9136 57.9824 47.1317 58.2046C47.4684 58.5479 48.2932 58.5596 48.8605 58.2291C49.2313 58.0131 49.2673 58.0131 49.2673 58.2282C49.2673 58.4136 49.3878 58.4543 49.8297 58.4182C50.2857 58.3811 50.3846 58.3219 50.3519 58.105C50.3298 57.9581 50.4373 57.1388 50.5908 56.2846C50.9054 54.5334 50.8557 54.2573 50.1767 53.9906C49.6449 53.7818 49.0638 53.7971 48.4734 54.0358ZM52.7137 54.0206C51.7067 54.4123 50.882 56.4736 51.2911 57.5762C51.5615 58.3049 51.8077 58.4683 52.6358 58.4683C53.4508 58.4683 54.1122 58.1143 54.4807 57.4807C54.7934 56.9429 54.7442 56.8073 54.2357 56.8073C53.9246 56.8073 53.673 56.9262 53.4478 57.1799C52.6138 58.1194 51.9716 57.116 52.4982 55.6964C52.8163 54.8388 53.6694 54.562 53.8989 55.242C53.9997 55.5406 54.1159 55.6147 54.4833 55.6147C55.0523 55.6147 55.1494 55.45 54.9607 54.8056C54.7117 53.9554 53.7472 53.6185 52.7137 54.0206ZM58.8558 54.1061C57.249 54.9283 56.7808 57.6668 58.1386 58.3003C58.7479 58.5846 59.6325 58.5224 60.2136 58.1545C60.9853 57.6659 61.355 56.9483 61.4191 55.8148C61.4801 54.7351 61.3135 54.3916 60.5527 54.0289C59.9803 53.756 59.4971 53.7779 58.8558 54.1061ZM64.2206 53.9316C64.1115 53.9769 63.9179 54.1161 63.7906 54.241C63.582 54.4457 63.559 54.4438 63.559 54.2217C63.559 54.0349 63.4354 53.975 63.0504 53.975H62.542L62.1861 55.8777C61.9903 56.9243 61.7954 57.9305 61.7528 58.1137C61.6822 58.4182 61.7219 58.447 62.2113 58.447C62.8129 58.447 62.7598 58.5482 63.1055 56.742C63.2578 55.9464 63.4322 55.4458 63.638 55.214C63.9961 54.8106 64.5879 54.7574 64.7105 55.1177C64.7822 55.3283 64.5434 56.9478 64.2689 58.1116C64.1963 58.4191 64.2345 58.447 64.7295 58.447C65.3425 58.447 65.3165 58.5078 65.7453 56.0777C65.9117 55.1352 65.9307 54.7392 65.8228 54.4722C65.6108 53.948 64.823 53.6822 64.2206 53.9316ZM67.7324 54.0413C67.1731 54.2743 66.7427 54.7778 66.7378 55.2048C66.7333 55.604 67.6041 55.5664 67.7975 55.1592C68.0004 54.7321 68.9184 54.7945 68.9184 55.2353C68.9184 55.5303 68.8423 55.5621 67.5053 55.8262C67.2376 55.8792 66.8356 56.1148 66.6121 56.3501C66.2884 56.6905 66.2056 56.9001 66.2056 57.3782C66.2056 57.7252 66.2933 58.0773 66.4135 58.2128C66.6817 58.5148 67.7708 58.5229 68.1477 58.2255C68.3959 58.0296 68.4371 58.0296 68.5038 58.2255C68.5537 58.372 68.7645 58.447 69.1269 58.447C69.5616 58.447 69.6586 58.4005 69.5976 58.2212C69.5553 58.097 69.6382 57.3517 69.782 56.565C70.1076 54.7816 70.1075 54.534 69.7798 54.1999C69.4318 53.8451 68.3959 53.7649 67.7324 54.0413ZM80.4286 54.0337C79.7841 54.35 79.216 55.2001 79.0328 56.1229C78.7292 57.6508 79.2197 58.4586 80.4577 58.4695C80.827 58.4728 81.2699 58.3936 81.4418 58.2939C81.8196 58.0746 82.4822 57.3949 82.4822 57.2266C82.4822 57.0192 81.5035 57.1032 81.2329 57.3338C80.8637 57.6483 80.27 57.6116 80.1049 57.2643C79.7755 56.5708 79.8765 56.5091 81.3401 56.5091H82.7122L82.7866 55.9933C83.0191 54.3789 81.7962 53.3624 80.4286 54.0337ZM91.7349 54.1722C90.9782 54.623 90.422 55.7513 90.422 56.8357C90.422 57.4547 90.4853 57.6467 90.8088 58.0113C91.523 58.8158 93.0252 58.6007 93.7317 57.5928L94.0211 57.1799L93.477 57.134C93.1159 57.1035 92.8634 57.1662 92.7265 57.3203C92.482 57.5958 91.8636 57.6262 91.6395 57.3737C91.5521 57.2753 91.4807 57.0429 91.4807 56.8572C91.4807 56.531 91.5271 56.5181 92.837 56.4771L94.1934 56.4346L94.2352 55.7757C94.2957 54.8212 94.1744 54.4502 93.6936 54.12C93.1272 53.7309 92.4451 53.7491 91.7349 54.1722ZM95.9025 54.0286C95.3329 54.3206 94.9212 54.9619 94.9212 55.5569C94.9212 56.1511 95.1756 56.3694 96.2776 56.7215C96.6962 56.8553 97.0385 57.0164 97.0385 57.0798C97.0385 57.3515 96.6844 57.5526 96.2056 57.5526C95.8018 57.5526 95.6755 57.4882 95.6213 57.2545C95.5673 57.0219 95.4408 56.9563 95.0459 56.9563C94.4382 56.9563 94.3146 57.1316 94.5228 57.6979C94.7205 58.2355 95.2572 58.4882 96.1814 58.4788C97.3652 58.4668 98.0972 57.7658 98.0972 56.6439C98.0972 56.262 98.0149 56.1543 97.5348 55.9088C97.2255 55.7507 96.8498 55.6198 96.6999 55.618C96.5501 55.6162 96.3119 55.5141 96.1706 55.3911C95.9164 55.1697 95.9164 55.1653 96.1706 54.9439C96.523 54.6373 96.8657 54.6637 97.1354 55.0184C97.4531 55.4364 98.3618 55.4425 98.3618 55.0268C98.3618 54.8673 98.2278 54.5621 98.0641 54.3484C97.694 53.8654 96.5506 53.6963 95.9025 54.0286ZM100.016 54.1067C99.1557 54.5526 98.6265 55.6223 98.6265 56.9155C98.6265 57.4463 98.7023 57.6608 99.0133 58.0113C99.7445 58.835 101.275 58.5958 101.933 57.5548L102.217 57.1054H101.67C101.359 57.1054 101.036 57.2023 100.923 57.329C100.685 57.5972 100.065 57.623 99.8439 57.3737C99.7566 57.2753 99.6851 57.0429 99.6851 56.8572C99.6851 56.531 99.7316 56.5181 101.042 56.4771L102.398 56.4346L102.438 55.6564C102.487 54.7051 102.315 54.3122 101.73 54.0368C101.133 53.756 100.655 53.7755 100.016 54.1067ZM104.94 54.1079C104.537 54.3393 104.449 54.3511 104.449 54.1735C104.449 54.0145 104.317 53.9693 103.953 54.0033L103.457 54.0495L103.101 55.9128C102.612 58.4716 102.612 58.4759 103.223 58.4187L103.716 58.3725L104.009 56.8825C104.321 55.2945 104.572 54.8694 105.196 54.8694C105.644 54.8694 105.713 55.2063 105.513 56.4233C105.154 58.6056 105.14 58.4737 105.724 58.4197L106.235 58.3725L106.523 56.9563C106.922 54.9873 106.915 54.5186 106.482 54.1349C106.049 53.7509 105.576 53.7427 104.94 54.1079ZM112.172 54.2682C111.333 54.81 110.933 55.6247 110.933 56.7913C110.933 57.4593 110.99 57.6401 111.32 58.0113C111.698 58.4369 112.047 58.5323 112.917 58.4481C113.976 58.3458 114.915 57.1807 114.998 55.8666C115.058 54.9163 114.852 54.4329 114.24 54.0871C113.57 53.7087 112.954 53.7627 112.172 54.2682ZM125.655 54.1224C125.292 54.3718 125.225 54.3819 125.225 54.1874C125.225 54.013 125.107 53.9682 124.74 54.0033L124.255 54.0495L123.888 55.9128C123.392 58.4244 123.393 58.447 123.971 58.447C124.512 58.447 124.568 58.3348 124.827 56.7327C125.071 55.2183 125.261 54.8762 125.858 54.8716C126.309 54.8682 126.337 55.1706 126.032 56.7341C125.879 57.5168 125.754 58.2225 125.754 58.3021C125.754 58.3819 125.988 58.447 126.274 58.447H126.794L126.944 57.5899C127.254 55.8189 127.471 55.1629 127.802 54.9929C128.232 54.7722 128.533 54.9317 128.533 55.3807C128.533 55.585 128.414 56.3276 128.268 57.0309C128.123 57.7342 128.004 58.3443 128.004 58.3868C128.004 58.4294 128.253 58.4436 128.557 58.4182L129.11 58.3725L129.412 56.8073C129.578 55.9464 129.716 55.0985 129.719 54.9232C129.734 54.0307 128.567 53.5209 127.859 54.1105L127.467 54.4372L127.122 54.1316C126.688 53.7467 126.206 53.7438 125.655 54.1224ZM131.5 54.0291C130.134 54.727 129.535 57.4626 130.58 58.2337C130.907 58.4756 131.864 58.5503 132.38 58.3744C132.713 58.261 133.562 57.4357 133.562 57.2252C133.562 57.0189 132.582 57.1041 132.312 57.3338C131.806 57.765 131.256 57.5747 131.11 56.9176L131.019 56.5091H132.416H133.814L133.899 55.999C134.102 54.7837 133.579 53.9678 132.54 53.8766C132.176 53.8445 131.735 53.9092 131.5 54.0291ZM136.605 53.9316C136.496 53.9769 136.303 54.1161 136.175 54.241C135.967 54.4457 135.944 54.4438 135.944 54.2217C135.944 54.0332 135.819 53.975 135.414 53.975C135.123 53.975 134.885 54.0261 134.885 54.0887C134.885 54.1513 134.706 55.1399 134.488 56.2855C134.27 57.4311 134.091 58.3862 134.091 58.4078C134.091 58.4294 134.325 58.447 134.611 58.447C135.197 58.447 135.146 58.5499 135.491 56.688C135.668 55.7319 135.795 55.3848 136.048 55.1601C136.443 54.8105 136.98 54.7807 137.09 55.1024C137.156 55.2964 136.989 56.425 136.645 58.1116C136.583 58.4175 136.624 58.447 137.12 58.447C137.419 58.447 137.664 58.4236 137.664 58.395C137.664 58.3665 137.815 57.5782 137.999 56.6434C138.184 55.7088 138.302 54.7942 138.262 54.6112C138.139 54.0482 137.227 53.674 136.605 53.9316ZM142.94 53.97C141.935 54.3123 141.237 55.4613 141.237 56.7715C141.237 57.7376 141.605 58.2787 142.365 58.4314C143.975 58.7541 145.341 57.4241 145.336 55.5402C145.333 54.2776 144.205 53.5389 142.94 53.97ZM56.0162 54.0142C56.0162 54.0358 55.8375 54.9909 55.6192 56.1364C55.4008 57.282 55.2222 58.2707 55.2222 58.3333C55.2222 58.3959 55.4604 58.447 55.7515 58.447C56.0426 58.447 56.2808 58.4159 56.2808 58.3777C56.2808 58.3395 56.4595 57.3645 56.6778 56.211C56.8962 55.0575 57.0748 54.0824 57.0748 54.0443C57.0748 54.0061 56.8366 53.975 56.5455 53.975C56.2544 53.975 56.0162 53.9925 56.0162 54.0142ZM107.362 54.2358C107.362 54.3792 107.481 55.3613 107.626 56.418C107.771 57.4748 107.89 58.3676 107.89 58.4018C107.89 58.4361 108.143 58.4436 108.452 58.4182L109.014 58.3725L110.095 56.2855C110.69 55.1377 111.181 54.1483 111.187 54.0868C111.193 54.0252 110.96 53.975 110.67 53.975H110.142L109.434 55.5645L108.726 57.1538L108.64 56.1235C108.592 55.5567 108.553 54.8415 108.552 54.534L108.551 53.975H107.956C107.476 53.975 107.361 54.0258 107.362 54.2358ZM118.027 56.1666C118.193 57.3798 118.332 58.393 118.336 58.4182C118.34 58.4436 118.593 58.4436 118.898 58.4182L119.452 58.3725L120.552 56.235C121.157 55.0593 121.652 54.0699 121.652 54.0362C121.652 54.0025 121.397 53.975 121.084 53.975H120.517L119.867 55.4613C119.51 56.2788 119.194 56.9208 119.165 56.8882C119.136 56.8556 119.074 56.2035 119.026 55.4391L118.939 54.0495L118.332 54.0051L117.725 53.9606L118.027 56.1666ZM121.867 56.0246C121.661 57.1521 121.499 58.1414 121.507 58.2234C121.514 58.3054 121.74 58.3725 122.01 58.3725C122.464 58.3725 122.507 58.3334 122.597 57.8507C122.65 57.5638 122.839 56.5744 123.016 55.652L123.338 53.975H122.789H122.24L121.867 56.0246ZM13.2404 55.0304C12.6727 55.4029 12.4062 56.8524 12.8198 57.3184C13.1994 57.7461 13.8355 57.5459 14.1984 56.8845C14.4936 56.3463 14.5532 55.327 14.3057 55.0483C14.1134 54.8317 13.5576 54.8223 13.2404 55.0304ZM26.084 55.1302C25.6341 55.7205 25.6624 55.7638 26.4987 55.7638C27.1826 55.7638 27.3005 55.7243 27.3005 55.4955C27.3005 54.8794 26.4663 54.6288 26.084 55.1302ZM36.7904 55.306C36.1562 56.1549 36.2132 57.2987 36.8992 57.4927C37.5378 57.6733 38.2839 56.7099 38.2839 55.7047C38.2839 54.8211 37.3407 54.5691 36.7904 55.306ZM58.994 55.2048C58.5962 55.5913 58.3621 56.5322 58.5357 57.0465C58.6772 57.4655 59.1924 57.6426 59.5838 57.4067C59.9844 57.1653 60.382 56.3711 60.3825 55.8116C60.3835 54.8986 59.6424 54.5747 58.994 55.2048ZM76.1502 55.2182C75.5211 55.9725 75.4768 57.3253 76.0757 57.4946C76.9478 57.7412 77.8856 55.8245 77.2458 55.1036C76.9468 54.767 76.4865 54.8151 76.1502 55.2182ZM80.4973 55.1675C80.0804 55.6371 80.1787 55.7638 80.9604 55.7638C81.6398 55.7638 81.6882 55.7401 81.6882 55.4071C81.6882 54.8157 80.9427 54.6657 80.4973 55.1675ZM91.9643 55.142C91.5798 55.6207 91.6967 55.7638 92.4731 55.7638C93.0858 55.7638 93.2009 55.7213 93.2009 55.4955C93.2009 54.87 92.373 54.6332 91.9643 55.142ZM100.169 55.142C99.7842 55.6207 99.9012 55.7638 100.678 55.7638C101.29 55.7638 101.405 55.7213 101.405 55.4955C101.405 54.87 100.577 54.6332 100.169 55.142ZM112.459 55.2508C111.855 55.9856 111.848 57.3196 112.447 57.4892C112.981 57.6403 113.478 57.2543 113.769 56.4611C114.009 55.8079 114.016 55.7059 113.836 55.3431C113.548 54.7629 112.897 54.7193 112.459 55.2508ZM131.582 55.1957C131.434 55.375 131.312 55.5762 131.312 55.6429C131.312 55.7951 132.731 55.8037 132.811 55.652C132.843 55.5904 132.818 55.3893 132.756 55.2048C132.605 54.7541 131.951 54.7489 131.582 55.1957ZM142.819 55.1735C141.958 56.1441 142.218 57.7264 143.199 57.4837C143.718 57.3552 144.012 56.965 144.164 56.2031C144.263 55.7106 144.245 55.5022 144.083 55.2234C143.822 54.7746 143.196 54.7498 142.819 55.1735ZM48.7021 56.5401C48.1053 56.7186 47.8212 57.1801 48.1089 57.5041C48.4796 57.9217 49.2526 57.4585 49.4591 56.6955C49.5608 56.3195 49.4891 56.3047 48.7021 56.5401ZM68.0921 56.5054C67.5473 56.651 67.2642 56.915 67.2642 57.2774C67.2642 57.6407 67.5249 57.7526 67.9487 57.5712C68.4004 57.3777 68.7199 56.9951 68.7199 56.6476C68.7199 56.3359 68.7232 56.3366 68.0921 56.5054ZM25.9993 62.6121C25.4998 63.3125 25.4913 63.3663 25.8804 63.3663C26.1126 63.3663 26.9833 62.6992 27.5542 62.0841C27.5845 62.0513 27.3414 62.0247 27.0139 62.0247C26.4798 62.0247 26.3753 62.0852 25.9993 62.6121ZM73.8904 62.5804C73.4044 63.2446 73.3881 63.3663 73.7851 63.3663C73.9551 63.3663 74.3733 63.0769 74.7445 62.7022L75.4025 62.0381L74.8498 62.0314C74.3692 62.0255 74.2439 62.0972 73.8904 62.5804ZM8.37731 62.411C7.37941 62.8972 6.6467 64.0257 6.42107 65.4243C6.10123 67.4068 6.89918 68.537 8.52539 68.4045C9.38382 68.3346 10.0149 67.9266 10.5659 67.0852C11.017 66.3964 10.9854 66.1986 10.4243 66.1986C10.0588 66.1986 9.87132 66.3087 9.56286 66.7045C9.09878 67.2999 8.61299 67.4755 8.09677 67.2346C7.33958 66.8813 7.35083 65.1678 8.11821 63.9537C8.66301 63.0918 9.99147 63.0616 10.1798 63.9069C10.2478 64.2121 10.3384 64.2607 10.8397 64.2607C11.3616 64.2607 11.4209 64.2249 11.4209 63.9101C11.4209 63.455 10.9076 62.6021 10.4906 62.3644C10.0467 62.1114 8.94236 62.1357 8.37731 62.411ZM12.4842 62.462C12.4089 62.6206 12.3472 62.8889 12.3472 63.0583C12.3472 63.3166 12.4301 63.3663 12.86 63.3663C13.3284 63.3663 13.3799 63.326 13.4555 62.9004C13.5812 62.1927 13.5714 62.1737 13.0797 62.1737C12.7618 62.1737 12.5792 62.2621 12.4842 62.462ZM28.5275 62.3004C28.0665 62.452 27.6975 62.8819 27.6111 63.3684C27.5514 63.7048 27.4592 63.8135 27.2333 63.8135C27.0352 63.8135 26.9075 63.9266 26.8546 64.1489C26.7335 64.6579 26.7498 64.7079 27.0359 64.7079C27.1814 64.7079 27.3005 64.734 27.3005 64.766C27.3005 64.8903 26.7615 67.7788 26.6907 68.0339C26.6252 68.2702 26.6869 68.298 27.1826 68.2575L27.7493 68.211L28.0731 66.4673C28.3811 64.8085 28.4137 64.7214 28.7419 64.6785C29.0077 64.6438 29.0966 64.5391 29.1288 64.2234C29.1629 63.8892 29.1183 63.8135 28.8876 63.8135C28.493 63.8135 28.595 63.3305 29.013 63.2193C29.3188 63.1379 29.6264 62.4583 29.4482 62.2576C29.3549 62.1526 28.9148 62.173 28.5275 62.3004ZM30.0762 62.5561C29.8459 63.2385 29.9064 63.3663 30.4599 63.3663C30.9284 63.3663 30.9798 63.326 31.0554 62.9004C31.1812 62.1919 31.1716 62.1737 30.6716 62.1737C30.2928 62.1737 30.1811 62.2454 30.0762 62.5561ZM81.2468 62.4264C81.21 62.5744 81.1414 62.8463 81.0943 63.0309C81.0157 63.339 81.052 63.3663 81.5392 63.3663C82.1321 63.3663 82.1716 63.3281 82.2373 62.6955C82.2808 62.277 82.2526 62.2453 81.7987 62.2028C81.4229 62.1675 81.2986 62.2178 81.2468 62.4264ZM48.4715 62.5091C48.4706 62.6117 48.4338 62.8463 48.39 63.0309C48.3136 63.352 48.3447 63.3663 49.1195 63.3663C49.5648 63.3663 49.929 63.3867 49.929 63.4117C49.929 63.4578 49.1928 67.3297 49.0661 67.9501C49.0031 68.2587 49.0441 68.2855 49.5784 68.2855H50.1591L50.4554 66.683C50.6183 65.8016 50.8241 64.7116 50.9127 64.2607L51.0738 63.4408L51.8769 63.3968C52.5765 63.3585 52.6903 63.3105 52.7583 63.0242C52.928 62.3116 52.9615 62.3228 50.6568 62.3228C48.9992 62.3228 48.473 62.3677 48.4715 62.5091ZM70.1755 62.3991C70.1755 62.4411 69.9373 63.7231 69.6462 65.248C69.3551 66.7728 69.1169 68.08 69.1169 68.1529C69.1169 68.2259 69.3551 68.2855 69.6462 68.2855C69.9373 68.2855 70.1755 68.2511 70.1755 68.2092C70.1755 68.1672 70.4137 66.8852 70.7048 65.3604C70.9959 63.8355 71.2341 62.5284 71.2341 62.4555C71.2341 62.3824 70.9959 62.3228 70.7048 62.3228C70.4137 62.3228 70.1755 62.3572 70.1755 62.3991ZM23.1237 63.0309C22.9843 63.747 22.9473 63.8135 22.6886 63.8135C22.5377 63.8135 22.4029 63.9491 22.3553 64.1489C22.2353 64.6535 22.2508 64.7079 22.5151 64.7079C22.7493 64.7079 22.7484 64.7641 22.4901 66.2612C22.169 68.1217 22.2265 68.2855 23.1991 68.2855C23.7406 68.2855 23.8402 68.2384 23.9089 67.9501C24.0328 67.4294 24.0152 67.3911 23.6526 67.3911C23.3907 67.3911 23.3288 67.3313 23.3825 67.1302C23.4207 66.9868 23.5486 66.3831 23.6666 65.7886C23.8606 64.8113 23.9118 64.7079 24.2014 64.7079C24.3775 64.7079 24.5224 64.6576 24.5234 64.5961C24.5244 64.5345 24.5612 64.3334 24.605 64.1489C24.6727 63.8643 24.6329 63.8135 24.3427 63.8135C24.13 63.8135 24.0198 63.743 24.0516 63.6271C24.0796 63.5247 24.1384 63.2563 24.1823 63.0309C24.2588 62.637 24.2412 62.6209 23.7326 62.6209C23.2627 62.6209 23.1943 62.667 23.1237 63.0309ZM15.0843 63.8755C14.8066 63.9898 14.4579 64.207 14.3093 64.3583C13.7176 64.9612 13.2759 66.4895 13.4577 67.3054C13.6505 68.1709 14.745 68.6487 15.7118 68.2891C16.1767 68.1163 16.9788 67.3518 16.9788 67.0815C16.9788 66.8518 15.9664 66.925 15.7878 67.1675C15.544 67.4984 14.7694 67.4561 14.6015 67.1028C14.2714 66.408 14.3717 66.3476 15.854 66.3476C17.2006 66.3476 17.2441 66.3374 17.2641 66.0122C17.2905 65.579 17.2553 65.0144 17.1766 64.6144C17.0396 63.9186 15.9312 63.5271 15.0843 63.8755ZM20.1075 63.8214C19.8994 63.8895 19.6087 64.0666 19.4613 64.2148C19.1998 64.4776 19.1954 64.4761 19.2858 64.1489C19.3716 63.839 19.3377 63.8135 18.8403 63.8135C18.5442 63.8135 18.3021 63.8446 18.3021 63.8828C18.3021 63.921 18.1234 64.896 17.9051 66.0495C17.6867 67.203 17.5081 68.178 17.5081 68.2162C17.5081 68.2544 17.7415 68.2855 18.0268 68.2855H18.5456L18.7427 67.2793C18.8512 66.726 18.9784 66.062 19.0255 65.8041C19.1678 65.0244 19.8887 64.5305 20.341 64.903C20.5705 65.092 20.5689 65.1594 20.3011 66.6388C20.1478 67.4853 20.0224 68.2022 20.0224 68.2317C20.0224 68.3398 21.0811 68.2821 21.0858 68.1737C21.0884 68.1122 21.2328 67.3318 21.4065 66.4393C21.7241 64.8085 21.7092 64.3553 21.3263 64.0143C21.0496 63.7677 20.5244 63.6847 20.1075 63.8214ZM32.933 63.8102C31.5661 64.1104 30.5826 66.8033 31.4358 67.9096C32.0579 68.716 33.4357 68.5331 34.2336 67.5384C34.4962 67.2109 34.711 66.8762 34.711 66.7944C34.711 66.7127 34.4945 66.6458 34.23 66.6458C33.8867 66.6458 33.661 66.7527 33.4422 67.0184C33.065 67.477 32.526 67.5075 32.3238 67.0818C32.0962 66.6027 32.3037 65.608 32.7319 65.1256C33.1986 64.6 33.6165 64.5821 33.7847 65.0806C33.8902 65.3929 33.9967 65.4532 34.443 65.4532C34.8832 65.4532 34.9757 65.4027 34.9757 65.1621C34.9757 64.1137 34.1225 63.549 32.933 63.8102ZM37.093 63.8361C35.9828 64.1996 35.2487 65.334 35.2432 66.6945C35.2409 67.2892 35.3057 67.4877 35.6175 67.8388C36.2717 68.5759 37.3174 68.5822 38.365 67.8552C38.9273 67.4652 39.3426 66.45 39.3426 65.4659C39.3426 64.7772 39.2911 64.6243 38.9316 64.2459C38.7055 64.0082 38.4227 63.8126 38.303 63.8114C38.1834 63.8103 37.9663 63.7813 37.8208 63.747C37.6752 63.7127 37.3477 63.7528 37.093 63.8361ZM43.4672 63.8124C42.5121 64.0669 41.7325 65.3897 41.7274 66.7643C41.725 67.4004 41.7859 67.6229 42.0405 67.9097C42.7288 68.685 44.065 68.5225 44.8938 67.5625L45.3636 67.0184L44.868 66.9722C44.5724 66.9447 44.2535 67.0199 44.0776 67.1586C43.4844 67.6266 42.7832 67.3759 42.7832 66.6957C42.7832 66.3695 42.8296 66.3566 44.1395 66.3156L45.4959 66.2731L45.5367 65.5521C45.586 64.6802 45.333 64.1754 44.6959 63.8755C44.2043 63.6441 44.1157 63.6395 43.4672 63.8124ZM53.6553 63.8127C52.6289 64.086 51.8265 65.5679 51.946 66.969C52.0248 67.8929 52.3122 68.2228 53.1642 68.3666C53.9231 68.4948 54.6106 68.2065 55.1302 67.5418L55.5394 67.0184L55.0369 66.9713C54.7167 66.9412 54.4516 67.0088 54.3055 67.1577C54.0344 67.434 53.3563 67.4656 53.1314 67.2122C53.044 67.1138 52.9726 66.8814 52.9726 66.6957C52.9726 66.3695 53.019 66.3566 54.329 66.3156L55.6853 66.2731L55.7261 65.5521C55.7755 64.6802 55.5224 64.1754 54.8853 63.8755C54.3935 63.6441 54.3053 63.6395 53.6553 63.8127ZM57.9052 63.8038C56.9578 64.0691 56.3777 64.8581 56.1226 66.2278C55.8706 67.581 56.4444 68.4422 57.5908 68.4313C58.1282 68.4262 58.9912 67.9182 59.3044 67.4227C59.7001 66.7966 59.6628 66.6458 59.1119 66.6458C58.7606 66.6458 58.566 66.744 58.3744 67.0184C58.074 67.4487 57.4156 67.5315 57.2875 67.1553C57.0139 66.3526 57.441 65.0424 58.0506 64.8136C58.4369 64.6685 58.7951 64.8775 58.7951 65.2478C58.7951 65.3875 58.9618 65.4532 59.3166 65.4532C59.9272 65.4532 60.0102 65.3529 59.8741 64.7797C59.6863 63.9892 58.8045 63.552 57.9052 63.8038ZM62.7747 63.7731C62.5981 63.8105 62.3152 63.9432 62.1461 64.0681C61.8682 64.2732 61.8387 64.2719 61.8387 64.0542C61.8387 63.7009 60.9558 63.7191 60.8595 64.0743C60.7453 64.4952 60.1199 67.8953 60.1191 68.0992C60.1187 68.2159 60.3076 68.2855 60.6252 68.2855H61.1319L61.359 67.0557C61.4839 66.3792 61.647 65.6501 61.7213 65.4353C61.952 64.7692 62.8849 64.5151 63.0731 65.0673C63.1103 65.1767 63.028 65.8283 62.8902 66.515C62.5359 68.2797 62.5367 68.2855 63.1448 68.2855H63.6569L63.9548 66.5784C64.3048 64.5716 64.2564 64.1756 63.6248 63.8782C63.3749 63.7606 63.1537 63.6735 63.1332 63.6847C63.1126 63.6959 62.9513 63.7357 62.7747 63.7731ZM66.6687 63.7999C66.0772 63.9651 65.7565 64.193 65.3106 64.765C64.8786 65.3192 64.5765 66.4924 64.7081 67.1042C64.938 68.1725 66.0981 68.6922 67.1974 68.2192C68.4785 67.6681 69.2258 65.8049 68.6599 64.5724C68.3775 63.957 67.4269 63.5884 66.6687 63.7999ZM73.0427 63.8433C71.9268 64.1836 71.114 65.6311 71.2758 66.9898C71.4436 68.3994 72.8225 68.8378 74.2089 67.9225C74.9345 67.4434 75.3364 66.568 75.3364 65.4659C75.3364 64.7772 75.2849 64.6243 74.9254 64.2459C74.6993 64.0082 74.4165 63.8126 74.2968 63.8114C74.1772 63.8103 73.9601 63.7822 73.8146 63.7491C73.669 63.7158 73.3216 63.7583 73.0427 63.8433ZM77.37 63.8303C76.0175 64.2599 75.2291 67.1034 76.2193 67.981C76.6475 68.3604 77.4656 68.3812 77.9482 68.0251C78.2868 67.7751 78.2973 67.7756 78.2082 68.0372C78.1571 68.1871 78.1153 68.3715 78.1153 68.4468C78.1153 68.5221 77.9962 68.7178 77.8506 68.8818C77.5386 69.2333 76.8935 69.2737 76.6597 68.9563C76.5584 68.8189 76.2681 68.7327 75.9067 68.7327C75.3586 68.7327 75.3246 68.7555 75.4074 69.0681C75.6022 69.803 75.9353 69.9998 76.9844 69.9998C78.0306 69.9998 78.4303 69.7986 78.9266 69.0216C79.1328 68.699 79.9679 64.7279 79.9679 64.0703C79.9679 63.7178 79.1063 63.7064 78.9868 64.0573C78.9126 64.2751 78.8792 64.2774 78.6749 64.0773C78.3589 63.7682 77.8619 63.6741 77.37 63.8303ZM84.1066 63.8092C83.1967 64.0527 82.6358 64.7799 82.3418 66.0975C82.0278 67.5043 82.6008 68.4417 83.7682 68.4313C84.3269 68.4264 85.187 67.927 85.5058 67.4227C85.9015 66.7966 85.8642 66.6458 85.3133 66.6458C84.9592 66.6458 84.7675 66.744 84.5701 67.0266C84.3676 67.3166 84.2053 67.3966 83.8894 67.362C83.5052 67.3199 83.4718 67.2708 83.4346 66.6971C83.3807 65.8644 83.6996 65.044 84.1527 64.8499C84.595 64.6605 84.8673 64.7639 84.9584 65.1558C85.0124 65.3885 85.1391 65.4532 85.5413 65.4532C86.0047 65.4532 86.0551 65.4157 86.0551 65.0707C86.0551 64.4946 85.8188 64.1097 85.321 63.8753C84.8312 63.6449 84.739 63.6398 84.1066 63.8092ZM88.2735 63.8129C86.9379 64.2659 86.1127 65.822 86.453 67.2459C86.7694 68.5698 88.5499 68.801 89.6963 67.6672C90.2338 67.1355 90.6283 65.8696 90.4988 65.0919C90.4004 64.5014 89.9566 64.0052 89.3524 63.8099C88.8388 63.644 88.7707 63.6441 88.2735 63.8129ZM12.1496 64.1489C11.8839 65.4182 11.4209 67.9184 11.4209 68.0844C11.4209 68.2183 11.5912 68.2855 11.9304 68.2855H12.4398L12.8004 66.3849C12.9988 65.3396 13.1928 64.3334 13.2317 64.1489C13.296 63.8428 13.255 63.8135 12.761 63.8135C12.309 63.8135 12.2084 63.8686 12.1496 64.1489ZM25.2535 64.1489C24.8056 66.3906 24.5216 67.9161 24.5216 68.0819C24.5216 68.2201 24.6918 68.2855 25.0509 68.2855C25.342 68.2855 25.5802 68.2517 25.5802 68.2102C25.5802 68.1688 25.7589 67.1856 25.9772 66.0252C26.1956 64.8649 26.3742 63.8925 26.3742 63.8645C26.3742 63.8364 26.1372 63.8135 25.8474 63.8135C25.4091 63.8135 25.3094 63.8698 25.2535 64.1489ZM29.7506 64.1489C29.5403 65.1675 29.0208 68.0044 29.0208 68.1339C29.0208 68.2173 29.25 68.2855 29.5303 68.2855H30.0398L30.4004 66.3849C30.5987 65.3396 30.7927 64.3334 30.8316 64.1489C30.8959 63.8428 30.8549 63.8135 30.3609 63.8135C29.9085 63.8135 29.8084 63.8685 29.7506 64.1489ZM80.9833 63.9253C80.9509 63.9868 80.7681 64.842 80.5772 65.8259C80.3862 66.8097 80.1988 67.7696 80.1606 67.9589C80.0956 68.2815 80.1265 68.3003 80.65 68.2571L81.2088 68.211L81.5763 66.2731C82.0538 63.7553 82.0557 63.8135 81.4975 63.8135C81.247 63.8135 81.0157 63.8637 80.9833 63.9253ZM15.0778 65.0169C14.563 65.4731 14.6466 65.6023 15.457 65.6023C16.0697 65.6023 16.1848 65.5598 16.1848 65.334C16.1848 64.6903 15.6268 64.5303 15.0778 65.0169ZM37.1337 64.8584C36.5086 65.142 36.1312 66.4096 36.4889 67.0246C36.8738 67.6864 37.6358 67.4925 38.025 66.6334C38.3742 65.862 38.3612 65.2329 37.9898 64.94C37.6604 64.68 37.55 64.6694 37.1337 64.8584ZM43.4133 64.8678C43.2869 64.9509 43.121 65.15 43.0448 65.3106C42.9143 65.5852 42.9531 65.6023 43.7048 65.6023C44.4104 65.6023 44.5034 65.5682 44.5034 65.3094C44.5034 64.8177 43.8766 64.5639 43.4133 64.8678ZM53.5019 65.006C53.0851 65.4756 53.1834 65.6023 53.9651 65.6023C54.5777 65.6023 54.6929 65.5598 54.6929 65.334C54.6929 64.6937 53.9586 64.4916 53.5019 65.006ZM66.6687 64.8488C66.2077 65.0613 65.9118 65.5686 65.8421 66.2658C65.7619 67.0667 65.9456 67.3911 66.4791 67.3911C67.1132 67.3911 67.5525 66.8245 67.6309 65.9052C67.687 65.2474 67.6565 65.0727 67.4562 64.9078C67.1835 64.6831 67.0499 64.6732 66.6687 64.8488ZM73.1267 64.8587C72.7634 65.0236 72.4017 65.7909 72.3855 66.4314C72.3515 67.7854 73.6703 67.6869 74.1365 66.3007C74.3563 65.6475 74.3053 65.1937 73.9836 64.94C73.6541 64.6799 73.544 64.6694 73.1267 64.8587ZM88.2125 64.8863C87.6457 65.1947 87.2778 66.771 87.6695 67.2122C87.8643 67.4317 88.3668 67.4439 88.709 67.2376C89.0783 67.015 89.3634 66.3043 89.3634 65.606C89.3634 65.0911 89.3116 64.9765 89.0239 64.8532C88.6209 64.6806 88.5879 64.6819 88.2125 64.8863ZM77.1841 65.3414C76.9994 65.6785 76.9295 66.03 76.9545 66.4967C76.9889 67.1389 77.0094 67.1696 77.433 67.2152C77.9754 67.2738 78.3288 66.9485 78.5237 66.2115C78.6229 65.836 78.6236 65.5547 78.5258 65.2669C78.4101 64.9264 78.3072 64.857 77.9181 64.857C77.5324 64.857 77.4028 64.9425 77.1841 65.3414Z" fill="black"/>
</g>
</svg>
