<svg width="345" height="70" viewBox="0 0 345 70" fill="none" xmlns="http://www.w3.org/2000/svg">
<g id="ESCS - cor">
<g id="Vector">
<path d="M92.7916 35.0775C92.7916 53.6236 77.7569 68.6583 59.2107 68.6583C40.6646 68.6583 25.6299 53.6236 25.6299 35.0775C25.6299 16.5313 40.6646 1.49665 59.2107 1.49665C77.7569 1.49665 92.7916 16.5313 92.7916 35.0775Z" fill="#ECAB79"/>
<path d="M70.8478 20.9575C67.4667 19.3182 64.1261 17.77 60.8455 16.3148C54.8286 13.9906 45.7634 11.0393 32.777 8.04901C4.34084 1.50122 0.4118 5.63524 23.7973 18.432C47.1828 31.2287 -1.55182 8.51689 0.0381737 2.24957C1.48303 -3.44567 28.1864 1.82773 60.8455 16.3148C68.0038 19.0799 70.8478 20.9575 70.8478 20.9575Z" fill="#E77817"/>
<path d="M57.9182 0.0439304C55.8077 0.256915 53.8521 0.586073 52.0127 1.0314C49.786 1.55418 45.7393 2.81273 45.8555 2.9289C45.8942 2.98699 48.0241 2.65783 50.5799 2.2125C54.5491 1.53482 55.6334 1.41865 58.2086 1.39929C61.3066 1.37992 62.1391 1.4961 65.2371 2.3674C68.6836 3.33551 75.3635 6.1624 75.1118 6.569C75.0537 6.68518 75.0925 6.70454 75.228 6.62709C75.4991 6.45283 75.9057 6.70454 77.9581 8.23416C80.6301 10.2285 84.9478 14.9141 84.5993 15.4756C84.5412 15.5724 84.58 15.6112 84.6768 15.5531C84.9478 15.3788 85.5674 16.3276 85.3932 16.6374C85.3157 16.7729 85.3157 16.8116 85.4125 16.7342C85.5674 16.5986 86.0902 17.0246 86.0902 17.2763C86.0902 17.3538 86.2257 17.5861 86.4 17.7604C86.5743 17.954 86.7292 18.3412 86.7292 18.6317C86.7292 18.9415 86.7679 19.0576 86.8647 18.9027C87.0777 18.5542 89.6529 23.8595 89.4786 24.2854C89.4205 24.4597 89.4205 24.5372 89.498 24.4597C89.5754 24.3823 89.8271 24.8663 90.0595 25.5246C90.3693 26.3766 90.4274 26.7832 90.2725 26.88C90.1369 26.9768 90.195 27.0349 90.408 27.0349C90.5822 27.0349 90.7371 27.1511 90.7565 27.2672C90.7759 27.6738 90.8727 28.1385 91.105 28.8162C91.2018 29.1647 91.3374 29.7069 91.3955 30.036C91.4342 30.3458 91.4923 30.6169 91.5116 30.6169C91.531 30.6169 91.5891 30.9267 91.6278 31.2946C91.6859 31.6625 91.8021 32.2627 91.8989 32.5918C92.0538 33.1921 91.8602 33.5019 91.6278 32.9791C91.5891 32.8629 91.5504 32.9404 91.5891 33.1921C91.6084 33.4438 91.7633 33.7342 91.9182 33.8117C92.1312 33.9666 92.1893 34.683 92.17 37.626C92.17 40.8402 92.0925 41.5178 91.6472 43.4153C91.0663 45.9131 90.1563 48.3527 89.9046 48.1978C89.7884 48.1397 89.769 48.1784 89.8465 48.2946C90.0207 48.5657 89.5754 49.5144 89.3237 49.3595C89.2075 49.3015 89.1882 49.3402 89.2656 49.4757C89.4592 49.7855 88.0264 52.806 87.7747 52.6511C87.6586 52.593 87.6392 52.6318 87.7166 52.7479C87.8909 53.0384 86.5936 55.3618 86.3806 55.1682C86.3032 55.0714 86.2838 55.1101 86.3613 55.2457C86.4968 55.4974 85.9159 56.5623 85.7417 56.3687C85.6062 56.2331 85.1221 56.6591 85.1221 56.9108C85.1221 57.027 85.2576 56.9495 85.4125 56.7366C85.6255 56.4655 85.6836 56.4461 85.703 56.6591C85.703 56.9883 83.4957 59.9894 82.7212 60.7058L82.2178 61.1705L83.1471 61.4803L84.0572 61.8095L84.8704 61.1511C86.8841 59.5441 89.5173 55.904 91.4729 52.0509C93.8157 47.4427 94.9581 44.2479 95.5003 40.7821C95.7713 38.9427 95.8875 33.831 95.6745 32.3595C94.9 26.8994 94.0868 24.1306 91.9763 19.7547C88.8009 13.1134 83.5538 7.45967 77.9 4.53597C74.3373 2.67719 69.1676 0.973318 65.4501 0.411813C63.3202 0.102017 59.351 -0.0916053 57.9182 0.0439304Z" fill="black"/>
<path d="M56.4663 7.51775C55.4401 8.05989 54.9367 8.69884 54.6269 9.93803C54.3752 10.9642 54.5107 11.6225 55.169 12.5713C55.3627 12.8811 55.5563 13.3264 55.5756 13.5975C55.5756 13.8492 55.6531 14.0622 55.7499 14.0622C56.0597 14.0622 55.8661 13.2296 55.2852 12.1453C54.7043 11.0417 54.685 10.9255 54.898 10.0736C55.3627 8.27287 56.3501 7.47902 58.1315 7.47902C59.7966 7.47902 60.7066 8.23415 61.0164 9.8993C61.0745 10.3059 61.2875 10.9061 61.4424 11.2353C61.6554 11.6613 61.6747 11.8936 61.5198 12.2034C61.4037 12.4164 61.2294 12.9973 61.152 13.4813L60.9971 14.3526L60.087 14.3139C59.177 14.2945 59.177 14.2945 59.1964 14.8948C59.2157 15.3207 59.2545 15.3788 59.3125 15.0884C59.39 14.7399 59.5255 14.6818 60.2419 14.6818C61.3649 14.6818 61.5005 14.5656 61.5005 13.6556C61.5005 13.2296 61.636 12.6681 61.8103 12.4164C62.0813 11.9904 62.0813 11.8936 61.7135 11.0417C61.4811 10.5576 61.3069 9.8993 61.3069 9.60887C61.3069 9.31844 61.0551 8.73757 60.7454 8.3116C60.3194 7.71137 59.9709 7.47902 59.3125 7.30476C58.0346 6.99497 57.4344 7.03369 56.4663 7.51775Z" fill="black"/>
<path d="M37.5684 11.5838C30.5593 16.4438 26.3964 22.1169 24.5183 29.4165C23.7051 32.6112 23.4727 34.7217 23.6083 38.1295C23.7825 43.1636 24.8474 47.3265 27.1322 51.9347C28.8361 55.3812 30.8691 58.2081 33.5992 60.9188C38.827 66.1273 44.7712 69.0316 51.7416 69.8061C53.8908 70.0578 57.3179 70.0578 58.9831 69.8448C61.5582 69.4769 66.8054 68.0828 67.1152 67.6569C67.2895 67.4245 68.3544 67.2309 68.1995 67.4632C68.1414 67.5794 68.1608 67.715 68.2576 67.773C68.3544 67.8505 68.4125 67.7343 68.3931 67.5601C68.3544 67.3083 68.6061 67.076 69.2257 66.7856C69.7097 66.5339 70.2325 66.3402 70.3681 66.3402C70.5036 66.3402 70.7553 66.2047 70.9102 66.0498C71.1619 65.7981 71.1619 65.7594 70.9296 65.7594C70.7747 65.7594 70.3293 65.8949 69.9421 66.0498C69.5548 66.2241 69.1482 66.3015 69.0514 66.2434C68.974 66.1853 68.8578 66.2241 68.8191 66.3209C68.761 66.4951 67.1346 66.9986 65.9535 67.2115C65.6824 67.2503 64.6949 67.4245 63.7268 67.5988C62.7781 67.773 60.5127 67.9667 58.6926 68.0247C55.9045 68.1022 55.0138 68.0635 52.884 67.715C50.0377 67.2503 46.5331 66.2241 46.7268 65.8949C46.8042 65.7787 46.7461 65.7594 46.6106 65.8562C46.3202 66.0304 44.8099 65.3915 44.9648 65.1591C45.0229 65.0623 44.9454 65.043 44.7906 65.1011C44.5195 65.1979 42.2541 64.0942 41.2666 63.3585C40.9568 63.1261 40.5309 62.8744 40.3372 62.7969C40.1242 62.7195 40.0468 62.5646 40.1242 62.4291C40.2017 62.2935 40.2017 62.2354 40.1049 62.3129C39.7757 62.6227 37.5395 60.701 37.8201 60.3573L37.704 60.3379C37.5395 60.6284 37.2199 60.3186 35.9614 59.0407C32.7279 55.7104 30.3657 51.9541 28.778 47.6363C27.4226 43.9575 26.8611 41.2274 26.7062 37.3743C26.2996 27.3834 30.1527 18.4574 37.6846 12.0292C38.0525 11.7 38.6527 11.216 39.0012 10.9062C40.1436 9.97677 39.3498 10.3447 37.5684 11.5838Z" fill="black"/>
<path d="M57.1825 10.7125C56.9502 10.9255 57.0276 11.5257 57.3568 12.1453C57.6472 12.7455 58.0344 12.8036 58.17 12.3002C58.2281 12.0872 58.2087 12.0872 58.0538 12.2809C57.9183 12.4745 57.8021 12.4164 57.5504 12.0291C57.1051 11.3708 57.2212 10.848 57.7827 10.9061C58.0538 10.9449 58.1893 10.8868 58.1119 10.7706C57.9764 10.5576 57.3761 10.5189 57.1825 10.7125Z" fill="black"/>
<path d="M54.3363 15.2627C53.465 16.6762 53.2714 17.7023 53.2908 20.5486C53.2908 22.814 53.3876 23.6272 53.8329 25.486C54.1814 26.9381 54.4138 28.4871 54.4719 29.9393L54.5881 32.1853L53.7361 33.9085C52.9423 35.5156 52.8842 35.748 52.8842 37.2001C52.8842 38.5748 52.9616 38.904 53.5425 40.1045C54.1427 41.3243 54.2395 41.789 54.5493 44.6739C54.743 46.4553 54.9947 48.2947 55.1108 48.7981C55.2657 49.4951 55.2464 49.8243 55.0334 50.2309C54.8979 50.5213 54.7042 50.9667 54.6268 51.2377C54.4912 51.6443 54.5106 51.6637 54.743 51.4314C54.8979 51.2765 55.1496 50.8311 55.3238 50.4632C55.5949 49.863 55.6143 49.6113 55.3819 48.3334C55.2464 47.5396 55.014 45.6227 54.8398 44.0737C54.5687 41.4985 54.4912 41.15 53.8523 39.9108C53.1746 38.6136 53.1359 38.478 53.2133 37.0065C53.2908 35.6318 53.407 35.2252 54.1427 33.7536L54.9753 32.0691L54.8591 30.0942C54.801 28.9905 54.4912 26.8413 54.1427 25.2923C53.194 20.9552 53.3295 17.7798 54.53 15.4176C55.014 14.4882 54.8785 14.3914 54.3363 15.2627Z" fill="black"/>
<path d="M60.7641 18.167L61.3837 19.3869L61.4031 24.9051C61.4224 27.945 61.3643 31.0429 61.2869 31.7787C61.2095 32.5338 61.0739 34.7411 60.9965 36.6967L60.8609 40.2593L60.493 39.5429C60.222 39.0202 60.0671 37.9746 59.8541 35.1864C59.6411 32.2434 59.4862 31.2172 59.0796 29.9974C58.5956 28.5839 58.5762 28.4097 58.7892 27.1318C59.099 25.1762 59.2345 22.2331 59.0409 21.2263C58.9053 20.5486 58.8666 20.9552 58.8473 23.0657C58.8279 24.5953 58.7117 26.396 58.5375 27.1898C58.2664 28.5646 58.2858 28.642 58.7311 29.765C59.2151 30.9848 59.4475 32.4564 59.7379 36.3869C59.9122 38.5361 60.009 39.0589 60.5124 40.1432C61.2288 41.6728 61.2675 42.0407 60.6286 41.2662C60.1639 40.7047 60.1445 40.7047 59.8541 41.0532C59.4862 41.5373 59.6411 42.1956 60.3575 43.2411C61.0158 44.248 60.6867 44.3641 59.8347 43.4348C58.7117 42.2343 58.7117 42.1956 58.673 40.1238C58.6343 38.2844 58.5762 37.994 57.55 35.109C56.9498 33.4245 56.3302 31.4689 56.1753 30.7525C55.8655 29.3197 55.6719 21.7103 55.9429 20.7809C56.0204 20.4905 56.001 20.2582 55.9042 20.2582C55.304 20.2582 55.4589 28.7775 56.0978 31.3527C56.3108 32.1659 56.911 34.0828 57.4532 35.6124C58.3826 38.1682 58.4407 38.4974 58.4407 40.0851C58.4213 42.0794 58.7311 42.912 59.8735 43.8414L60.5899 44.4416L60.2607 45.9518C59.8735 47.7913 59.6411 49.0111 59.3894 50.6569C59.2732 51.3539 59.1377 52.1478 59.0602 52.4576C59.0022 52.748 59.0215 52.9803 59.1183 52.9803C59.3313 52.9803 59.9509 50.2115 59.9509 49.2628C59.9509 48.8755 60.0284 48.3334 60.1445 48.043C60.2413 47.7719 60.3769 47.2685 60.435 46.92C60.4931 46.5714 60.6867 45.7389 60.8416 45.0418C61.0352 44.2092 61.1901 41.8858 61.3256 38.1876C61.4224 35.109 61.5386 32.5532 61.5773 32.4757C61.6741 32.3208 61.7322 29.8618 61.7516 25.1955C61.7516 23.3755 61.771 21.3812 61.771 20.7422C61.7903 19.8128 61.6741 19.3094 61.1707 18.2638C60.8222 17.5474 60.4543 16.9666 60.3382 16.9666C60.2413 16.9666 60.4156 17.5087 60.7641 18.167ZM60.5318 41.5373C60.6286 41.7502 60.7254 42.2537 60.7254 42.6603V43.396L60.3575 42.912C59.9509 42.4086 59.7766 41.789 59.9122 41.4017C60.0284 41.0532 60.2994 41.1113 60.5318 41.5373Z" fill="black"/>
<path d="M91.5309 42.4473C91.5309 42.6603 91.589 42.7183 91.6471 42.5634C91.7052 42.4279 91.6858 42.2537 91.6277 42.1956C91.5696 42.1181 91.5115 42.2343 91.5309 42.4473Z" fill="black"/>
<path d="M54.5878 52.0509C54.2393 52.4963 54.2974 54.994 54.7234 57.5498C55.1687 60.2992 55.2268 61.6352 54.917 62.6614C54.8202 63.0293 54.7234 63.707 54.7234 64.1523C54.7234 65.5077 55.614 65.8175 57.8988 65.2947C58.2086 65.2172 58.9056 65.256 59.4478 65.3721C60.3965 65.5658 62.7393 65.6626 63.5332 65.527C64.0366 65.4496 64.2883 65.0236 64.0366 64.7138C63.9204 64.5783 63.9011 64.3847 63.9785 64.3072C64.056 64.2104 64.0173 64.2104 63.8817 64.2879C63.7655 64.3459 63.6106 64.3266 63.5332 64.2104C63.4557 64.0942 63.3202 64.0555 63.2234 64.1136C63.1266 64.191 63.0491 64.1523 63.0491 64.0362C63.0491 63.92 62.933 63.8813 62.7781 63.9393C62.6232 63.9974 61.9261 63.7844 61.2485 63.4553C60.5514 63.1261 59.9125 62.8551 59.8156 62.8551C59.4284 62.8551 58.5571 61.8289 58.6539 61.4803C58.712 61.2673 58.6733 61.0737 58.5765 61.0156C58.499 60.9576 58.4603 60.8027 58.499 60.6671C58.5377 60.5316 58.6152 59.5635 58.6926 58.4986C58.7507 57.4336 58.8863 56.0008 58.9831 55.3038C59.0992 54.5099 59.0992 53.9871 58.9831 53.871C58.8669 53.7548 58.7894 53.7548 58.7894 53.871C58.7894 53.9678 58.6539 55.1683 58.499 56.5623C58.3441 57.937 58.2086 59.7377 58.2086 60.5703C58.2086 61.9644 58.2473 62.0806 58.7507 62.5065C59.3703 63.01 62.1004 64.3266 62.9136 64.5008C63.2234 64.5589 63.4364 64.7332 63.4364 64.9268C63.4364 65.1979 63.1847 65.2172 61.171 65.0817C58.1505 64.9075 57.6664 64.9075 56.8145 65.0817C55.8851 65.2753 55.1881 65.0817 55.0525 64.5977C54.9945 64.3847 55.0913 63.6683 55.2462 62.9906C55.5753 61.6352 55.5172 60.1637 55.0138 57.0464C54.8396 55.9234 54.7234 54.2969 54.7621 53.4063C54.8008 52.535 54.8008 51.8186 54.8008 51.8186C54.7815 51.8186 54.6847 51.9348 54.5878 52.0509Z" fill="black"/>
<path d="M38.9623 61.3448C39.0204 61.4416 39.1559 61.4609 39.2527 61.4029C39.5044 61.2286 39.4657 61.1705 39.1366 61.1705C38.9817 61.1705 38.9042 61.248 38.9623 61.3448Z" fill="black"/>
<path d="M79.41 63.6489C78.8873 64.0555 77.1253 65.2559 75.4989 66.2821C73.8918 67.3277 72.5945 68.199 72.6139 68.2377C72.8269 68.4314 78.713 65.5657 80.7267 64.2685L82.1207 63.3778L81.5399 63.1261C80.6686 62.7582 80.475 62.7969 79.41 63.6489Z" fill="black"/>
<path d="M115.122 68.4614C113.666 73.5415 78.4925 63.5925 46.7243 48.4537C46.7243 48.4537 61.1168 54.5978 85.5998 60.3258C110.083 66.0538 113.531 65.6428 93.4938 54.8982C73.457 44.1535 116.578 63.3814 115.122 68.4614Z" fill="#E77817"/>
<path d="M128 22.1035H120.872V17.2207H128.421V14.3864H117.421V33.3002H128.842V30.466H120.872V24.9097H128V22.1035Z" fill="black"/>
<path d="M131.021 32.4022C132.059 33.0196 134.136 33.5808 136.128 33.5808C141.011 33.5808 143.312 30.943 143.312 27.9123C143.312 25.1903 141.712 23.5346 138.429 22.2999C135.904 21.3178 134.809 20.6443 134.809 19.185C134.809 18.0906 135.763 16.912 137.952 16.912C139.72 16.912 141.039 17.4452 141.712 17.81L142.554 15.0319C141.572 14.5268 140.057 14.0778 138.008 14.0778C133.911 14.0778 131.329 16.435 131.329 19.5218C131.329 22.2438 133.322 23.8995 136.437 25.0219C138.85 25.8919 139.804 26.7337 139.804 28.1649C139.804 29.7083 138.569 30.7466 136.353 30.7466C134.585 30.7466 132.901 30.1853 131.778 29.5399L131.021 32.4022Z" fill="black"/>
<path d="M159.407 30.017C158.509 30.4379 157.05 30.7185 155.647 30.7185C151.494 30.7185 149.052 28.0526 149.052 23.8995C149.052 19.3534 151.83 16.9401 155.675 16.9401C157.246 16.9401 158.481 17.2768 159.379 17.6697L160.137 14.9196C159.435 14.5548 157.807 14.0778 155.534 14.0778C149.754 14.0778 145.432 17.8381 145.432 24.0678C145.432 29.8205 149.08 33.5808 155.085 33.5808C157.358 33.5808 159.154 33.1599 159.968 32.739L159.407 30.017Z" fill="black"/>
<path d="M162.07 32.4022C163.108 33.0196 165.185 33.5808 167.177 33.5808C172.06 33.5808 174.361 30.943 174.361 27.9123C174.361 25.1903 172.761 23.5346 169.478 22.2999C166.953 21.3178 165.858 20.6443 165.858 19.185C165.858 18.0906 166.812 16.912 169.001 16.912C170.769 16.912 172.088 17.4452 172.761 17.81L173.603 15.0319C172.621 14.5268 171.106 14.0778 169.057 14.0778C164.96 14.0778 162.379 16.435 162.379 19.5218C162.379 22.2438 164.371 23.8995 167.486 25.0219C169.899 25.8919 170.853 26.7337 170.853 28.1649C170.853 29.7083 169.618 30.7466 167.402 30.7466C165.634 30.7466 163.95 30.1853 162.827 29.5399L162.07 32.4022Z" fill="black"/>
<path d="M121.789 48.072H117.868V44.8842H122.013V43.7916H116.566V53.879H122.238V52.7864H117.868V49.1496H121.789V48.072Z" fill="black"/>
<path d="M123.378 53.5348C123.887 53.8341 124.62 54.0286 125.414 54.0286C127.135 54.0286 128.122 53.1307 128.122 51.8585C128.122 50.7809 127.479 50.1524 126.222 49.6734C125.279 49.3142 124.845 49.0448 124.845 48.4462C124.845 47.9074 125.279 47.4584 126.057 47.4584C126.731 47.4584 127.254 47.6979 127.539 47.8775L127.868 46.9196C127.464 46.6802 126.82 46.4706 126.087 46.4706C124.531 46.4706 123.588 47.4285 123.588 48.5959C123.588 49.4639 124.201 50.1823 125.503 50.6462C126.476 51.0054 126.85 51.3497 126.85 51.9783C126.85 52.5769 126.401 53.0558 125.444 53.0558C124.785 53.0558 124.097 52.7864 123.707 52.532L123.378 53.5348Z" fill="black"/>
<path d="M134.76 52.6218C134.386 52.7864 133.892 52.981 133.143 52.981C131.707 52.981 130.629 51.9483 130.629 50.2721C130.629 48.7605 131.527 47.5332 133.188 47.5332C133.907 47.5332 134.401 47.6979 134.715 47.8775L135.014 46.8598C134.655 46.6802 133.967 46.4856 133.188 46.4856C130.824 46.4856 129.297 48.102 129.297 50.332C129.297 52.547 130.719 54.0286 132.904 54.0286C133.877 54.0286 134.64 53.7892 134.984 53.6096L134.76 52.6218Z" fill="black"/>
<path d="M139.51 46.4706C137.504 46.4706 135.918 47.8924 135.918 50.317C135.918 52.6068 137.43 54.0436 139.39 54.0436C141.141 54.0436 142.997 52.8762 142.997 50.1973C142.997 47.9822 141.59 46.4706 139.51 46.4706ZM139.48 47.4584C141.037 47.4584 141.65 49.0149 141.65 50.2422C141.65 51.8735 140.707 53.0558 139.45 53.0558C138.163 53.0558 137.25 51.8585 137.25 50.2721C137.25 48.8952 137.924 47.4584 139.48 47.4584Z" fill="black"/>
<path d="M144.656 53.879H145.973V43.2529H144.656V53.879Z" fill="black"/>
<path d="M153.401 53.879C153.311 53.3851 153.281 52.7715 153.281 52.1429V49.434C153.281 47.9822 152.743 46.4706 150.528 46.4706C149.615 46.4706 148.747 46.7251 148.148 47.1142L148.447 47.9822C148.956 47.653 149.659 47.4434 150.333 47.4434C151.815 47.4434 151.979 48.521 151.979 49.1197V49.2693C149.181 49.2544 147.624 50.2122 147.624 51.9633C147.624 53.0109 148.372 54.0436 149.839 54.0436C150.872 54.0436 151.65 53.5348 152.054 52.966H152.099L152.204 53.879H153.401ZM152.009 51.4395C152.009 51.5742 151.979 51.7238 151.934 51.8585C151.725 52.4721 151.126 53.0708 150.183 53.0708C149.51 53.0708 148.941 52.6667 148.941 51.8136C148.941 50.4068 150.572 50.1524 152.009 50.1823V51.4395Z" fill="black"/>
<path d="M158.121 53.3851C158.659 53.7443 159.722 54.0286 160.695 54.0286C163.074 54.0286 164.227 52.6817 164.227 51.1252C164.227 49.6435 163.359 48.8204 161.653 48.1618C160.261 47.623 159.647 47.1591 159.647 46.2162C159.647 45.5277 160.171 44.7046 161.548 44.7046C162.461 44.7046 163.134 45.0039 163.464 45.1835L163.823 44.1209C163.374 43.8665 162.625 43.627 161.593 43.627C159.632 43.627 158.33 44.7944 158.33 46.3659C158.33 47.7877 159.348 48.6408 160.994 49.2244C162.356 49.7483 162.895 50.2871 162.895 51.2299C162.895 52.2477 162.117 52.9511 160.785 52.9511C159.887 52.9511 159.033 52.6517 158.45 52.2925L158.121 53.3851Z" fill="black"/>
<path d="M172.027 46.6353H170.71V51.0803C170.71 51.3197 170.665 51.5592 170.59 51.7538C170.35 52.3375 169.737 52.9511 168.854 52.9511C167.657 52.9511 167.238 52.0232 167.238 50.6462V46.6353H165.92V50.8707C165.92 53.415 167.282 54.0436 168.42 54.0436C169.707 54.0436 170.47 53.2803 170.814 52.6966H170.844L170.919 53.879H172.087C172.042 53.3103 172.027 52.6517 172.027 51.9034V46.6353Z" fill="black"/>
<path d="M174.209 56.8423H175.511V52.9062H175.541C175.975 53.6246 176.813 54.0436 177.771 54.0436C179.477 54.0436 181.063 52.7565 181.063 50.1524C181.063 47.9523 179.746 46.4706 177.995 46.4706C176.813 46.4706 175.96 46.9944 175.421 47.8775H175.391L175.331 46.6353H174.149C174.179 47.3237 174.209 48.072 174.209 48.9999V56.8423ZM175.511 49.6884C175.511 49.5088 175.556 49.3142 175.6 49.1496C175.855 48.1618 176.693 47.5183 177.591 47.5183C178.983 47.5183 179.746 48.7605 179.746 50.2122C179.746 51.8735 178.938 53.0109 177.546 53.0109C176.603 53.0109 175.81 52.3823 175.57 51.4694C175.541 51.3048 175.511 51.1252 175.511 50.9306V49.6884Z" fill="black"/>
<path d="M188.551 50.4966C188.566 50.3619 188.596 50.1524 188.596 49.883C188.596 48.551 187.968 46.4706 185.603 46.4706C183.493 46.4706 182.206 48.1918 182.206 50.3769C182.206 52.5619 183.538 54.0286 185.768 54.0286C186.92 54.0286 187.713 53.7892 188.177 53.5797L187.953 52.6368C187.459 52.8463 186.89 53.0109 185.947 53.0109C184.63 53.0109 183.493 52.2776 183.463 50.4966H188.551ZM183.478 49.5537C183.583 48.6408 184.166 47.4135 185.498 47.4135C186.98 47.4135 187.339 48.7156 187.324 49.5537H183.478Z" fill="black"/>
<path d="M190.227 53.879H191.529V50.0177C191.529 49.7932 191.559 49.5836 191.589 49.404C191.769 48.4163 192.427 47.7128 193.355 47.7128C193.535 47.7128 193.67 47.7278 193.804 47.7577V46.5155C193.684 46.4856 193.58 46.4706 193.43 46.4706C192.547 46.4706 191.754 47.0842 191.425 48.0571H191.365L191.32 46.6353H190.167C190.212 47.3087 190.227 48.0421 190.227 48.8952V53.879Z" fill="black"/>
<path d="M196.499 53.879V46.6353H195.182V53.879H196.499ZM195.84 43.7767C195.362 43.7767 195.017 44.1359 195.017 44.5998C195.017 45.0488 195.347 45.408 195.811 45.408C196.334 45.408 196.664 45.0488 196.649 44.5998C196.649 44.1359 196.334 43.7767 195.84 43.7767Z" fill="black"/>
<path d="M201.758 46.4706C199.752 46.4706 198.166 47.8924 198.166 50.317C198.166 52.6068 199.677 54.0436 201.638 54.0436C203.389 54.0436 205.245 52.8762 205.245 50.1973C205.245 47.9822 203.838 46.4706 201.758 46.4706ZM201.728 47.4584C203.284 47.4584 203.898 49.0149 203.898 50.2422C203.898 51.8735 202.955 53.0558 201.698 53.0558C200.411 53.0558 199.498 51.8585 199.498 50.2721C199.498 48.8952 200.171 47.4584 201.728 47.4584Z" fill="black"/>
<path d="M206.904 53.879H208.206V50.0177C208.206 49.7932 208.236 49.5836 208.266 49.404C208.445 48.4163 209.104 47.7128 210.032 47.7128C210.211 47.7128 210.346 47.7278 210.481 47.7577V46.5155C210.361 46.4856 210.256 46.4706 210.106 46.4706C209.223 46.4706 208.43 47.0842 208.101 48.0571H208.041L207.996 46.6353H206.844C206.889 47.3087 206.904 48.0421 206.904 48.8952V53.879Z" fill="black"/>
<path d="M219.91 43.2529V47.5781H219.88C219.551 46.9944 218.803 46.4706 217.695 46.4706C215.929 46.4706 214.433 47.9523 214.448 50.3619C214.448 52.5619 215.795 54.0436 217.546 54.0436C218.728 54.0436 219.611 53.43 220.015 52.6218H220.045L220.105 53.879H221.287C221.242 53.3851 221.227 52.6517 221.227 52.0082V43.2529H219.91ZM219.91 50.8408C219.91 51.0503 219.895 51.2299 219.851 51.4095C219.611 52.3973 218.803 52.981 217.92 52.981C216.498 52.981 215.78 51.7687 215.78 50.302C215.78 48.7006 216.588 47.5033 217.95 47.5033C218.938 47.5033 219.656 48.1918 219.851 49.0299C219.895 49.1945 219.91 49.419 219.91 49.5836V50.8408Z" fill="black"/>
<path d="M229.241 50.4966C229.256 50.3619 229.286 50.1524 229.286 49.883C229.286 48.551 228.658 46.4706 226.293 46.4706C224.183 46.4706 222.895 48.1918 222.895 50.3769C222.895 52.5619 224.227 54.0286 226.457 54.0286C227.61 54.0286 228.403 53.7892 228.867 53.5797L228.643 52.6368C228.149 52.8463 227.58 53.0109 226.637 53.0109C225.32 53.0109 224.183 52.2776 224.153 50.4966H229.241ZM224.168 49.5537C224.272 48.6408 224.856 47.4135 226.188 47.4135C227.67 47.4135 228.029 48.7156 228.014 49.5537H224.168Z" fill="black"/>
<path d="M240.913 52.517C240.39 52.7715 239.581 52.9361 238.788 52.9361C236.334 52.9361 234.912 51.3497 234.912 48.8802C234.912 46.2312 236.483 44.7196 238.848 44.7196C239.686 44.7196 240.39 44.8992 240.883 45.1386L241.198 44.076C240.853 43.8964 240.06 43.627 238.803 43.627C235.675 43.627 233.535 45.7672 233.535 48.9251C233.535 52.2327 235.675 54.0286 238.519 54.0286C239.746 54.0286 240.704 53.7892 241.183 53.5497L240.913 52.517Z" fill="black"/>
<path d="M244.044 53.879V46.6353H242.727V53.879H244.044ZM243.385 43.7767C242.906 43.7767 242.562 44.1359 242.562 44.5998C242.562 45.0488 242.891 45.408 243.355 45.408C243.879 45.408 244.208 45.0488 244.193 44.5998C244.193 44.1359 243.879 43.7767 243.385 43.7767Z" fill="black"/>
<path d="M252.056 50.4966C252.071 50.3619 252.101 50.1524 252.101 49.883C252.101 48.551 251.472 46.4706 249.108 46.4706C246.998 46.4706 245.71 48.1918 245.71 50.3769C245.71 52.5619 247.042 54.0286 249.272 54.0286C250.425 54.0286 251.218 53.7892 251.682 53.5797L251.458 52.6368C250.964 52.8463 250.395 53.0109 249.452 53.0109C248.135 53.0109 246.998 52.2776 246.968 50.4966H252.056ZM246.983 49.5537C247.087 48.6408 247.671 47.4135 249.003 47.4135C250.485 47.4135 250.844 48.7156 250.829 49.5537H246.983ZM248.614 43.5073L247.192 45.6475H248.18L249.048 44.2257H249.078L249.946 45.6475H250.949L249.512 43.5073H248.614Z" fill="black"/>
<path d="M253.732 53.879H255.049V49.5238C255.049 49.2993 255.079 49.0748 255.139 48.9101C255.363 48.1768 256.037 47.5632 256.905 47.5632C258.147 47.5632 258.581 48.536 258.581 49.7034V53.879H259.898V49.5537C259.898 47.0693 258.342 46.4706 257.339 46.4706C256.142 46.4706 255.304 47.1441 254.944 47.8326H254.914L254.84 46.6353H253.672C253.717 47.2339 253.732 47.8475 253.732 48.5959V53.879Z" fill="black"/>
<path d="M266.973 52.6218C266.598 52.7864 266.105 52.981 265.356 52.981C263.919 52.981 262.842 51.9483 262.842 50.2721C262.842 48.7605 263.74 47.5332 265.401 47.5332C266.12 47.5332 266.613 47.6979 266.928 47.8775L267.227 46.8598C266.868 46.6802 266.179 46.4856 265.401 46.4856C263.036 46.4856 261.51 48.102 261.51 50.332C261.51 52.547 262.932 54.0286 265.117 54.0286C266.09 54.0286 266.853 53.7892 267.197 53.6096L266.973 52.6218Z" fill="black"/>
<path d="M270.059 53.879V46.6353H268.742V53.879H270.059ZM269.401 43.7767C268.922 43.7767 268.578 44.1359 268.578 44.5998C268.578 45.0488 268.907 45.408 269.371 45.408C269.895 45.408 270.224 45.0488 270.209 44.5998C270.209 44.1359 269.895 43.7767 269.401 43.7767Z" fill="black"/>
<path d="M277.458 53.879C277.369 53.3851 277.339 52.7715 277.339 52.1429V49.434C277.339 47.9822 276.8 46.4706 274.585 46.4706C273.672 46.4706 272.804 46.7251 272.205 47.1142L272.504 47.9822C273.013 47.653 273.717 47.4434 274.39 47.4434C275.872 47.4434 276.037 48.521 276.037 49.1197V49.2693C273.238 49.2544 271.681 50.2122 271.681 51.9633C271.681 53.0109 272.43 54.0436 273.896 54.0436C274.929 54.0436 275.707 53.5348 276.111 52.966H276.156L276.261 53.879H277.458ZM276.066 51.4395C276.066 51.5742 276.037 51.7238 275.992 51.8585C275.782 52.4721 275.183 53.0708 274.241 53.0708C273.567 53.0708 272.998 52.6667 272.998 51.8136C272.998 50.4068 274.63 50.1524 276.066 50.1823V51.4395Z" fill="black"/>
<path d="M278.961 53.5348C279.47 53.8341 280.203 54.0286 280.997 54.0286C282.718 54.0286 283.706 53.1307 283.706 51.8585C283.706 50.7809 283.062 50.1524 281.805 49.6734C280.862 49.3142 280.428 49.0448 280.428 48.4462C280.428 47.9074 280.862 47.4584 281.64 47.4584C282.314 47.4584 282.838 47.6979 283.122 47.8775L283.451 46.9196C283.047 46.6802 282.404 46.4706 281.67 46.4706C280.114 46.4706 279.171 47.4285 279.171 48.5959C279.171 49.4639 279.784 50.1823 281.087 50.6462C282.059 51.0054 282.434 51.3497 282.434 51.9783C282.434 52.5769 281.984 53.0558 281.027 53.0558C280.368 53.0558 279.68 52.7864 279.291 52.532L278.961 53.5348Z" fill="black"/>
<path d="M293.515 43.2529V47.5781H293.485C293.155 46.9944 292.407 46.4706 291.3 46.4706C289.534 46.4706 288.037 47.9523 288.052 50.3619C288.052 52.5619 289.399 54.0436 291.15 54.0436C292.332 54.0436 293.215 53.43 293.619 52.6218H293.649L293.709 53.879H294.891C294.847 53.3851 294.832 52.6517 294.832 52.0082V43.2529H293.515ZM293.515 50.8408C293.515 51.0503 293.5 51.2299 293.455 51.4095C293.215 52.3973 292.407 52.981 291.524 52.981C290.102 52.981 289.384 51.7687 289.384 50.302C289.384 48.7006 290.192 47.5033 291.554 47.5033C292.542 47.5033 293.26 48.1918 293.455 49.0299C293.5 49.1945 293.515 49.419 293.515 49.5836V50.8408Z" fill="black"/>
<path d="M302.232 53.879C302.142 53.3851 302.112 52.7715 302.112 52.1429V49.434C302.112 47.9822 301.573 46.4706 299.358 46.4706C298.445 46.4706 297.577 46.7251 296.979 47.1142L297.278 47.9822C297.787 47.653 298.49 47.4434 299.164 47.4434C300.645 47.4434 300.81 48.521 300.81 49.1197V49.2693C298.011 49.2544 296.455 50.2122 296.455 51.9633C296.455 53.0109 297.203 54.0436 298.67 54.0436C299.702 54.0436 300.481 53.5348 300.885 52.966H300.93L301.034 53.879H302.232ZM300.84 51.4395C300.84 51.5742 300.81 51.7238 300.765 51.8585C300.556 52.4721 299.957 53.0708 299.014 53.0708C298.341 53.0708 297.772 52.6667 297.772 51.8136C297.772 50.4068 299.403 50.1524 300.84 50.1823V51.4395Z" fill="black"/>
<path d="M306.951 53.3851C307.49 53.7443 308.553 54.0286 309.525 54.0286C311.905 54.0286 313.058 52.6817 313.058 51.1252C313.058 49.6435 312.189 48.8204 310.483 48.1618C309.091 47.623 308.478 47.1591 308.478 46.2162C308.478 45.5277 309.002 44.7046 310.379 44.7046C311.292 44.7046 311.965 45.0039 312.294 45.1835L312.653 44.1209C312.204 43.8665 311.456 43.627 310.423 43.627C308.463 43.627 307.161 44.7944 307.161 46.3659C307.161 47.7877 308.178 48.6408 309.825 49.2244C311.187 49.7483 311.725 50.2871 311.725 51.2299C311.725 52.2477 310.947 52.9511 309.615 52.9511C308.717 52.9511 307.864 52.6517 307.28 52.2925L306.951 53.3851Z" fill="black"/>
<path d="M320.048 53.879C319.958 53.3851 319.928 52.7715 319.928 52.1429V49.434C319.928 47.9822 319.39 46.4706 317.175 46.4706C316.262 46.4706 315.394 46.7251 314.795 47.1142L315.094 47.9822C315.603 47.653 316.307 47.4434 316.98 47.4434C318.462 47.4434 318.626 48.521 318.626 49.1197V49.2693C315.828 49.2544 314.271 50.2122 314.271 51.9633C314.271 53.0109 315.02 54.0436 316.486 54.0436C317.519 54.0436 318.297 53.5348 318.701 52.966H318.746L318.851 53.879H320.048ZM318.656 51.4395C318.656 51.5742 318.626 51.7238 318.582 51.8585C318.372 52.4721 317.773 53.0708 316.83 53.0708C316.157 53.0708 315.588 52.6667 315.588 51.8136C315.588 50.4068 317.22 50.1524 318.656 50.1823V51.4395Z" fill="black"/>
<path d="M328.121 46.6353H326.804V51.0803C326.804 51.3197 326.759 51.5592 326.685 51.7538C326.445 52.3375 325.832 52.9511 324.949 52.9511C323.751 52.9511 323.332 52.0232 323.332 50.6462V46.6353H322.015V50.8707C322.015 53.415 323.377 54.0436 324.514 54.0436C325.802 54.0436 326.565 53.2803 326.909 52.6966H326.939L327.014 53.879H328.181C328.136 53.3103 328.121 52.6517 328.121 51.9034V46.6353ZM325.772 43.5073L324.455 45.6475H325.398L327.223 43.5073H325.772Z" fill="black"/>
<path d="M335.242 43.2529V47.5781H335.212C334.883 46.9944 334.135 46.4706 333.027 46.4706C331.261 46.4706 329.764 47.9523 329.779 50.3619C329.779 52.5619 331.126 54.0436 332.877 54.0436C334.06 54.0436 334.943 53.43 335.347 52.6218H335.377L335.437 53.879H336.619C336.574 53.3851 336.559 52.6517 336.559 52.0082V43.2529H335.242ZM335.242 50.8408C335.242 51.0503 335.227 51.2299 335.182 51.4095C334.943 52.3973 334.135 52.981 333.252 52.981C331.83 52.981 331.111 51.7687 331.111 50.302C331.111 48.7006 331.92 47.5033 333.282 47.5033C334.269 47.5033 334.988 48.1918 335.182 49.0299C335.227 49.1945 335.242 49.419 335.242 49.5836V50.8408Z" fill="black"/>
<path d="M344.573 50.4966C344.588 50.3619 344.618 50.1524 344.618 49.883C344.618 48.551 343.989 46.4706 341.625 46.4706C339.514 46.4706 338.227 48.1918 338.227 50.3769C338.227 52.5619 339.559 54.0286 341.789 54.0286C342.942 54.0286 343.735 53.7892 344.199 53.5797L343.974 52.6368C343.48 52.8463 342.912 53.0109 341.969 53.0109C340.652 53.0109 339.514 52.2776 339.484 50.4966H344.573ZM339.499 49.5537C339.604 48.6408 340.188 47.4135 341.52 47.4135C343.001 47.4135 343.361 48.7156 343.346 49.5537H339.499Z" fill="black"/>
</g>
</g>
</svg>
