<svg width="149" height="100" viewBox="0 0 149 100" fill="none" xmlns="http://www.w3.org/2000/svg">
<g id="FAPDF - cor">
<path id="Vector" fill-rule="evenodd" clip-rule="evenodd" d="M109.019 48.2721L108.785 48.5213L108.791 56.1937C108.799 65.752 108.752 66.3467 107.83 68.2348C107.502 68.9076 107.208 69.3153 106.647 69.878C105.443 71.0852 104.294 71.5329 102.426 71.5226C100.651 71.5127 99.5096 71.0506 98.2349 69.8245C97.3811 69.0033 96.913 68.2678 96.5189 67.1284C96.2576 66.373 96.2277 66.1425 96.2261 64.8662C96.2232 62.6025 96.729 61.2563 98.1096 59.8531C100.268 57.659 103.595 57.4461 106.358 59.3249C106.691 59.5512 107.048 59.7079 107.231 59.7079C107.587 59.7079 108.016 59.335 108.115 58.9388C108.338 58.0499 106.393 56.7511 104.112 56.2658C103.059 56.0418 100.994 56.1309 100.005 56.4432C97.7928 57.1416 96.0614 58.6335 95.0556 60.708C94.3279 62.209 94.2187 62.7434 94.2168 64.8135C94.2155 66.3622 94.2473 66.7135 94.453 67.4233C95.2592 70.205 97.2327 72.2384 99.9562 73.0937C100.648 73.3108 100.944 73.3398 102.426 73.3349C103.963 73.3299 104.184 73.3048 104.953 73.0481C106.033 72.6872 107.237 71.9785 108.052 71.2242C108.865 70.4713 109.859 68.9924 110.16 68.0875C110.671 66.5526 110.682 66.3147 110.686 57.2159L110.69 48.6707L110.417 48.3468C110.059 47.9213 109.382 47.8852 109.019 48.2721ZM119.076 48.7649C116.973 49.1178 115.502 50.1397 114.794 51.7391C114.281 52.8984 114.269 53.1663 114.269 63.515V73.1987L114.577 73.5064C115.076 74.0051 115.793 73.9038 116.11 73.2899C116.248 73.0243 116.269 71.9854 116.269 65.6609V58.3394H119.527C122.754 58.3394 122.787 58.3372 123.057 58.1025C123.215 57.9651 123.355 57.7086 123.389 57.4915C123.438 57.1872 123.396 57.0542 123.166 56.7809L122.883 56.4445H119.565H116.247L116.288 54.8392C116.326 53.34 116.349 53.1899 116.632 52.5698C117.026 51.7079 117.619 51.1824 118.556 50.8674C119.139 50.6715 119.578 50.6176 120.95 50.5739C122.617 50.5208 122.633 50.5179 122.924 50.2272C123.332 49.8189 123.32 49.3614 122.89 48.9599L122.563 48.6545L121.074 48.667C120.255 48.6737 119.356 48.7178 119.076 48.7649Z" fill="#D3A62C"/>
<path id="Vector_2" fill-rule="evenodd" clip-rule="evenodd" d="M32.9829 0.0329563C26.2629 0.687 21.0814 2.47533 15.9291 5.91882C13.8398 7.31523 12.377 8.51763 10.5547 10.3366C4.57406 16.3062 1.03488 23.7704 0.129027 32.3238C-0.0818294 34.3156 -0.0256154 38.8227 0.234718 40.7936C1.12404 47.5265 3.49052 53.4394 7.33256 58.5276C12.9229 65.9316 20.965 70.4747 30.9301 71.8585C32.8659 72.1272 35.8505 72.3281 37.0543 72.2705C37.8762 72.2312 38.0336 72.1902 38.4294 71.9121C39.0554 71.472 39.3479 70.9138 39.3501 70.155C39.3528 69.174 38.7983 68.3539 37.9596 68.0984C37.77 68.0407 36.8332 67.9641 35.8778 67.9281C25.181 67.5258 16.6554 63.5226 10.9802 56.2372C5.39906 49.0726 3.03069 38.7409 4.87492 29.6023C6.07437 23.6585 8.93972 18.2393 13.1886 13.8791C15.3073 11.7048 17.3203 10.0943 19.6374 8.71932C30.8529 2.06446 44.7009 3.00957 54.9317 11.128C56.3474 12.2513 58.754 14.6575 59.8813 16.0767C64.221 21.5397 66.8265 28.724 66.8272 35.2289C66.8273 36.7071 66.6992 37.1212 66.0463 37.7541C65.1905 38.5834 63.7181 38.4697 62.9924 37.5183C62.5581 36.9489 62.4059 36.3599 62.4059 35.2482C62.4059 33.9619 62.1634 31.8785 61.8191 30.2074C60.7815 25.1711 58.1696 20.3562 54.4641 16.6491C50.1568 12.34 44.7437 9.69697 38.7201 8.96197C36.7562 8.72238 32.9882 8.79933 31.2191 9.11503C26.5727 9.94446 22.3948 11.8029 18.8767 14.6053C15.1438 17.5788 11.9446 22.0424 10.3149 26.551C9.82546 27.9049 9.21079 30.318 8.97404 31.8145C8.74665 33.252 8.65833 37.0889 8.81624 38.6694C9.5765 46.2766 13.4704 53.2204 19.5347 57.7828C23.7569 60.9593 28.8236 62.7888 34.2309 63.0893C38.3008 63.3154 41.2215 61.331 42.0224 57.7955C42.7013 54.7986 41.211 51.6286 38.5096 50.3231C37.3538 49.7647 36.9262 49.6705 34.999 49.5495C32.7508 49.4083 31.4781 49.0832 29.6373 48.1794C27.096 46.9318 24.8065 44.6557 23.5171 42.0952C21.6384 38.3645 21.5979 33.8365 23.4094 30.0192C24.6682 27.3665 27.1609 24.8709 29.8054 23.616C35.9926 20.68 43.2979 22.8658 47.0107 28.764C48.1955 30.6464 49.0341 33.5127 49.036 35.6866C49.0373 37.2594 48.0982 38.3037 46.6824 38.3037C45.9821 38.3037 45.4285 38.0415 44.9045 37.4616C44.4734 36.9843 44.3009 36.4803 44.3001 35.6948C44.2991 34.8915 44.0084 33.4961 43.6598 32.6226C42.6637 30.1262 40.6212 28.2589 37.9796 27.4294C37.2901 27.213 36.9871 27.183 35.5094 27.1853C33.8868 27.1879 33.7891 27.2004 32.8416 27.5287C31.3353 28.0505 30.2837 28.7216 29.2402 29.8268C27.6357 31.5264 26.7561 33.7272 26.8401 35.8318C26.8815 36.8692 27.0369 37.1963 27.7449 37.7362C28.083 37.9941 28.2124 38.0255 28.9383 38.0255C29.6896 38.0255 29.7834 38.0005 30.1503 37.7036C30.8291 37.1543 30.9347 36.9356 31.0879 35.763C31.3408 33.8284 32.1919 32.5715 33.749 31.834C34.4074 31.5221 34.5336 31.4991 35.562 31.5027C36.5769 31.5064 36.7256 31.5339 37.3785 31.8384C38.3052 32.2709 39.1492 33.1094 39.5764 34.0223C39.8393 34.5841 39.9155 34.9233 39.9966 35.8933C40.1595 37.8409 40.5045 38.8586 41.4102 40.0636C43.4794 42.8161 47.4581 43.4745 50.3469 41.5422C53.0318 39.7465 53.8906 36.7454 52.9806 32.3394C51.6695 25.9921 47.129 20.8426 41.1028 18.8685C36.6249 17.4017 31.8289 17.7579 27.6141 19.8704C25.8547 20.7522 24.5697 21.6946 23.03 23.2321C19.0469 27.2093 17.1917 32.6985 17.9293 38.3242C18.7211 44.3647 22.3794 49.4711 27.8247 52.1365C29.9746 53.1889 32.004 53.7096 34.5971 53.8742C35.9428 53.9596 36.1648 54.0015 36.6493 54.2614C38.0601 55.0184 38.302 56.9336 37.1276 58.0478C36.5391 58.6061 36.0808 58.7394 34.7725 58.7324C31.8606 58.717 28.7437 57.9307 25.7193 56.4486C23.2056 55.2168 21.3161 53.8417 19.3929 51.8444C15.2465 47.5382 13.0007 41.9865 12.9942 36.0254C12.99 32.2668 13.6995 29.1855 15.3453 25.8141C18.782 18.7743 25.4095 14.1416 33.3513 13.2276C34.7149 13.0708 37.638 13.1545 39.0345 13.3904C42.9616 14.0539 46.6283 15.6962 49.6682 18.1531C50.7055 18.9915 52.6193 20.966 53.4237 22.0279C54.9652 24.0629 56.1279 26.2679 56.9282 28.6737C57.7115 31.029 58.0112 32.7208 58.1463 35.5516C58.2264 37.2292 58.395 38.067 58.8286 38.9408C59.6718 40.6403 60.9769 41.8027 62.6691 42.3616C63.8075 42.7375 65.3664 42.7618 66.4588 42.4206C68.4716 41.7918 70.0239 40.2673 70.7686 38.188C71.0872 37.2983 71.0906 37.2665 71.0848 35.2358C71.0513 23.6811 65.0012 12.5139 55.22 5.95325C50.6295 2.8743 45.6556 1.00513 39.9834 0.227601C38.8362 0.0703271 33.9847 -0.0645239 32.9829 0.0329563Z" fill="#D3A62C"/>
<path id="Vector_3" fill-rule="evenodd" clip-rule="evenodd" d="M51.4624 47.7369C49.4367 48.1659 47.9624 49.2483 47.1909 50.8728C46.5022 52.3231 46.5073 52.227 46.539 63.1212L46.5674 72.926L46.8932 73.3305C47.6299 74.2451 48.9867 74.1381 49.5428 73.1214C49.7095 72.8167 49.7301 72.1665 49.7781 65.6818L49.8308 58.5761L52.831 58.5234C55.7624 58.472 55.839 58.4652 56.1749 58.2256C57.0965 57.5683 57.0965 56.2152 56.1749 55.5579C55.8368 55.3168 55.7806 55.3122 52.7891 55.2804L49.7471 55.2481L49.8108 54.2277C49.9823 51.4764 50.6925 50.9107 54.1468 50.7736C55.4993 50.7199 55.8934 50.6692 56.147 50.5168C56.6005 50.2442 56.8717 49.7251 56.8717 49.1298C56.8717 48.5626 56.6533 48.1919 56.0954 47.8122C55.7666 47.5884 55.648 47.5758 53.947 47.5837C52.853 47.5888 51.8783 47.6489 51.4624 47.7369ZM62.2526 55.0906C58.4481 55.7229 55.6792 58.5503 54.9856 62.5112C54.1167 67.4727 56.9203 72.1384 61.5157 73.3784C62.6248 73.6777 64.9368 73.7077 66.0305 73.4371C66.8788 73.2271 67.8926 72.7147 68.7794 72.0476L69.411 71.5725L69.4767 72.18C69.5606 72.9556 69.6805 73.2402 70.0845 73.623C70.3501 73.8745 70.5236 73.94 71.0163 73.9745C71.5209 74.0097 71.6821 73.9757 71.9844 73.7703C72.1839 73.6347 72.4445 73.3581 72.5634 73.1557C72.7727 72.7993 72.7797 72.6395 72.7786 68.1557C72.7775 63.298 72.7183 62.4432 72.2912 61.1286C71.9441 60.0602 71.483 59.2178 70.7407 58.2963C68.7316 55.8022 65.4432 54.5603 62.2526 55.0906ZM81.9382 55.0538C79.4842 55.4355 77.3994 56.7327 75.9293 58.7929C74.9149 60.2146 74.4621 61.6507 74.3049 63.9449C74.1631 66.0136 74.169 79.5842 74.3118 79.9654C74.4697 80.3869 75.211 81.0338 75.6252 81.1115C76.2793 81.2341 77.0768 80.7627 77.4515 80.0318C77.5327 79.8735 77.5695 78.5051 77.5695 75.641V71.4801L78.28 72.0199C79.8715 73.2288 81.5608 73.7467 83.5699 73.6414C87.3755 73.442 90.2825 71.31 91.6196 67.7377C92.4546 65.5068 92.3514 62.325 91.3741 60.1696C90.5065 58.2563 88.7917 56.5264 86.9569 55.7138C85.604 55.1146 83.4062 54.8256 81.9382 55.0538ZM62.4919 58.3713C61.5931 58.5892 60.8621 59.0028 60.1247 59.711C59.2903 60.5121 58.8798 61.152 58.5388 62.1822C58.307 62.8828 58.2691 63.1825 58.2695 64.3133C58.2699 65.4631 58.3054 65.7325 58.5506 66.447C58.9017 67.4703 59.2216 67.9912 59.9748 68.7668C61.0861 69.9108 62.196 70.3497 63.9896 70.3543C65.2349 70.3576 65.822 70.17 66.7207 69.4819C68.2624 68.3013 68.6977 68.1216 69.2719 68.4289C69.4871 68.5441 69.4874 68.5394 69.4365 65.9288C69.3802 63.04 69.2794 62.4608 68.5881 61.0509C68.1773 60.213 67.1925 59.1819 66.4391 58.8006C65.3183 58.2334 63.76 58.0639 62.4919 58.3713ZM81.8226 58.3641C79.9399 58.7737 78.4703 60.3218 77.824 62.5763C77.6786 63.0834 77.634 63.7827 77.5976 66.1238L77.5522 69.0397L77.9768 68.8346C78.6572 68.5058 78.9193 68.5631 80.0055 69.2775C81.5491 70.2931 81.7546 70.3662 83.0435 70.3593C84.8837 70.3493 86.0538 69.8706 87.2197 68.6507C88.2471 67.5754 88.8297 66.0061 88.8297 64.3133C88.8297 60.2728 85.6108 57.5399 81.8226 58.3641ZM97.3779 82.2246C96.8326 82.4945 96.4614 83.0191 96.3088 83.7357C96.2457 84.0314 96.2094 85.0922 96.2258 86.1569L96.2549 88.0517L96.642 88.0839L97.0291 88.1162L97.0631 85.9259C97.0938 83.9433 97.1175 83.7007 97.313 83.3672C97.5977 82.8813 98.1413 82.686 98.6971 82.8699C99.1472 83.0189 99.4207 83.4173 99.5264 84.0783L99.5979 84.5252H98.4264H97.255V84.9463V85.3673H98.4129H99.5709V86.7422V88.1171L99.9657 88.0844L100.36 88.0517L100.39 86.1569C100.422 84.0724 100.331 83.4167 99.9283 82.8062C99.4242 82.0426 98.275 81.7805 97.3779 82.2246ZM48.2711 82.2565C48.0501 82.3352 47.7711 82.4872 47.6512 82.594C47.2005 82.9954 47.1464 83.3375 47.1464 85.7851V88.1044H47.5148H47.8833V86.7885V85.4726H48.9886H50.0939V85.1078V84.7431L49.0149 84.7131L47.9359 84.6831L47.907 84.262C47.8431 83.3273 48.3837 82.8593 49.5413 82.8468L50.0939 82.8409V82.4724V82.104L49.3834 82.1086C48.9926 82.1111 48.492 82.1777 48.2711 82.2565ZM62.9369 84.2673C62.9369 86.5794 62.8854 86.8546 62.3877 87.2032C62.0159 87.4636 61.3244 87.4143 60.9518 87.1008C59.7234 86.0672 60.9351 84.0544 62.3436 84.789C62.5095 84.8755 62.6634 84.9463 62.6857 84.9463C62.708 84.9463 62.7264 84.759 62.7264 84.5301C62.7264 84.1389 62.7027 84.1075 62.3316 84.0044C61.765 83.847 61.365 83.871 60.8798 84.0915C60.054 84.4665 59.6137 85.276 59.6959 86.2676C59.7873 87.3697 60.5875 88.1046 61.6958 88.1042C62.3802 88.104 62.8685 87.8686 63.2979 87.3317L63.6211 86.9273L63.6529 84.5157L63.6848 82.104H63.3108H62.9369V84.2673ZM87.6754 84.2025C87.6754 85.3567 87.6285 86.4244 87.5712 86.5751C87.3925 87.0451 86.9554 87.3675 86.4968 87.3675C85.674 87.3675 85.1484 86.8246 85.1493 85.976C85.1504 85.0177 86.2448 84.3316 87.0438 84.7884C87.4299 85.0091 87.4648 84.9876 87.4648 84.5293C87.4648 84.1279 87.4481 84.1077 87.0185 83.992C85.5969 83.6092 84.3762 84.5713 84.3896 86.0639C84.3959 86.7609 84.6504 87.2917 85.1866 87.7256C85.9106 88.3116 87.2798 88.2013 87.9082 87.5064C88.3504 87.0175 88.4123 86.6258 88.4123 84.318V82.104H88.0438H87.6754V84.2025ZM120.852 82.2882C120.937 82.3895 121.209 82.7211 121.457 83.0251C121.715 83.3409 121.994 83.5778 122.109 83.5778C122.378 83.5778 122.369 83.5412 121.919 82.7712C121.544 82.1304 121.512 82.104 121.113 82.104C120.729 82.104 120.709 82.1179 120.852 82.2882ZM75.4269 82.5743C75.2866 82.6805 75.1589 82.6944 74.9725 82.6236C74.4778 82.4355 74.0219 82.5042 73.7874 82.8024C73.6674 82.955 73.5692 83.1445 73.5692 83.2235C73.5692 83.419 73.8623 83.405 74.0676 83.1996C74.1877 83.0794 74.3272 83.0528 74.5602 83.1055C74.7388 83.1459 74.9901 83.2029 75.1184 83.232C75.283 83.2695 75.4459 83.191 75.6711 82.9658C75.8467 82.7902 75.9904 82.5955 75.9904 82.5332C75.9904 82.3739 75.6595 82.398 75.4269 82.5743ZM111.226 82.4849C111.065 82.6459 111.153 83.1504 111.361 83.2619C111.705 83.4459 112.012 83.2175 111.973 82.8076C111.945 82.52 111.895 82.468 111.621 82.4411C111.445 82.4239 111.267 82.4437 111.226 82.4849ZM56.2093 84.1211C55.4691 84.629 55.4138 84.7893 55.3762 86.5326L55.3423 88.1044H55.7183H56.0943V86.7832C56.0943 85.3254 56.2138 84.9104 56.6852 84.7312C57.0984 84.5741 57.3218 84.6098 57.6412 84.8842C57.9327 85.1345 57.9373 85.157 57.9892 86.5948L58.0418 88.0517H58.4103H58.7787L58.7752 86.5779C58.7713 84.9332 58.6817 84.6275 58.0766 84.1966C57.569 83.8352 56.6785 83.7991 56.2093 84.1211ZM65.6991 84.0676C64.465 84.6759 64.1429 86.3796 65.0637 87.4283C65.5083 87.9349 65.8793 88.1047 66.5371 88.1028C67.3261 88.1006 67.6135 87.9311 67.654 87.444C67.6899 87.0136 67.6434 86.9864 67.253 87.2096C66.9443 87.386 66.4301 87.4096 66.0493 87.2648C65.4482 87.0363 65.1604 85.9498 65.5178 85.2586C65.8126 84.6887 66.5467 84.4776 67.1498 84.7894C67.6355 85.0407 67.7223 85.3086 67.7793 86.7359L67.832 88.0517L68.2391 88.0851L68.6463 88.1186L68.6047 86.6953C68.5644 85.3177 68.5531 85.2575 68.2487 84.8196C67.6788 83.9995 66.5267 83.6595 65.6991 84.0676ZM73.8201 84.0949C72.6299 84.6355 72.2841 86.3387 73.1512 87.3905C73.6901 88.0445 74.6051 88.2827 75.4484 87.9888C75.7428 87.8861 75.7799 87.8279 75.7799 87.4678V87.0624L75.4148 87.2149C74.1023 87.7634 73.0123 86.614 73.6235 85.326C74.1047 84.3119 75.5794 84.4711 75.8847 85.5701C75.9422 85.7771 75.9895 86.4318 75.9898 87.0253L75.9904 88.1044H76.3588H76.7273L76.725 86.8148C76.7231 85.7848 76.6834 85.4405 76.5277 85.1042C76.027 84.0228 74.9022 83.6035 73.8201 84.0949ZM78.7801 84.0527C77.9642 84.4917 77.5695 85.1456 77.5695 86.0582C77.5695 86.8465 77.9161 87.4638 78.5758 87.8505C78.9855 88.0906 79.1412 88.1227 79.7183 88.0859C80.5163 88.0351 81.0241 87.7085 81.3752 87.0203C81.851 86.0876 81.5379 84.7858 80.7052 84.2347C80.1775 83.8855 79.2534 83.7981 78.7801 84.0527ZM90.463 84.0345C90.0995 84.1995 89.4978 84.8463 89.3527 85.228C89.1695 85.7099 89.238 86.5664 89.4995 87.0615C90.0457 88.0956 91.4312 88.464 92.349 87.819C92.9955 87.3646 93.549 86.2128 93.1231 86.208C93.0508 86.2073 92.8896 86.1793 92.7651 86.1459C92.5788 86.0959 92.5264 86.1412 92.4691 86.4021C92.3816 86.8004 91.9881 87.2326 91.6313 87.3222C90.2987 87.6567 89.4492 85.9006 90.4766 84.9354C90.8017 84.63 91.6675 84.5773 91.9368 84.8465C92.0845 84.9942 92.0115 85.0589 91.1773 85.5196C90.6698 85.7999 90.2409 86.04 90.2243 86.0532C90.1636 86.1011 90.4488 86.6306 90.5353 86.6306C90.606 86.6306 92.9993 85.3163 93.1309 85.2051C93.241 85.1122 92.7627 84.4813 92.4001 84.2413C91.8916 83.9047 90.9664 83.806 90.463 84.0345ZM102.73 84.0613C102.281 84.2557 101.924 84.5789 101.693 84.9989C101.551 85.2584 101.513 85.7226 101.484 87.6043L101.448 89.894H101.878H102.308V87.7307C102.308 85.3456 102.363 85.0864 102.936 84.7901C103.824 84.3307 104.729 84.9408 104.729 85.999C104.729 86.4988 104.515 86.9686 104.18 87.2032C103.889 87.4068 103.185 87.4102 102.834 87.2096C102.455 86.9925 102.413 87.0119 102.413 87.4073C102.413 87.8506 102.6 88.0104 103.196 88.0776C103.891 88.1559 104.373 88.0283 104.801 87.6527C105.781 86.7921 105.815 85.2791 104.874 84.4003C104.315 83.8785 103.462 83.7437 102.73 84.0613ZM107.382 84.1176C106.145 84.7302 105.83 86.3797 106.751 87.4283C107.2 87.9396 107.566 88.1044 108.256 88.1044C108.943 88.1044 109.312 87.9395 109.755 87.4345C111.251 85.7312 109.387 83.1254 107.382 84.1176ZM114.046 84.0866C112.629 84.7605 112.41 86.6025 113.62 87.6654C114.077 88.0663 114.354 88.1442 115.104 88.0819C116.956 87.9284 117.562 85.2877 115.985 84.2439C115.423 83.8724 114.631 83.8082 114.046 84.0866ZM120.748 84.1135C119.795 84.5977 119.394 85.907 119.87 86.9825C120.272 87.8923 121.395 88.3388 122.399 87.9888C122.695 87.8856 122.73 87.8289 122.73 87.4597V87.0463L122.42 87.2068C121.16 87.8582 119.865 86.4245 120.654 85.2528C121.242 84.3812 122.304 84.4402 122.785 85.3714C122.896 85.5864 122.941 86.021 122.941 86.8885V88.1044H123.309H123.678V86.7691C123.678 85.6236 123.646 85.3683 123.455 84.9726C122.993 84.0189 121.726 83.6168 120.748 84.1135ZM50.9363 85.4463C50.9364 87.0885 51.0461 87.4538 51.6622 87.8654C52.144 88.1872 53.027 88.1956 53.5324 87.8832C54.1667 87.4912 54.3047 87.0518 54.3047 85.4242V83.9988H53.9363H53.5678V85.3755V86.7521L53.2601 87.0598C52.9331 87.3868 52.5924 87.4461 52.1632 87.2506C51.76 87.0669 51.673 86.7222 51.673 85.3098V83.9988H51.3045H50.9361L50.9363 85.4463ZM70.5568 84.2002C69.3302 84.7572 69.0131 86.4607 69.9597 87.4073C70.1655 87.6131 70.4952 87.8347 70.6924 87.8998C70.9901 87.998 71.0399 88.0567 70.9857 88.2454C70.95 88.3705 70.8976 88.5557 70.8693 88.657C70.8319 88.7909 70.8793 88.8413 71.0425 88.8413C71.3526 88.8413 71.6743 89.0289 71.6743 89.2097C71.6743 89.4802 71.2902 89.5944 70.7254 89.4917C70.2207 89.4 70.2005 89.4056 70.2005 89.6376C70.2005 89.8505 70.2673 89.8871 70.7682 89.9498C71.6961 90.0657 72.2007 89.8018 72.2007 89.2009C72.2007 88.7954 72.0059 88.5687 71.5761 88.4744C71.1478 88.3803 71.2694 88.1249 71.7623 88.0838C72.1098 88.0549 72.1512 88.0189 72.1803 87.7203C72.2119 87.3941 72.2035 87.3877 71.6539 87.3132C71.3467 87.2716 70.9659 87.1713 70.8076 87.0902C70.2194 86.7889 70.0117 85.8464 70.4193 85.3283C70.72 84.9458 71.0057 84.806 71.6217 84.7397C72.1249 84.6856 72.1495 84.668 72.181 84.341L72.214 83.9988L71.602 84.0011C71.2337 84.0025 70.8176 84.0818 70.5568 84.2002ZM111.175 86.0253L111.203 88.0517H111.572H111.94L111.969 86.0253L111.997 83.9988H111.572H111.146L111.175 86.0253ZM78.9418 84.8599C78.2028 85.3616 78.1265 86.3666 78.7778 87.0179C79.2326 87.4726 79.8138 87.5028 80.2965 87.0965C81.5345 86.0549 80.2661 83.9608 78.9418 84.8599ZM107.454 85.0391C107.091 85.4023 107.045 85.5049 107.046 85.9602C107.047 86.7798 107.549 87.36 108.256 87.36C109.514 87.36 109.941 85.4588 108.83 84.8027C108.331 84.5074 107.914 84.579 107.454 85.0391ZM114.284 84.7952C113.462 85.2409 113.476 86.779 114.305 87.2078C114.813 87.4701 115.212 87.4106 115.653 87.0071C116.025 86.6657 116.046 86.6126 116.046 85.999C116.046 85.3853 116.025 85.3322 115.653 84.9908C115.214 84.5888 114.779 84.5266 114.284 84.7952ZM48.5058 92.2053C48.0384 92.3469 47.6739 92.644 47.4052 93.1026C47.1513 93.5358 47.1464 93.5891 47.1464 95.8773V98.2103H47.5148H47.8833L47.8858 96.2365C47.8871 95.1509 47.9312 94.0779 47.9836 93.852C48.1121 93.2977 48.3978 93.0393 48.9505 92.9775C49.5242 92.9134 49.9283 93.1948 50.1038 93.7805C50.3322 94.5425 49.8063 95.1263 48.7982 95.2303C48.2006 95.292 48.1991 95.2932 48.1991 95.6459V95.9996H48.8501C50.028 95.9996 50.8748 95.3424 51.0117 94.3219C51.1905 92.9885 49.7993 91.8133 48.5058 92.2053ZM85.0957 92.3415C85.0702 92.4139 85.0362 93.453 85.0202 94.6508L84.991 96.8284L84.6831 97.1496C83.9436 97.9209 82.7132 97.4859 82.6217 96.4207C82.549 95.5741 82.8676 95.0396 83.5705 94.829C83.9213 94.724 84.035 94.7362 84.4049 94.9193L84.8331 95.1311V94.678V94.225L84.2804 94.1138C83.606 93.9781 83.0655 94.0879 82.5779 94.4599C81.6375 95.1772 81.5171 96.7871 82.338 97.6662C83.1472 98.533 84.7876 98.4326 85.4373 97.4767C85.8231 96.9091 85.8846 96.4709 85.8852 94.289L85.8858 92.2099H85.5141C85.3095 92.2099 85.1213 92.2692 85.0957 92.3415ZM93.7811 95.1942V98.2103H94.1477H94.5143L94.5425 95.6049L94.5706 92.9994L95.0661 93.0161C95.7687 93.0397 96.2729 93.2319 96.7403 93.6541C97.1868 94.0574 97.3588 94.513 97.3596 95.2943C97.361 96.4 96.5636 97.234 95.3338 97.4134C94.844 97.4848 94.8338 97.4939 94.8338 97.8633V98.2403L95.4648 98.1743C96.2737 98.0898 96.7039 97.9062 97.251 97.4118C97.9649 96.7668 98.1481 96.3178 98.149 95.2101C98.1497 94.367 98.1181 94.2089 97.8624 93.7737C97.2488 92.7299 96.4729 92.3306 94.8839 92.2406L93.7811 92.1782V95.1942ZM123.155 92.3313C122.634 92.484 122.256 92.7827 122.059 93.1974C121.917 93.496 121.888 93.9556 121.888 95.8839V98.2103H122.253H122.619L122.648 96.9207L122.678 95.6312L123.757 95.6012L124.836 95.5712V95.2064V94.8417H123.73H122.625L122.626 94.5522C122.627 94.0809 122.821 93.5189 123.057 93.3047C123.215 93.1619 123.493 93.0896 124.031 93.0521L124.783 92.9994V92.631V92.2625L124.152 92.2435C123.804 92.233 123.356 92.2725 123.155 92.3313ZM133.554 94.4657C133.516 97.0327 133.472 97.1771 132.647 97.4687C132.257 97.6064 132.176 97.6038 131.84 97.4437C130.752 96.9249 130.806 95.2803 131.925 94.8543C132.294 94.7139 132.368 94.7192 132.845 94.9205L133.363 95.1394V94.731C133.363 94.2787 133.249 94.1783 132.601 94.0615C132.064 93.9647 131.434 94.1538 130.987 94.546C130.451 95.0166 130.274 95.4214 130.272 96.1765C130.269 97.4215 131.1 98.2678 132.31 98.2516C133.202 98.2396 133.81 97.8346 134.147 97.0279C134.277 96.7179 134.31 96.1842 134.31 94.4239V92.2099H133.949H133.588L133.554 94.4657ZM147.785 95.2101V98.2103H148.153H148.522V95.2101V92.2099H148.153H147.785V95.2101ZM69.4685 92.6778C69.1691 93.0386 69.582 93.6484 69.9637 93.4094C70.1919 93.2665 70.2677 92.7384 70.0774 92.6177C69.8649 92.4831 69.6091 92.5083 69.4685 92.6778ZM99.21 92.6911C99.0045 92.8967 99.0044 92.9477 99.2085 93.2391C99.4855 93.6348 99.992 93.4799 99.992 92.9994C99.992 92.5561 99.528 92.3732 99.21 92.6911ZM110.54 92.652C110.258 92.9338 110.464 93.4731 110.853 93.4731C111.145 93.4731 111.403 93.0105 111.26 92.7433C111.131 92.5033 110.739 92.4535 110.54 92.652ZM104.748 95.1838C104.776 96.9621 104.811 97.3564 104.956 97.5621C105.239 97.9611 105.541 98.1171 106.153 98.1803L106.729 98.2398V97.8566C106.729 97.505 106.704 97.4734 106.428 97.4734C106.262 97.4734 106.001 97.3752 105.849 97.2552C105.581 97.0444 105.571 96.9998 105.571 95.9393V94.8417H106.15H106.729V94.4732V94.1048H106.15H105.571V93.5784V93.0521H105.142H104.714L104.748 95.1838ZM112.327 95.1838C112.356 96.9621 112.39 97.3564 112.536 97.5621C112.819 97.9611 113.12 98.1171 113.732 98.1803L114.309 98.2398V97.8566C114.309 97.5201 114.277 97.4734 114.051 97.4734C113.286 97.4734 113.047 97.0416 113.046 95.6575L113.046 94.8417H113.677H114.309V94.4732V94.1048H113.677H113.046V93.5784V93.0521H112.669H112.293L112.327 95.1838ZM52.9031 94.1007C51.2462 94.6308 50.9468 96.9232 52.4007 97.9471C52.7817 98.2155 52.9466 98.2629 53.4979 98.2627C54.0077 98.2626 54.2202 98.2103 54.4892 98.0186C54.9714 97.6749 55.3572 97.1349 55.4268 96.7065C55.4841 96.3533 55.4739 96.3398 55.1159 96.298C54.7669 96.2572 54.7391 96.2772 54.628 96.6479C54.4656 97.1899 54.075 97.4734 53.4905 97.4734C53.0984 97.4734 52.9624 97.4154 52.6708 97.1238C52.1803 96.6332 52.1059 96.1428 52.4246 95.5014C52.7922 94.7618 53.5327 94.5373 54.1401 94.9816C54.3306 95.1209 54.2933 95.1583 53.5611 95.5603C52.3507 96.2249 52.3477 96.2279 52.558 96.5489L52.734 96.8175L54.0457 96.0821C54.7672 95.6775 55.3571 95.3159 55.3567 95.2783C55.3549 95.1003 54.9261 94.591 54.5803 94.356C54.1549 94.0669 53.3783 93.9487 52.9031 94.1007ZM61.3413 94.0981C60.8528 94.2527 60.4612 94.5344 60.195 94.9229C59.9722 95.2481 59.9367 95.4191 59.9367 96.1664C59.9367 96.9786 59.9571 97.0581 60.2637 97.4373C60.7417 98.0287 61.1729 98.2454 61.8718 98.2454C62.6989 98.2454 62.9369 98.0969 62.9369 97.5809V97.1694L62.4644 97.3785C62.0678 97.5539 61.925 97.5694 61.5752 97.4753C60.5046 97.187 60.2946 95.613 61.2418 94.9767C61.6826 94.6806 62.0418 94.6728 62.4958 94.9497C63.0756 95.3032 63.1474 95.633 63.1474 97.9438V99.9999H63.5215H63.8955L63.8636 97.6408L63.8317 95.2818L63.5047 94.8774C63.3249 94.6551 63.0407 94.394 62.8731 94.2973C62.4981 94.0809 61.7169 93.9793 61.3413 94.0981ZM76.5694 94.0489C76.5115 94.0695 76.3347 94.1149 76.1765 94.1497C75.7907 94.2348 75.1502 94.8111 74.9746 95.2314C74.78 95.6973 74.7947 96.6724 75.0026 97.0839C75.4059 97.8821 75.9766 98.2441 76.833 98.2448C77.6469 98.2456 77.8853 98.0952 77.8853 97.5809V97.1694L77.4233 97.3738C76.6154 97.7312 75.9238 97.399 75.6629 96.5284C75.4825 95.9261 75.6912 95.3119 76.1902 94.9767C76.6092 94.6952 76.9329 94.674 77.3688 94.8994C77.9609 95.2056 78.095 95.5882 78.0954 96.9734L78.0958 98.2103H78.4722H78.8486L78.8144 96.7459C78.7802 95.2862 78.779 95.2802 78.4531 94.8773C78.2733 94.6551 77.9891 94.3949 77.8215 94.2992C77.519 94.1265 76.7713 93.977 76.5694 94.0489ZM88.0438 94.153C87.4879 94.3558 86.8785 95.0194 86.7252 95.5885C86.3149 97.1128 87.6663 98.581 89.1391 98.2108C90.1884 97.947 90.7875 97.1001 90.7074 95.9932C90.6077 94.6146 89.2841 93.7001 88.0438 94.153ZM109.021 94.0909C108.863 94.1275 108.638 94.2398 108.521 94.3406C108.318 94.5158 108.308 94.5148 108.308 94.3143C108.308 94.145 108.238 94.1048 107.94 94.1048H107.571V96.1575V98.2103H107.929H108.287L108.324 96.8502C108.359 95.5756 108.377 95.4728 108.62 95.2144C108.762 95.0628 109.082 94.8877 109.331 94.8251C109.751 94.7192 109.782 94.6869 109.782 94.3554C109.782 93.9731 109.681 93.9381 109.021 94.0909ZM116.337 94.1019C115.453 94.3117 114.834 95.1699 114.837 96.1796C114.839 96.9372 115.131 97.4966 115.754 97.934C116.121 98.1923 116.301 98.2453 116.806 98.2448C117.513 98.2442 117.934 98.0575 118.385 97.5429C119.12 96.7065 119.04 95.3462 118.212 94.5985C117.635 94.0768 117.071 93.9276 116.337 94.1019ZM126.776 94.1988C126.214 94.4538 125.721 95.0655 125.57 95.6939C125.265 96.9667 126.309 98.3156 127.6 98.3156C128.401 98.3156 129.37 97.4891 129.53 96.6703C129.591 96.356 129.577 96.3389 129.216 96.2968C128.868 96.2562 128.83 96.2795 128.725 96.5964C128.441 97.4554 127.382 97.7661 126.75 97.1756C125.613 96.1136 126.954 94.1016 128.212 94.9825C128.423 95.1303 128.394 95.158 127.53 95.6287C127.034 95.8991 126.602 96.1633 126.569 96.2157C126.496 96.3346 126.703 96.7365 126.837 96.7365C126.973 96.7365 129.468 95.3424 129.468 95.2663C129.468 95.2328 129.317 95.0227 129.133 94.7994C128.748 94.3318 128.105 94.0041 127.573 94.0041C127.37 94.0041 127.011 94.0917 126.776 94.1988ZM136.484 94.1531C135.667 94.4444 135.122 95.2531 135.122 96.1738C135.122 96.8656 135.404 97.4226 135.977 97.8616C136.992 98.6396 138.353 98.3128 138.947 97.1485C139.255 96.5448 139.221 96.3354 138.81 96.2958C138.495 96.2653 138.451 96.3009 138.24 96.7544C137.981 97.3134 137.751 97.4734 137.207 97.4734C136.615 97.4734 136.249 97.2271 136.044 96.6906C135.613 95.5633 136.467 94.4937 137.519 94.8411C137.721 94.9078 137.911 95.0026 137.942 95.0518C137.972 95.101 137.653 95.3318 137.233 95.5645C136.081 96.202 136.047 96.2337 136.218 96.5073C136.296 96.6335 136.403 96.7365 136.455 96.7365C136.618 96.7365 139.047 95.3479 139.047 95.2543C139.047 95.0552 138.338 94.3753 137.943 94.1958C137.442 93.9684 137.036 93.9565 136.484 94.1531ZM141.471 94.1071C141.27 94.1545 141.021 94.297 140.918 94.4238L140.732 94.6545V94.3796C140.732 94.1357 140.69 94.1048 140.363 94.1048H139.995V96.1575V98.2103H140.416H140.837V96.9418C140.837 95.2477 140.978 94.9675 141.916 94.7981C142.282 94.732 142.311 94.7006 142.311 94.3632C142.311 93.9628 142.212 93.9328 141.471 94.1071ZM144.128 94.0974C143.642 94.2192 143.109 94.6589 142.882 95.1253C142.627 95.6473 142.628 96.6579 142.883 97.1472C143.345 98.0347 144.327 98.4641 145.258 98.1859C145.715 98.0494 145.733 98.0279 145.765 97.595L145.797 97.1456L145.453 97.3239C144.752 97.6862 143.928 97.4672 143.602 96.8317C143.53 96.6925 143.471 96.3552 143.47 96.0823C143.467 95.1365 144.337 94.5245 145.182 94.8774C145.772 95.1243 145.89 95.4671 145.89 96.9418V98.2103H146.321H146.753L146.716 96.798C146.68 95.4252 146.67 95.3733 146.364 94.9388C145.866 94.2353 144.952 93.891 144.128 94.0974ZM56.7786 94.2042C56.3958 94.361 56.1517 94.7321 56.1517 95.1575C56.1517 95.7082 56.3979 95.9528 57.4401 96.4377C58.8586 97.0976 58.7259 97.4734 57.0743 97.4734H56.0943V97.8419V98.2103H57.0923C58.3398 98.2103 58.8955 98.0187 59.1054 97.5163C59.2849 97.0869 59.1985 96.6109 58.8883 96.3194C58.7588 96.1978 58.2785 95.9408 57.821 95.7484C57.111 95.4497 56.9891 95.3616 56.9891 95.1464C56.9891 94.8998 57.0113 94.8937 58.0155 94.8642L59.0419 94.8341V94.4694V94.1048L58.0155 94.1114C57.451 94.1151 56.8944 94.1569 56.7786 94.2042ZM64.8364 95.2364C64.8435 97.0047 65.0007 97.513 65.7028 98.0371C65.9078 98.1903 66.1482 98.2454 66.6107 98.2454C67.1374 98.2454 67.3026 98.1975 67.6259 97.9508C68.2099 97.5054 68.3057 97.1642 68.3057 95.5293V94.1048H67.9452H67.5847L67.5505 95.5881C67.5178 96.9998 67.5041 97.0812 67.2676 97.2724C67.0227 97.4705 66.4853 97.5358 66.1524 97.408C65.7878 97.2681 65.6739 96.7962 65.6739 95.4259V94.1048H65.2528H64.8318L64.8364 95.2364ZM69.3584 96.1575V98.2103H69.7795H70.2005V96.1575V94.1048H69.7795H69.3584V96.1575ZM71.7796 94.1791C71.3644 94.3309 71.148 94.6662 71.148 95.1575C71.148 95.7711 71.3324 95.9571 72.4388 96.4598C73.2825 96.8431 73.4761 97.0471 73.2522 97.3169C73.1533 97.436 72.8744 97.4734 72.0826 97.4734H71.0427V97.8419V98.2103L72.0691 98.2044C73.3843 98.1967 73.7738 98.067 74.025 97.5528C74.4092 96.7665 74.0862 96.3023 72.7693 95.7484C72.0594 95.4497 71.9375 95.3616 71.9375 95.1464C71.9375 94.8998 71.9597 94.8937 72.9639 94.8642L73.9903 94.8341V94.4694V94.1048L72.9639 94.1131C72.3994 94.1176 71.8664 94.1474 71.7796 94.1791ZM99.1498 96.1575V98.2103H99.5709H99.992V96.1575V94.1048H99.5709H99.1498V96.1575ZM101.401 94.2714C101.062 94.4385 100.834 94.7992 100.834 95.1677C100.834 95.6181 101.139 95.9795 101.754 96.256C103.177 96.8965 103.295 96.9972 102.989 97.3033C102.857 97.4358 102.6 97.4734 101.827 97.4734H100.834V97.8419V98.2103L101.755 98.2097C103.354 98.2087 103.887 97.9251 103.887 97.0748C103.887 96.4745 103.546 96.1417 102.496 95.7169C101.839 95.451 101.729 95.37 101.729 95.1505C101.729 94.8998 101.75 94.8937 102.703 94.864L103.676 94.8338V94.4692V94.1048L102.703 94.1072C102.043 94.1088 101.623 94.1618 101.401 94.2714ZM110.414 96.1575V98.2103H110.835H111.256V96.1575V94.1048H110.835H110.414V96.1575ZM88.098 94.9679C87.651 95.2707 87.4684 95.6085 87.4664 96.1365C87.4633 96.9452 87.9495 97.4734 88.6973 97.4734C89.8487 97.4734 90.3546 95.9572 89.482 95.1213C89.0543 94.7113 88.5578 94.6564 88.098 94.9679ZM116.315 94.9287C115.929 95.1359 115.572 95.6892 115.572 96.0804C115.572 97.2372 116.9 97.9183 117.665 97.1535C118.283 96.536 118.19 95.455 117.478 94.9767C117.045 94.6861 116.788 94.6754 116.315 94.9287Z" fill="#355D77"/>
</g>
</svg>
