<svg width="17" height="20" viewBox="0 0 17 20" fill="none" xmlns="http://www.w3.org/2000/svg">
<g id="icon-map">
<path id="Vector" d="M15.7273 8.36364C15.7273 14.0909 8.36364 19 8.36364 19C8.36364 19 1 14.0909 1 8.36364C1 6.41068 1.77581 4.53771 3.15676 3.15676C4.53771 1.77581 6.41068 1 8.36364 1C10.3166 1 12.1896 1.77581 13.5705 3.15676C14.9515 4.53771 15.7273 6.41068 15.7273 8.36364Z" stroke="#FED150" stroke-width="1.63636" stroke-linecap="round" stroke-linejoin="round"/>
<path id="Vector_2" d="M8.36373 10.8183C9.71933 10.8183 10.8183 9.71933 10.8183 8.36373C10.8183 7.00812 9.71933 5.90918 8.36373 5.90918C7.00812 5.90918 5.90918 7.00812 5.90918 8.36373C5.90918 9.71933 7.00812 10.8183 8.36373 10.8183Z" stroke="#FED150" stroke-width="1.63636" stroke-linecap="round" stroke-linejoin="round"/>
</g>
</svg>
