<svg width="73" height="70" viewBox="0 0 73 70" fill="none" xmlns="http://www.w3.org/2000/svg">
<g id="IESB - cor">
<path id="IESB - colorida" fill-rule="evenodd" clip-rule="evenodd" d="M0 10.17C0 19.7779 0.016561 20.3348 0.298781 20.2459C0.463195 20.1941 5.78354 18.699 12.122 16.9236C18.4604 15.1482 25.9896 13.0386 28.8537 12.2358C39.2405 9.32434 58.7797 3.85649 64.4512 2.27398C67.6439 1.38327 70.7171 0.514244 71.2805 0.343171C72.2794 0.0396098 71.4075 0.0315853 36.1524 0.0160488L0 0V10.17ZM64.1951 5.3958C59.6409 8.35219 51.9579 13.3299 47.122 16.4575C28.1525 28.7258 17.0269 35.9247 10.1585 40.375C6.21463 42.9305 2.31563 45.4537 1.4939 45.9823L0 46.9435V58.4719V70H36.2805H72.561V35C72.561 15.75 72.5419 0.00460973 72.5183 0.0104146C72.4947 0.0160488 68.7494 2.43959 64.1951 5.3958ZM37.1502 51.6709C34.0982 52.3252 32.3656 54.1368 32.4081 56.6293C32.4407 58.5453 33.3673 59.7554 35.5976 60.7953C36.3488 61.1457 37.6933 61.6031 38.5854 61.812C41.5896 62.5153 42.0591 62.6835 42.6387 63.2631C43.3705 63.9949 43.3679 64.5687 42.63 65.3066C41.9418 65.9948 40.7895 66.2313 39.6321 65.9216C38.3306 65.5736 37.82 65.0302 37.3223 63.463C37.2332 63.1827 37.0409 63.1668 34.9602 63.2675C33.7144 63.3278 32.5415 63.4017 32.3537 63.4319C32.1659 63.4622 31.9181 63.4926 31.803 63.4996C31.2391 63.5337 32.2384 66.1544 33.2399 67.2685C34.715 68.9092 36.2762 69.3859 40.2073 69.3956C41.993 69.4 43.2643 69.3205 43.878 69.1656C45.9794 68.6357 47.6369 67.3972 48.4393 65.7568C48.8327 64.953 48.9078 64.5837 48.8957 63.5132C48.859 60.2393 46.9002 58.7754 40.8902 57.5303C38.6332 57.0626 38.003 56.7531 37.9371 56.0801C37.8999 55.7004 38.0061 55.4501 38.3354 55.141C38.7228 54.7774 38.9451 54.7197 39.9538 54.7202C41.3452 54.7211 41.9042 55.041 42.4268 56.1352L42.7683 56.8504L45.1585 56.7562C47.9573 56.646 48.3171 56.5895 48.3171 56.2592C48.3171 56.1238 48.1542 55.5773 47.955 55.0451C47.0117 52.5239 44.609 51.3831 40.2927 51.4071C39.2128 51.4131 37.7986 51.5318 37.1502 51.6709ZM3.2439 60.4431V69.1544L6.18902 69.1078L9.13415 69.061L9.18144 60.7805C9.20756 56.2262 9.1869 52.3272 9.13551 52.1159C9.04332 51.7361 9.00815 51.7317 6.1431 51.7317H3.2439V60.4431ZM13.3171 60.439V69.1463H21.3415H29.3659V67.0976V65.0488H24.3293H19.2927V63.3415V61.6341H23.9024H28.5122V59.8415V58.0488H23.9024H19.2927V56.7683V55.4878H24.2439H29.1951V53.6098V51.7317H21.2561H13.3171V60.439ZM51.7317 60.4453V69.1776L58.1768 69.0956C64.5648 69.0142 65.6728 68.9211 66.8394 68.3676C67.6224 67.9959 68.5595 67.0564 69.0096 66.1917C69.5409 65.1709 69.5462 63.1963 69.0203 62.2056C68.5469 61.3133 67.6125 60.5357 66.5584 60.1566L65.7418 59.863L66.4624 59.4546C67.4226 58.9105 67.7583 58.5912 68.1197 57.878C69.2153 55.7161 68.2439 53.3246 65.8171 52.2094C64.9803 51.8248 64.8328 51.8161 58.3476 51.7652L51.7317 51.7133V60.4453ZM57.8354 55.4147C57.7649 55.4863 57.7073 56.2233 57.7073 57.0529V58.561L59.4573 58.5606C60.7813 58.5605 61.3528 58.4877 61.8047 58.2619C62.8919 57.7186 63.071 56.6177 62.2044 55.8037C61.8208 55.4432 61.5921 55.3982 59.8712 55.3444C58.822 55.3116 57.9059 55.3434 57.8354 55.4147ZM57.8029 62.0956C57.7416 62.2556 57.7051 63.0623 57.7218 63.8883L57.7522 65.3902L59.565 65.3861C60.5623 65.3839 61.6854 65.3112 62.061 65.2243C63.9165 64.7959 64.002 62.4881 62.1813 61.9824C61.8334 61.8858 60.7311 61.8064 59.7317 61.8059C58.1772 61.805 57.8985 61.8469 57.8029 62.0956Z" fill="#FE0000"/>
</g>
</svg>
