<svg width="252" height="72" viewBox="0 0 252 72" fill="none" xmlns="http://www.w3.org/2000/svg">
<g id="IFB - cor">
<path id="path4" fill-rule="evenodd" clip-rule="evenodd" d="M31.5745 13.3476C31.5745 14.1192 30.9329 14.7604 30.1624 14.7604L18.8671 14.7602C18.0975 14.7602 17.4551 14.1192 17.4551 13.3476V2.05258C17.4551 1.28317 18.0975 0.641602 18.8671 0.641602H30.1624C30.933 0.641602 31.5745 1.28317 31.5745 2.05258V13.3476Z" fill="#299626"/>
<path id="path6" fill-rule="evenodd" clip-rule="evenodd" d="M48.3879 13.3476C48.3879 14.1192 47.7465 14.7604 46.9759 14.7604L35.6806 14.7602C34.9116 14.7602 34.2686 14.1192 34.2686 13.3476V2.05258C34.2686 1.28317 34.9116 0.641602 35.6806 0.641602H46.9761C47.7465 0.641602 48.3879 1.28317 48.3879 2.05258V13.3476Z" fill="#299626"/>
<path id="path8" fill-rule="evenodd" clip-rule="evenodd" d="M48.3879 47.234C48.3879 48.0028 47.7465 48.6445 46.9759 48.6445L35.6806 48.6443C34.9116 48.6443 34.2686 48.0028 34.2686 47.234V35.9379C34.2686 35.1664 34.9116 34.5249 35.6806 34.5249H46.9761C47.7465 34.5249 48.3879 35.1665 48.3879 35.9381V47.234Z" fill="#299626"/>
<path id="path10" fill-rule="evenodd" clip-rule="evenodd" d="M14.6331 30.2909C14.6331 31.0598 13.99 31.7014 13.221 31.7014H1.92554C1.15517 31.7014 0.513672 31.06 0.513672 30.2909V18.9955C0.513672 18.226 1.15517 17.5845 1.92554 17.5845H13.221C13.99 17.5845 14.6331 18.2261 14.6331 18.9956V30.2909Z" fill="#299626"/>
<path id="path12" fill-rule="evenodd" clip-rule="evenodd" d="M31.5745 30.2909C31.5745 31.0598 30.9329 31.7014 30.1624 31.7014H18.8671C18.0975 31.7014 17.4551 31.06 17.4551 30.2909V18.9955C17.4551 18.226 18.0975 17.5845 18.8671 17.5845H30.1624C30.933 17.5845 31.5745 18.2261 31.5745 18.9956V30.2909Z" fill="#299626"/>
<path id="path14" fill-rule="evenodd" clip-rule="evenodd" d="M14.6331 47.234C14.6331 48.0028 13.99 48.6445 13.221 48.6445L1.92554 48.6443C1.15517 48.6443 0.513672 48.0028 0.513672 47.234V35.9379C0.513672 35.1664 1.15517 34.5249 1.92554 34.5249H13.221C13.99 34.5249 14.6331 35.1665 14.6331 35.9381V47.234Z" fill="#299626"/>
<path id="path16" fill-rule="evenodd" clip-rule="evenodd" d="M31.5745 47.234C31.5745 48.0028 30.9329 48.6445 30.1624 48.6445L18.8671 48.6443C18.0975 48.6443 17.4551 48.0028 17.4551 47.234V35.9379C17.4551 35.1664 18.0975 34.5249 18.8671 34.5249H30.1624C30.933 34.5249 31.5745 35.1665 31.5745 35.9381V47.234Z" fill="#299626"/>
<path id="path18" fill-rule="evenodd" clip-rule="evenodd" d="M14.6331 64.0472C14.6331 64.8166 13.99 65.4603 13.221 65.4603L1.92554 65.4603C1.15517 65.4603 0.513672 64.8167 0.513672 64.0472V52.7512C0.513672 51.9823 1.15517 51.3408 1.92554 51.3408H13.221C13.99 51.3408 14.6331 51.9825 14.6331 52.7514V64.0472Z" fill="#299626"/>
<path id="path20" fill-rule="evenodd" clip-rule="evenodd" d="M31.5745 64.0472C31.5745 64.8166 30.9329 65.4603 30.1624 65.4603L18.8671 65.4603C18.0975 65.4603 17.4551 64.8167 17.4551 64.0472V52.7512C17.4551 51.9823 18.0975 51.3408 18.8671 51.3408H30.1624C30.933 51.3408 31.5745 51.9825 31.5745 52.7514V64.0472Z" fill="#299626"/>
<path id="path22" fill-rule="evenodd" clip-rule="evenodd" d="M15.4019 7.69992C15.4019 11.9368 11.937 15.4018 7.70096 15.4018C3.46507 15.4018 0 11.9368 0 7.69992C0 3.46537 3.46507 4.69967e-09 7.70096 4.69967e-09C11.937 -0.000147364 15.4019 3.46551 15.4019 7.69992Z" fill="#C90015"/>
<path id="path24" fill-rule="evenodd" clip-rule="evenodd" d="M59.0254 48.5442V34.5459H61.9991V48.5442H59.0254Z" fill="#1B1918"/>
<path id="path26" fill-rule="evenodd" clip-rule="evenodd" d="M78.0208 48.5442H74.2413L68.1423 37.9538H68.0569C68.1775 39.8238 68.2378 41.1593 68.2378 41.9559V48.5442H65.582V34.5459H69.3312L75.4218 45.0303H75.4893C75.393 43.2113 75.3455 41.9235 75.3455 41.1704V34.5459H78.0208V48.5442Z" fill="#1B1918"/>
<path id="path28" fill-rule="evenodd" clip-rule="evenodd" d="M89.8269 44.6566C89.8269 45.9213 89.3721 46.9165 88.4608 47.6451C87.5502 48.371 86.2822 48.7365 84.6578 48.7365C83.1623 48.7363 81.8382 48.4555 80.6875 47.8937V45.1359C81.6341 45.5565 82.4343 45.8534 83.0902 46.0263C83.7461 46.1975 84.3452 46.2847 84.888 46.2847C85.5399 46.2847 86.0413 46.1593 86.3892 45.9101C86.7371 45.6614 86.9121 45.2916 86.9121 44.8005C86.9121 44.5261 86.8358 44.2825 86.6814 44.0678C86.5285 43.8534 86.3028 43.6476 86.0059 43.4517C85.7083 43.2532 85.103 42.9355 84.1887 42.5016C83.3311 42.1 82.6885 41.7142 82.2604 41.3442C81.8311 40.9748 81.4898 40.5431 81.2344 40.0525C80.9786 39.5592 80.8508 38.9862 80.8508 38.3288C80.8508 37.089 81.2712 36.1169 82.112 35.4089C82.9526 34.6992 84.114 34.3457 85.5983 34.3457C86.3268 34.3457 87.0226 34.4321 87.6836 34.6035C88.3457 34.7762 89.0369 35.0184 89.7599 35.331L88.8011 37.639C88.0536 37.3336 87.4351 37.1187 86.9453 36.9974C86.4562 36.8766 85.9747 36.8152 85.5021 36.8152C84.9398 36.8152 84.5085 36.9458 84.2065 37.2077C83.9068 37.4701 83.7567 37.8105 83.7567 38.2325C83.7569 38.4929 83.8172 38.7211 83.939 38.9176C84.0608 39.112 84.2537 39.2988 84.5192 39.4819C84.7842 39.6641 85.412 39.9906 86.404 40.4632C87.7143 41.0884 88.6122 41.7163 89.0992 42.3441C89.5844 42.9743 89.8269 43.7439 89.8269 44.6566Z" fill="#1B1918"/>
<path id="path30" fill-rule="evenodd" clip-rule="evenodd" d="M97.8626 48.5442H94.8894V37.0154H91.082V34.5459H101.671V37.0154H97.8626V48.5442Z" fill="#1B1918"/>
<path id="path32" fill-rule="evenodd" clip-rule="evenodd" d="M103.827 48.5442V34.5459H106.8V48.5442H103.827Z" fill="#1B1918"/>
<path id="path34" fill-rule="evenodd" clip-rule="evenodd" d="M115.739 48.5442H112.766V37.0154H108.958V34.5459H119.547V37.0154H115.739V48.5442Z" fill="#1B1918"/>
<path id="path36" fill-rule="evenodd" clip-rule="evenodd" d="M133.18 34.5459V43.6038C133.18 44.6378 132.948 45.5439 132.484 46.3226C132.02 47.1007 131.351 47.6969 130.475 48.1123C129.599 48.5278 128.563 48.7361 127.368 48.7361C125.565 48.7359 124.165 48.2746 123.167 47.3527C122.17 46.4301 121.671 45.1673 121.671 43.5648L121.671 34.5459H124.634V43.1151C124.634 44.1931 124.852 44.9853 125.287 45.4897C125.722 45.9936 126.441 46.2449 127.444 46.2449C128.416 46.2449 129.121 45.9916 129.559 45.4851C129.997 44.9761 130.216 44.1814 130.216 43.0947V34.5459H133.18Z" fill="#1B1918"/>
<path id="path38" fill-rule="evenodd" clip-rule="evenodd" d="M141.962 48.5442H138.988V37.0154H135.181V34.5459H145.769V37.0154H141.962V48.5442Z" fill="#1B1918"/>
<path id="path40" fill-rule="evenodd" clip-rule="evenodd" d="M150.49 41.5268C150.49 43.0903 150.787 44.2662 151.382 45.0587C151.977 45.85 152.865 46.2451 154.048 46.2451C156.42 46.2451 157.606 44.6724 157.606 41.5268C157.606 38.372 156.427 36.7968 154.068 36.7968C152.884 36.7967 151.993 37.1944 151.391 37.9888C150.791 38.7829 150.49 39.9632 150.49 41.5268ZM160.723 41.5268C160.723 43.8414 160.148 45.6246 158.997 46.8683C157.846 48.1125 156.196 48.7363 154.048 48.7363C151.901 48.7362 150.251 48.1125 149.099 46.8683C147.949 45.6244 147.373 43.8369 147.373 41.5064C147.373 39.1778 147.95 37.3974 149.105 36.169C150.259 34.9409 151.913 34.3271 154.068 34.3271C156.222 34.3271 157.87 34.9457 159.011 36.1828C160.153 37.422 160.723 39.203 160.723 41.5268Z" fill="#1B1918"/>
<path id="path42" fill-rule="evenodd" clip-rule="evenodd" d="M171.656 48.5442H168.729V34.5459H176.767V36.977H171.656V40.5887H176.411V43.0103H171.656V48.5442Z" fill="#1B1918"/>
<path id="path44" fill-rule="evenodd" clip-rule="evenodd" d="M187.701 48.5442H179.624V34.5459H187.701V36.977H182.599V40.052H187.344V42.4832H182.599V46.0923H187.701V48.5442Z" fill="#1B1918"/>
<path id="path46" fill-rule="evenodd" clip-rule="evenodd" d="M199.169 41.4882C199.169 38.4813 197.839 36.9772 195.179 36.9772L193.597 36.977V46.0923H194.873C197.738 46.0923 199.169 44.558 199.169 41.4882ZM202.258 41.4099C202.258 43.7158 201.6 45.48 200.286 46.7043C198.973 47.9295 197.076 48.5442 194.595 48.5442H190.625V34.5459H195.026C197.316 34.5458 199.092 35.1486 200.359 36.3554C201.626 37.5614 202.258 39.2461 202.258 41.4099Z" fill="#1B1918"/>
<path id="path48" fill-rule="evenodd" clip-rule="evenodd" d="M213.24 48.5442H205.165V34.5459H213.24V36.977H208.138V40.052H212.886V42.4832H208.138V46.0923H213.24V48.5442Z" fill="#1B1918"/>
<path id="path50" fill-rule="evenodd" clip-rule="evenodd" d="M219.138 40.7595H220.096C221.037 40.7595 221.731 40.6047 222.178 40.2895C222.625 39.9789 222.849 39.4856 222.849 38.817C222.849 38.1524 222.621 37.6795 222.164 37.3988C221.705 37.1183 220.997 36.9772 220.038 36.9772L219.138 36.977V40.7595ZM219.138 43.1729V48.5442H216.165V34.5459H220.248C222.155 34.5458 223.566 34.8928 224.479 35.5845C225.394 36.2783 225.851 37.3286 225.851 38.7391C225.851 39.5634 225.625 40.2961 225.171 40.9372C224.717 41.5787 224.073 42.0817 223.241 42.4445C225.351 45.592 226.728 47.6243 227.367 48.5442H224.068L220.719 43.1729H219.138Z" fill="#1B1918"/>
<path id="path52" fill-rule="evenodd" clip-rule="evenodd" d="M236.11 42.7236C235.169 39.7024 234.639 37.995 234.521 37.6002C234.403 37.2055 234.318 36.8925 234.267 36.6624C234.058 37.4793 233.452 39.4999 232.455 42.7236H236.11ZM237.836 48.5445L236.818 45.2117H231.706L230.691 48.5445H227.487L232.437 34.4888H236.071L241.038 48.5445H237.836Z" fill="#1B1918"/>
<path id="path54" fill-rule="evenodd" clip-rule="evenodd" d="M242.754 48.5442V34.5459H245.726V46.0923H251.413V48.5442H242.754Z" fill="#1B1918"/>
<path id="Bras&#195;&#173;lia" d="M59.4268 56.8281H63.4697C65.2536 56.8281 66.5947 57.0951 67.4932 57.6289C68.3916 58.1628 68.8408 59.071 68.8408 60.3535C68.8408 60.9069 68.7334 61.4049 68.5186 61.8477C68.3102 62.2839 68.0042 62.6452 67.6006 62.9316C67.1969 63.2181 66.6989 63.4167 66.1064 63.5273V63.625C66.7314 63.7227 67.2848 63.9017 67.7666 64.1621C68.2484 64.4225 68.626 64.7871 68.8994 65.2559C69.1729 65.7246 69.3096 66.3203 69.3096 67.043C69.3096 67.9219 69.1045 68.6641 68.6943 69.2695C68.2907 69.875 67.7178 70.334 66.9756 70.6465C66.2334 70.9525 65.3545 71.1055 64.3389 71.1055H59.4268V56.8281ZM61.0869 62.9512H63.8213C65.0648 62.9512 65.9242 62.7461 66.3994 62.3359C66.8812 61.9258 67.1221 61.3268 67.1221 60.5391C67.1221 59.7253 66.8356 59.1393 66.2627 58.7812C65.6963 58.4232 64.7913 58.2441 63.5479 58.2441H61.0869V62.9512ZM61.0869 64.3477V69.6895H64.0557C65.3252 69.6895 66.2236 69.4421 66.751 68.9473C67.2783 68.446 67.542 67.7721 67.542 66.9258C67.542 66.3854 67.4215 65.9232 67.1807 65.5391C66.9463 65.1549 66.5622 64.862 66.0283 64.6602C65.501 64.4518 64.7946 64.3477 63.9092 64.3477H61.0869ZM76.9756 60.207C77.1904 60.207 77.415 60.2201 77.6494 60.2461C77.8838 60.2656 78.0921 60.2949 78.2744 60.334L78.0693 61.8379C77.8936 61.7923 77.6982 61.7565 77.4834 61.7305C77.2686 61.7044 77.0667 61.6914 76.8779 61.6914C76.4482 61.6914 76.0413 61.7793 75.6572 61.9551C75.2796 62.1243 74.9476 62.3717 74.6611 62.6973C74.3747 63.0163 74.1501 63.4036 73.9873 63.8594C73.8245 64.3086 73.7432 64.8099 73.7432 65.3633V71.1055H72.1123V60.4023H73.46L73.6357 62.375H73.7041C73.9255 61.9779 74.1924 61.6165 74.5049 61.291C74.8174 60.959 75.1787 60.6953 75.5889 60.5C76.0055 60.3047 76.4678 60.207 76.9756 60.207ZM84.2998 60.2266C85.5758 60.2266 86.5231 60.513 87.1416 61.0859C87.7601 61.6589 88.0693 62.5736 88.0693 63.8301V71.1055H86.8877L86.5752 69.5234H86.4971C86.1976 69.9141 85.8851 70.2428 85.5596 70.5098C85.234 70.7702 84.8564 70.9688 84.4268 71.1055C84.0036 71.2357 83.4827 71.3008 82.8643 71.3008C82.2132 71.3008 81.6338 71.1868 81.126 70.959C80.6247 70.7311 80.2275 70.3861 79.9346 69.9238C79.6481 69.4616 79.5049 68.8757 79.5049 68.166C79.5049 67.0983 79.9281 66.278 80.7744 65.7051C81.6208 65.1322 82.9098 64.8197 84.6416 64.7676L86.4873 64.6895V64.0352C86.4873 63.1107 86.2887 62.4629 85.8916 62.0918C85.4945 61.7207 84.9346 61.5352 84.2119 61.5352C83.652 61.5352 83.1182 61.6165 82.6104 61.7793C82.1025 61.9421 81.6208 62.1341 81.165 62.3555L80.667 61.125C81.1488 60.8776 81.7021 60.666 82.3271 60.4902C82.9521 60.3145 83.6097 60.2266 84.2998 60.2266ZM86.4678 65.832L84.8369 65.9004C83.5023 65.9525 82.5615 66.1706 82.0146 66.5547C81.4678 66.9388 81.1943 67.4824 81.1943 68.1855C81.1943 68.7975 81.3799 69.25 81.751 69.543C82.1221 69.8359 82.6136 69.9824 83.2256 69.9824C84.1761 69.9824 84.9541 69.7188 85.5596 69.1914C86.165 68.6641 86.4678 67.873 86.4678 66.8184V65.832ZM98.333 68.1758C98.333 68.8594 98.1605 69.4355 97.8154 69.9043C97.4769 70.3665 96.9886 70.7148 96.3506 70.9492C95.7191 71.1836 94.9639 71.3008 94.085 71.3008C93.3363 71.3008 92.6885 71.2422 92.1416 71.125C91.5947 71.0078 91.1162 70.8418 90.7061 70.627V69.1328C91.1423 69.3477 91.6631 69.543 92.2686 69.7188C92.874 69.8945 93.4925 69.9824 94.124 69.9824C95.0485 69.9824 95.7191 69.8327 96.1357 69.5332C96.5524 69.2337 96.7607 68.8268 96.7607 68.3125C96.7607 68.0195 96.6761 67.7624 96.5068 67.541C96.3441 67.3132 96.0674 67.0951 95.6768 66.8867C95.2861 66.6719 94.7458 66.4375 94.0557 66.1836C93.3721 65.9232 92.7796 65.666 92.2783 65.4121C91.7835 65.1517 91.3994 64.8359 91.126 64.4648C90.859 64.0938 90.7256 63.612 90.7256 63.0195C90.7256 62.1146 91.0902 61.4212 91.8193 60.9395C92.555 60.4512 93.5186 60.207 94.71 60.207C95.3545 60.207 95.9567 60.2721 96.5166 60.4023C97.083 60.526 97.6104 60.6953 98.0986 60.9102L97.5518 62.209C97.109 62.0202 96.637 61.8607 96.1357 61.7305C95.6344 61.6003 95.1234 61.5352 94.6025 61.5352C93.8538 61.5352 93.2777 61.6589 92.874 61.9062C92.4769 62.1536 92.2783 62.4922 92.2783 62.9219C92.2783 63.2539 92.3695 63.5273 92.5518 63.7422C92.7406 63.957 93.04 64.1589 93.4502 64.3477C93.8604 64.5365 94.4007 64.7578 95.0713 65.0117C95.7419 65.2591 96.3213 65.5163 96.8096 65.7832C97.2979 66.0436 97.6722 66.3626 97.9326 66.7402C98.1995 67.1113 98.333 67.5898 98.333 68.1758ZM102.562 71.1055H100.94V60.4023H102.562V71.1055ZM104.583 55.7832V55.9785C104.453 56.1673 104.274 56.3952 104.046 56.6621C103.825 56.9225 103.577 57.1992 103.304 57.4922C103.03 57.7786 102.754 58.0521 102.474 58.3125C102.2 58.5729 101.946 58.7975 101.712 58.9863H100.628V58.752C100.836 58.5046 101.064 58.2083 101.312 57.8633C101.559 57.5117 101.8 57.1536 102.034 56.7891C102.269 56.418 102.464 56.0827 102.62 55.7832H104.583ZM107.63 71.1055H105.999V55.9102H107.63V71.1055ZM112.679 60.4023V71.1055H111.058V60.4023H112.679ZM111.888 56.3984C112.155 56.3984 112.382 56.4863 112.571 56.6621C112.767 56.8314 112.864 57.0983 112.864 57.4629C112.864 57.821 112.767 58.0879 112.571 58.2637C112.382 58.4395 112.155 58.5273 111.888 58.5273C111.608 58.5273 111.373 58.4395 111.185 58.2637C111.002 58.0879 110.911 57.821 110.911 57.4629C110.911 57.0983 111.002 56.8314 111.185 56.6621C111.373 56.4863 111.608 56.3984 111.888 56.3984ZM120.12 60.2266C121.396 60.2266 122.343 60.513 122.962 61.0859C123.58 61.6589 123.89 62.5736 123.89 63.8301V71.1055H122.708L122.396 69.5234H122.317C122.018 69.9141 121.705 70.2428 121.38 70.5098C121.054 70.7702 120.677 70.9688 120.247 71.1055C119.824 71.2357 119.303 71.3008 118.685 71.3008C118.034 71.3008 117.454 71.1868 116.946 70.959C116.445 70.7311 116.048 70.3861 115.755 69.9238C115.468 69.4616 115.325 68.8757 115.325 68.166C115.325 67.0983 115.748 66.278 116.595 65.7051C117.441 65.1322 118.73 64.8197 120.462 64.7676L122.308 64.6895V64.0352C122.308 63.1107 122.109 62.4629 121.712 62.0918C121.315 61.7207 120.755 61.5352 120.032 61.5352C119.472 61.5352 118.938 61.6165 118.431 61.7793C117.923 61.9421 117.441 62.1341 116.985 62.3555L116.487 61.125C116.969 60.8776 117.522 60.666 118.147 60.4902C118.772 60.3145 119.43 60.2266 120.12 60.2266ZM122.288 65.832L120.657 65.9004C119.323 65.9525 118.382 66.1706 117.835 66.5547C117.288 66.9388 117.015 67.4824 117.015 68.1855C117.015 68.7975 117.2 69.25 117.571 69.543C117.942 69.8359 118.434 69.9824 119.046 69.9824C119.996 69.9824 120.774 69.7188 121.38 69.1914C121.985 68.6641 122.288 67.873 122.288 66.8184V65.832Z" fill="black"/>
</g>
</svg>
