<svg width="372" height="70" viewBox="0 0 372 70" fill="none" xmlns="http://www.w3.org/2000/svg">
<g id="IFG-AL-cor">
<path id="path4" fill-rule="evenodd" clip-rule="evenodd" d="M32.0527 13.5497C32.0527 14.3329 31.4015 14.9838 30.6194 14.9838L19.1531 14.9836C18.3719 14.9836 17.7197 14.3329 17.7197 13.5497V2.0837C17.7197 1.30264 18.3719 0.651367 19.1531 0.651367H30.6194C31.4016 0.651367 32.0527 1.30264 32.0527 2.0837V13.5497Z" fill="#299626"/>
<path id="path6" fill-rule="evenodd" clip-rule="evenodd" d="M49.1201 13.5497C49.1201 14.3329 48.469 14.9838 47.6868 14.9838L36.2205 14.9836C35.4399 14.9836 34.7871 14.3329 34.7871 13.5497V2.0837C34.7871 1.30264 35.4399 0.651367 36.2205 0.651367H47.6869C48.469 0.651367 49.1201 1.30264 49.1201 2.0837V13.5497Z" fill="#299626"/>
<path id="path8" fill-rule="evenodd" clip-rule="evenodd" d="M49.1201 47.9487C49.1201 48.7292 48.469 49.3806 47.6868 49.3806L36.2205 49.3804C35.4399 49.3804 34.7871 48.7292 34.7871 47.9487V36.4818C34.7871 35.6986 35.4399 35.0474 36.2205 35.0474H47.6869C48.469 35.0474 49.1201 35.6987 49.1201 36.4819V47.9487Z" fill="#299626"/>
<path id="path10" fill-rule="evenodd" clip-rule="evenodd" d="M14.8545 30.7492C14.8545 31.5298 14.2017 32.1811 13.4211 32.1811H1.95471C1.17269 32.1811 0.521484 31.53 0.521484 30.7492V19.2829C0.521484 18.5018 1.17269 17.8506 1.95471 17.8506H13.4211C14.2017 17.8506 14.8545 18.5019 14.8545 19.2831V30.7492Z" fill="#299626"/>
<path id="path12" fill-rule="evenodd" clip-rule="evenodd" d="M32.0527 30.7492C32.0527 31.5298 31.4015 32.1811 30.6194 32.1811H19.1531C18.3719 32.1811 17.7197 31.53 17.7197 30.7492V19.2829C17.7197 18.5018 18.3719 17.8506 19.1531 17.8506H30.6194C31.4016 17.8506 32.0527 18.5019 32.0527 19.2831V30.7492Z" fill="#299626"/>
<path id="path14" fill-rule="evenodd" clip-rule="evenodd" d="M14.8545 47.9487C14.8545 48.7292 14.2017 49.3806 13.4211 49.3806L1.95471 49.3804C1.17269 49.3804 0.521484 48.7292 0.521484 47.9487V36.4818C0.521484 35.6986 1.17269 35.0474 1.95471 35.0474H13.4211C14.2017 35.0474 14.8545 35.6987 14.8545 36.4819V47.9487Z" fill="#299626"/>
<path id="path16" fill-rule="evenodd" clip-rule="evenodd" d="M32.0527 47.9487C32.0527 48.7292 31.4015 49.3806 30.6194 49.3806L19.1531 49.3804C18.3719 49.3804 17.7197 48.7292 17.7197 47.9487V36.4818C17.7197 35.6986 18.3719 35.0474 19.1531 35.0474H30.6194C31.4016 35.0474 32.0527 35.6987 32.0527 36.4819V47.9487Z" fill="#299626"/>
<path id="path18" fill-rule="evenodd" clip-rule="evenodd" d="M14.8545 65.0158C14.8545 65.7968 14.2017 66.4503 13.4211 66.4503L1.95471 66.4503C1.17269 66.4503 0.521484 65.797 0.521484 65.0158V53.5489C0.521484 52.7684 1.17269 52.1172 1.95471 52.1172H13.4211C14.2017 52.1172 14.8545 52.7685 14.8545 53.5491V65.0158Z" fill="#299626"/>
<path id="path20" fill-rule="evenodd" clip-rule="evenodd" d="M32.0527 65.0158C32.0527 65.7968 31.4015 66.4503 30.6194 66.4503L19.1531 66.4503C18.3719 66.4503 17.7197 65.797 17.7197 65.0158V53.5489C17.7197 52.7684 18.3719 52.1172 19.1531 52.1172H30.6194C31.4016 52.1172 32.0527 52.7685 32.0527 53.5491V65.0158Z" fill="#299626"/>
<path id="path22" fill-rule="evenodd" clip-rule="evenodd" d="M15.635 7.81643C15.635 12.1175 12.1176 15.6348 7.81749 15.6348C3.51751 15.6348 0 12.1175 0 7.81643C0 3.5178 3.51751 4.77078e-09 7.81749 4.77078e-09C12.1176 -0.000149593 15.635 3.51795 15.635 7.81643Z" fill="#C90015"/>
<path id="path24" fill-rule="evenodd" clip-rule="evenodd" d="M59.918 49.279V35.0688H62.9366V49.279H59.918Z" fill="#1B1918"/>
<path id="path26" fill-rule="evenodd" clip-rule="evenodd" d="M79.2012 49.279H75.3645L69.1732 38.5283H69.0865C69.2089 40.4266 69.2702 41.7823 69.2702 42.591V49.279H66.5742V35.0688H70.3802L76.5628 45.7119H76.6314C76.5337 43.8654 76.4854 42.5581 76.4854 41.7936V35.0688H79.2012V49.279Z" fill="#1B1918"/>
<path id="path28" fill-rule="evenodd" clip-rule="evenodd" d="M91.1859 45.3322C91.1859 46.616 90.7242 47.6262 89.7992 48.3659C88.8747 49.1027 87.5876 49.4737 85.9386 49.4737C84.4205 49.4736 83.0763 49.1885 81.9082 48.6182V45.8187C82.8691 46.2457 83.6814 46.5471 84.3473 46.7225C85.013 46.8964 85.6212 46.9849 86.1723 46.9849C86.834 46.9849 87.343 46.8576 87.6962 46.6046C88.0494 46.3521 88.2269 45.9767 88.2269 45.4782C88.2269 45.1996 88.1495 44.9524 87.9928 44.7344C87.8375 44.5168 87.6084 44.3079 87.3071 44.109C87.005 43.9075 86.3905 43.585 85.4624 43.1445C84.5919 42.7369 83.9395 42.3452 83.5049 41.9697C83.0691 41.5947 82.7226 41.1564 82.4634 40.6584C82.2037 40.1576 82.074 39.5759 82.074 38.9086C82.074 37.6501 82.5008 36.6633 83.3542 35.9445C84.2075 35.2241 85.3865 34.8652 86.8933 34.8652C87.6329 34.8652 88.3391 34.953 89.0102 35.127C89.6822 35.3023 90.3839 35.5482 91.1179 35.8655L90.1446 38.2084C89.3857 37.8983 88.7579 37.6802 88.2607 37.557C87.7642 37.4344 87.2754 37.3721 86.7957 37.3721C86.2249 37.3721 85.787 37.5047 85.4805 37.7705C85.1762 38.0369 85.0239 38.3824 85.0239 38.8108C85.024 39.0752 85.0853 39.3068 85.2089 39.5063C85.3325 39.7036 85.5283 39.8932 85.7979 40.0792C86.0669 40.2641 86.7042 40.5955 87.7112 41.0753C89.0414 41.71 89.9529 42.3473 90.4472 42.9847C90.9397 43.6244 91.1859 44.4056 91.1859 45.3322Z" fill="#1B1918"/>
<path id="path30" fill-rule="evenodd" clip-rule="evenodd" d="M99.3431 49.279H96.325V37.5757H92.46V35.0688H103.209V37.5757H99.3431V49.279Z" fill="#1B1918"/>
<path id="path32" fill-rule="evenodd" clip-rule="evenodd" d="M105.398 49.279V35.0688H108.417V49.279H105.398Z" fill="#1B1918"/>
<path id="path34" fill-rule="evenodd" clip-rule="evenodd" d="M117.49 49.279H114.472V37.5757H110.606V35.0688H121.355V37.5757H117.49V49.279Z" fill="#1B1918"/>
<path id="path36" fill-rule="evenodd" clip-rule="evenodd" d="M135.195 35.0688V44.2638C135.195 45.3135 134.96 46.2333 134.489 47.0238C134.017 47.8137 133.338 48.4188 132.449 48.8405C131.56 49.2623 130.508 49.4737 129.295 49.4737C127.464 49.4736 126.044 49.0053 125.031 48.0694C124.018 47.1328 123.512 45.851 123.512 44.2243L123.512 35.0688H126.52V43.7678C126.52 44.8621 126.741 45.6662 127.182 46.1782C127.624 46.6897 128.354 46.9449 129.372 46.9449C130.359 46.9449 131.074 46.6878 131.52 46.1735C131.964 45.6568 132.186 44.8501 132.186 43.747V35.0688H135.195Z" fill="#1B1918"/>
<path id="path38" fill-rule="evenodd" clip-rule="evenodd" d="M144.109 49.279H141.091V37.5757H137.226V35.0688H147.974V37.5757H144.109V49.279Z" fill="#1B1918"/>
<path id="path40" fill-rule="evenodd" clip-rule="evenodd" d="M152.767 42.1553C152.767 43.7424 153.068 44.9361 153.672 45.7406C154.276 46.5439 155.178 46.945 156.379 46.945C158.787 46.945 159.991 45.3485 159.991 42.1553C159.991 38.9528 158.794 37.3537 156.399 37.3537C155.197 37.3536 154.292 37.7573 153.682 38.5638C153.072 39.3699 152.767 40.5681 152.767 42.1553ZM163.155 42.1553C163.155 44.5049 162.571 46.315 161.403 47.5776C160.234 48.8406 158.559 49.4739 156.379 49.4739C154.199 49.4737 152.524 48.8406 151.355 47.5776C150.187 46.3149 149.603 44.5003 149.603 42.1346C149.603 39.7707 150.188 37.9634 151.361 36.7164C152.532 35.4697 154.211 34.8467 156.399 34.8467C158.585 34.8467 160.258 35.4745 161.417 36.7304C162.575 37.9883 163.155 39.7964 163.155 42.1553Z" fill="#1B1918"/>
<path id="path42" fill-rule="evenodd" clip-rule="evenodd" d="M174.254 49.279H171.283V35.0688H179.442V37.5368H174.254V41.2031H179.081V43.6613H174.254V49.279Z" fill="#1B1918"/>
<path id="path44" fill-rule="evenodd" clip-rule="evenodd" d="M190.541 49.279H182.342V35.0688H190.541V37.5368H185.361V40.6582H190.179V43.1263H185.361V46.7899H190.541V49.279Z" fill="#1B1918"/>
<path id="path46" fill-rule="evenodd" clip-rule="evenodd" d="M202.183 42.1162C202.183 39.0638 200.833 37.5369 198.133 37.5369L196.527 37.5368V46.7899H197.822C200.73 46.7899 202.183 45.2325 202.183 42.1162ZM205.319 42.0367C205.319 44.3775 204.651 46.1684 203.317 47.4112C201.984 48.655 200.059 49.279 197.54 49.279H193.51V35.0688H197.977C200.302 35.0687 202.105 35.6807 203.391 36.9058C204.677 38.1299 205.319 39.8402 205.319 42.0367Z" fill="#1B1918"/>
<path id="path48" fill-rule="evenodd" clip-rule="evenodd" d="M216.465 49.279H208.269V35.0688H216.465V37.5368H211.286V40.6582H216.107V43.1263H211.286V46.7899H216.465V49.279Z" fill="#1B1918"/>
<path id="path50" fill-rule="evenodd" clip-rule="evenodd" d="M222.454 41.3765H223.427C224.382 41.3765 225.086 41.2193 225.541 40.8994C225.995 40.584 226.222 40.0833 226.222 39.4046C226.222 38.7299 225.99 38.2499 225.527 37.9649C225.061 37.6802 224.342 37.5369 223.369 37.5369L222.454 37.5368V41.3765ZM222.454 43.8263V49.279H219.437V35.0688H223.582C225.517 35.0687 226.949 35.421 227.876 36.1231C228.806 36.8274 229.269 37.8936 229.269 39.3255C229.269 40.1622 229.039 40.906 228.579 41.5569C228.117 42.2081 227.464 42.7186 226.62 43.0869C228.761 46.2821 230.159 48.3451 230.808 49.279H227.459L224.059 43.8263H222.454Z" fill="#1B1918"/>
<path id="path52" fill-rule="evenodd" clip-rule="evenodd" d="M239.683 43.3701C238.728 40.3032 238.19 38.5701 238.07 38.1692C237.95 37.7686 237.863 37.4508 237.812 37.2172C237.599 38.0465 236.985 40.0977 235.972 43.3701H239.683ZM241.434 49.2792L240.401 45.896H235.212L234.182 49.2792H230.93L235.954 35.0107H239.643L244.686 49.2792H241.434Z" fill="#1B1918"/>
<path id="path54" fill-rule="evenodd" clip-rule="evenodd" d="M246.427 49.279V35.0688H249.444V46.7899H255.217V49.279H246.427Z" fill="#1B1918"/>
<path id="path56" fill-rule="evenodd" clip-rule="evenodd" d="M270.36 66.0586C270.36 66.3185 270.23 66.4503 269.971 66.4503V66.4503C269.709 66.4503 269.579 66.3185 269.579 66.0588V35.439C269.579 35.1793 269.709 35.0474 269.971 35.0474C270.23 35.0474 270.36 35.1793 270.36 35.439V66.0586Z" fill="#299626"/>
<path id="path58" fill-rule="evenodd" clip-rule="evenodd" d="M64.5942 60.8629H68.1894V66.0842C67.63 66.2648 67.0608 66.4016 66.4827 66.4941C65.9036 66.5895 65.234 66.6359 64.4717 66.6359C62.8705 66.6359 61.6229 66.1512 60.7312 65.1853C59.8388 64.2186 59.3926 62.8631 59.3926 61.1201C59.3926 60.0033 59.6129 59.0254 60.0544 58.1867C60.4963 57.3451 61.1311 56.7059 61.9605 56.2608C62.7904 55.8181 63.7626 55.5986 64.8767 55.5986C66.0054 55.5985 67.0561 55.8088 68.0304 56.228L67.5531 57.3311C66.5991 56.9192 65.6797 56.7126 64.7974 56.7126C63.5083 56.7125 62.5042 57.1017 61.7797 57.8808C61.0567 58.6591 60.6938 59.739 60.6938 61.1201C60.6938 62.5685 61.0427 63.6671 61.7402 64.4181C62.4368 65.1658 63.4614 65.5394 64.8107 65.5394C65.5441 65.5394 66.2603 65.4563 66.9605 65.285V61.978H64.5942V60.8629Z" fill="#1B1918"/>
<path id="path60" fill-rule="evenodd" clip-rule="evenodd" d="M71.3513 62.4557C71.3513 63.4844 71.5544 64.2678 71.9595 64.8074C72.3637 65.3449 72.96 65.614 73.7463 65.614C74.532 65.6139 75.1282 65.3449 75.5365 64.81C75.9442 64.275 76.1478 63.4887 76.1478 62.4558C76.1478 61.4336 75.9442 60.6576 75.5365 60.1237C75.1282 59.5933 74.5269 59.327 73.7311 59.327C72.9454 59.3268 72.3528 59.5914 71.9513 60.1149C71.5519 60.6389 71.3513 61.4196 71.3513 62.4557ZM77.3927 62.4557C77.3927 63.7696 77.067 64.794 76.4158 65.531C75.7646 66.2679 74.8655 66.6362 73.7177 66.6362C73.0082 66.6362 72.3787 66.4668 71.8287 66.1281C71.2792 65.7906 70.8544 65.3054 70.5552 64.6755C70.256 64.0423 70.1064 63.3038 70.1064 62.4558C70.1064 61.1437 70.43 60.1221 71.0767 59.3894C71.7232 58.6594 72.6197 58.2935 73.7681 58.2935C74.877 58.2935 75.7588 58.6663 76.4122 59.4174C77.0661 60.1663 77.3927 61.1791 77.3927 62.4557Z" fill="#1B1918"/>
<path id="path62" fill-rule="evenodd" clip-rule="evenodd" d="M80.7011 66.4876H79.4993V58.4392H80.7011V66.4876ZM79.3984 56.259C79.3984 55.9785 79.4661 55.7739 79.6005 55.6445C79.736 55.5145 79.9048 55.4497 80.1063 55.4497C80.2996 55.4497 80.4669 55.5173 80.6055 55.6492C80.7462 55.7809 80.8158 55.9851 80.8158 56.259C80.8158 56.5321 80.7462 56.7363 80.6055 56.8707C80.4669 57.0073 80.2996 57.0744 80.1063 57.0744C79.9048 57.0744 79.736 57.0073 79.6005 56.8707C79.4661 56.7361 79.3984 56.5321 79.3984 56.259Z" fill="#1B1918"/>
<path id="path64" fill-rule="evenodd" clip-rule="evenodd" d="M85.1272 57.1899C85.3593 56.8865 85.609 56.5205 85.877 56.0893C86.1441 55.6582 86.3554 55.2828 86.5091 54.9653H87.9706V55.1205C87.7588 55.4379 87.443 55.8297 87.0229 56.2949C86.6032 56.7588 86.2396 57.1203 85.931 57.3753H85.1272V57.1899ZM85.4097 65.6275C86.1576 65.6275 86.7448 65.4215 87.1708 65.0038C87.5983 64.5894 87.8117 64.0056 87.8117 63.2572L87.8118 62.529L86.6115 62.5804C85.6552 62.6147 84.9672 62.7655 84.5454 63.0317C84.1227 63.2987 83.9117 63.7137 83.9117 64.2767C83.9118 64.7193 84.0436 65.0527 84.3064 65.2849C84.5697 65.514 84.9369 65.6277 85.4097 65.6275ZM88.1233 66.4873L87.8835 65.3424H87.8268C87.4305 65.8479 87.0363 66.1886 86.6436 66.3667C86.2494 66.5453 85.7597 66.6359 85.1712 66.6359C84.3844 66.6359 83.7689 66.429 83.3232 66.0172C82.8756 65.6063 82.6533 65.0231 82.6533 64.2623C82.6533 62.6379 83.9336 61.7854 86.4956 61.7063L87.8408 61.6623V61.1641C87.8408 60.5314 87.7062 60.0657 87.4389 59.7644C87.1708 59.4631 86.7439 59.313 86.155 59.313C85.4942 59.313 84.7469 59.5187 83.9117 59.929L83.5435 58.9978C83.9336 58.7817 84.3625 58.613 84.8268 58.4903C85.2928 58.3679 85.7597 58.3066 86.2277 58.3066C87.1724 58.3065 87.873 58.5205 88.3286 58.9469C88.785 59.3728 89.0136 60.0547 89.0136 60.9947V66.4873H88.1233Z" fill="#1B1918"/>
<path id="path66" fill-rule="evenodd" clip-rule="evenodd" d="M96.6033 64.2932C96.6033 65.0416 96.3274 65.6192 95.7779 66.027C95.2279 66.4319 94.4561 66.6362 93.4631 66.6362C92.4113 66.6362 91.5907 66.4668 91.0033 66.1281V64.9975C91.383 65.1923 91.7923 65.3475 92.229 65.4614C92.6659 65.5724 93.087 65.628 93.4921 65.628C94.119 65.6279 94.601 65.5288 94.9381 65.3241C95.2762 65.1205 95.4461 64.8127 95.4461 64.395C95.4461 64.0823 95.3115 63.8133 95.0436 63.591C94.7756 63.3687 94.2535 63.1045 93.4771 62.801C92.7391 62.5232 92.2155 62.2797 91.9034 62.0708C91.5933 61.8624 91.3612 61.6258 91.2095 61.3614C91.0562 61.0974 90.9814 60.7822 90.9814 60.4161C90.9814 59.7574 91.2443 59.2412 91.7689 58.8611C92.295 58.4835 93.0175 58.2935 93.932 58.2935C94.7865 58.2935 95.6205 58.4695 96.4365 58.8221L96.0097 59.8135C95.2139 59.4796 94.4925 59.3134 93.8463 59.3134C93.2766 59.3134 92.8481 59.4038 92.5582 59.584C92.2685 59.7673 92.1236 60.0151 92.1236 60.3352C92.1236 60.5505 92.1787 60.7334 92.2872 60.884C92.3958 61.0366 92.5697 61.1811 92.8118 61.3177C93.0528 61.4543 93.5155 61.6538 94.2011 61.9135C95.1412 62.261 95.7769 62.6109 96.1072 62.9631C96.4375 63.3151 96.6033 63.7578 96.6033 64.2932Z" fill="#1B1918"/>
<path id="path68" fill-rule="evenodd" clip-rule="evenodd" d="M286.659 55.0398C286.888 54.7453 287.134 54.388 287.399 53.9694C287.664 53.5507 287.872 53.1867 288.024 52.8771L289.469 52.877V53.0272C289.259 53.3367 288.947 53.7175 288.532 54.1693C288.118 54.6211 287.758 54.9713 287.453 55.2185H286.659V55.0398ZM289.225 62.0773L288.01 58.8441C287.853 58.4348 287.691 57.9332 287.524 57.338C287.42 57.795 287.269 58.2969 287.074 58.8443L285.844 62.0773H289.225ZM290.906 66.4877L289.605 63.169H285.415L284.128 66.4877H282.898L287.031 56.0105H288.053L292.164 66.4877H290.906Z" fill="#1B1918"/>
<path id="path70" fill-rule="evenodd" clip-rule="evenodd" d="M294.229 61.1712C294.229 61.7182 294.384 62.1322 294.694 62.4131C295.003 62.6934 295.435 62.8343 295.988 62.8343C297.146 62.8343 297.725 62.2729 297.725 61.1501C297.725 59.9746 297.139 59.3867 295.967 59.3867C295.409 59.3866 294.98 59.5368 294.679 59.8365C294.379 60.1361 294.229 60.5813 294.229 61.1712ZM293.586 67.8015C293.586 68.2249 293.764 68.5465 294.122 68.7651C294.479 68.9841 294.992 69.0934 295.659 69.0934C296.655 69.0933 297.393 68.9449 297.872 68.6472C298.351 68.3501 298.59 67.9465 298.59 67.4376C298.59 67.0142 298.459 66.7203 298.197 66.5562C297.935 66.392 297.441 66.31 296.717 66.31H295.295C294.756 66.31 294.337 66.4383 294.036 66.6954C293.736 66.9518 293.586 67.3207 293.586 67.8015ZM299.834 58.6658V59.4153L298.383 59.5867C298.516 59.7533 298.635 59.9711 298.74 60.2394C298.845 60.5084 298.898 60.8119 298.898 61.1501C298.898 61.9161 298.635 62.5269 298.111 62.9839C297.587 63.4408 296.867 63.6689 295.952 63.6689C295.719 63.6689 295.499 63.6502 295.295 63.6118C294.789 63.8783 294.537 64.2138 294.537 64.6183C294.537 64.8323 294.625 64.9908 294.801 65.0932C294.978 65.1953 295.28 65.2463 295.709 65.2463H297.096C297.944 65.2463 298.596 65.425 299.052 65.7818C299.506 66.1385 299.734 66.6574 299.734 67.3379C299.734 68.2036 299.386 68.8637 298.691 69.3182C297.995 69.7727 296.979 70.0001 295.644 70.0001C294.62 70.0001 293.83 69.8095 293.275 69.4288C292.72 69.0482 292.441 68.5105 292.441 67.8162C292.441 67.3398 292.594 66.9286 292.899 66.5811C293.204 66.2341 293.633 65.9983 294.186 65.8748C293.986 65.7838 293.818 65.6436 293.682 65.4535C293.546 65.2629 293.479 65.0422 293.479 64.7898C293.479 64.5041 293.555 64.2543 293.707 64.0404C293.86 63.8257 294.101 63.6192 294.429 63.4191C294.024 63.253 293.694 62.9693 293.439 62.57C293.184 62.1699 293.057 61.7135 293.057 61.1998C293.057 60.3428 293.314 59.6828 293.829 59.2189C294.344 58.7551 295.073 58.5229 296.016 58.5229C296.426 58.5228 296.796 58.5708 297.125 58.6658H299.834Z" fill="#1B1918"/>
<path id="path72" fill-rule="evenodd" clip-rule="evenodd" d="M302.559 58.6655V63.7402C302.559 64.3775 302.704 64.8534 302.995 65.1677C303.285 65.4817 303.74 65.6386 304.36 65.6386C305.18 65.6386 305.779 65.4149 306.158 64.9676C306.537 64.5204 306.727 63.7902 306.727 62.7764V58.6655H307.914V66.4876H306.934L306.763 65.4387H306.698C306.455 65.8246 306.118 66.119 305.686 66.3237C305.255 66.5283 304.763 66.6307 304.21 66.6307C303.257 66.6307 302.543 66.4048 302.069 65.953C301.595 65.5004 301.357 64.7775 301.357 63.783V58.6655H302.559Z" fill="#1B1918"/>
<path id="path74" fill-rule="evenodd" clip-rule="evenodd" d="M312.568 65.6525C313.306 65.6525 313.887 65.4505 314.309 65.0459C314.731 64.6418 314.941 64.0752 314.941 63.3475V62.6412L313.755 62.6911C312.811 62.7244 312.131 62.8708 311.714 63.1299C311.296 63.389 311.088 63.7921 311.088 64.3395C311.088 64.7674 311.218 65.0938 311.478 65.3171C311.737 65.5413 312.101 65.6526 312.568 65.6525ZM315.25 66.4875L315.013 65.3747H314.956C314.565 65.8645 314.175 66.1963 313.787 66.3704C313.399 66.5436 312.913 66.6305 312.332 66.6305C311.555 66.6305 310.946 66.4312 310.505 66.0312C310.065 65.6311 309.844 65.063 309.844 64.3255C309.844 62.7455 311.109 61.9177 313.64 61.8419L314.97 61.7987V61.3131C314.97 60.6997 314.838 60.2464 314.574 59.954C314.309 59.661 313.886 59.5151 313.304 59.5151C312.651 59.515 311.913 59.7144 311.088 60.1145L310.724 59.2082C311.11 58.9982 311.532 58.8347 311.992 58.7159C312.453 58.5969 312.913 58.5371 313.376 58.5371C314.31 58.5371 315.002 58.7439 315.452 59.1582C315.903 59.5715 316.128 60.2355 316.128 61.1496L316.128 66.4875H315.25Z" fill="#1B1918"/>
<path id="path76" fill-rule="evenodd" clip-rule="evenodd" d="M323.629 64.3541C323.629 65.0821 323.357 65.6436 322.814 66.0389C322.27 66.4335 321.507 66.631 320.526 66.631C319.487 66.631 318.676 66.4668 318.095 66.1386V65.0396C318.472 65.2303 318.875 65.3798 319.307 65.4894C319.738 65.5984 320.154 65.653 320.554 65.653C321.174 65.6529 321.651 65.5549 321.984 65.357C322.318 65.1596 322.484 64.8588 322.484 64.4542C322.484 64.1499 322.352 63.8892 322.088 63.6726C321.824 63.456 321.307 63.2004 320.54 62.9056C319.811 62.6338 319.293 62.3975 318.985 62.1955C318.677 61.9929 318.449 61.7634 318.299 61.5068C318.149 61.2498 318.073 60.9428 318.073 60.5861C318.074 59.9481 318.333 59.4449 318.853 59.0761C319.372 58.7073 320.085 58.5229 320.99 58.5229C321.834 58.5228 322.658 58.6943 323.464 59.0372L323.042 60.0005C322.256 59.6771 321.543 59.5155 320.904 59.5155C320.342 59.5154 319.918 59.6033 319.632 59.7794C319.346 59.9554 319.203 60.1979 319.203 60.5076C319.203 60.7167 319.256 60.8949 319.364 61.0424C319.471 61.1899 319.644 61.3307 319.882 61.4636C320.12 61.5966 320.578 61.7899 321.255 62.0418C322.184 62.3798 322.812 62.7201 323.139 63.0624C323.466 63.4049 323.628 63.8357 323.629 64.3541Z" fill="#1B1918"/>
<path id="path78" fill-rule="evenodd" clip-rule="evenodd" d="M329.54 66.4877V56.0537H330.755V65.3889H335.367V66.4877H329.54Z" fill="#1B1918"/>
<path id="path80" fill-rule="evenodd" clip-rule="evenodd" d="M338.149 66.4878H336.962V58.6656H338.149V66.4878ZM336.862 56.546C336.862 56.275 336.928 56.0761 337.062 55.9499C337.195 55.8242 337.362 55.7607 337.563 55.7607C337.753 55.7607 337.917 55.8252 338.056 55.9534C338.194 56.0822 338.263 56.2797 338.263 56.546C338.263 56.8125 338.194 57.0109 338.056 57.1418C337.917 57.2726 337.753 57.3381 337.563 57.3381C337.362 57.3381 337.195 57.2727 337.062 57.1418C336.929 57.0108 336.862 56.8125 336.862 56.546Z" fill="#1B1918"/>
<path id="path82" fill-rule="evenodd" clip-rule="evenodd" d="M346.026 66.4879V61.4277C346.026 60.7906 345.882 60.3148 345.591 60.0007C345.3 59.6864 344.845 59.5295 344.225 59.5295C343.405 59.5295 342.805 59.7509 342.424 60.1934C342.042 60.6357 341.851 61.3666 341.851 62.3845L341.851 66.4879H340.665V58.6658H341.631L341.823 59.7363H341.88C342.123 59.3508 342.464 59.0522 342.903 58.8408C343.341 58.6294 343.83 58.5229 344.368 58.5229C345.312 58.5228 346.022 58.7504 346.499 59.2049C346.976 59.6588 347.214 60.386 347.214 61.3853L347.214 66.4879H346.026Z" fill="#1B1918"/>
<path id="path84" fill-rule="evenodd" clip-rule="evenodd" d="M352.612 65.6386C353.422 65.6386 354.009 65.4184 354.374 64.9785C354.739 64.5381 354.921 63.828 354.921 62.8481L354.921 62.5983C354.921 61.4894 354.736 60.6983 354.367 60.2251C353.998 59.7515 353.408 59.5152 352.598 59.5152C351.902 59.515 351.369 59.7852 351 60.325C350.63 60.865 350.446 61.6275 350.446 62.6123C350.446 63.6114 350.629 64.3657 350.996 64.8751C351.364 65.3842 351.901 65.6386 352.612 65.6386ZM354.985 65.4387H354.921C354.373 66.2338 353.553 66.6306 352.462 66.6306C351.437 66.6306 350.639 66.2811 350.071 65.5815C349.501 64.8823 349.216 63.8878 349.216 62.5983C349.216 61.3084 349.502 60.3073 350.074 59.5931C350.646 58.8793 351.442 58.5226 352.462 58.5226C353.524 58.5225 354.339 58.9085 354.906 59.6792L355 59.6794L354.95 59.1152L354.921 58.5656V55.3823H356.108V66.4876H355.143L354.985 65.4387Z" fill="#1B1918"/>
<path id="path86" fill-rule="evenodd" clip-rule="evenodd" d="M360.762 65.6525C361.501 65.6525 362.081 65.4505 362.503 65.0459C362.926 64.6418 363.136 64.0752 363.136 63.3475V62.6412L361.95 62.6911C361.005 62.7244 360.325 62.8708 359.908 63.1299C359.491 63.389 359.282 63.7921 359.282 64.3395C359.283 64.7674 359.412 65.0938 359.672 65.3171C359.932 65.5413 360.295 65.6526 360.762 65.6525ZM363.444 66.4875L363.207 65.3747H363.15C362.759 65.8645 362.37 66.1963 361.981 66.3704C361.593 66.5436 361.108 66.6305 360.526 66.6305C359.75 66.6305 359.14 66.4312 358.7 66.0312C358.259 65.6311 358.038 65.063 358.038 64.3255C358.038 62.7455 359.304 61.9177 361.835 61.8419L363.164 61.7987V61.3131C363.164 60.6997 363.032 60.2464 362.768 59.954C362.503 59.661 362.08 59.5151 361.499 59.5151C360.846 59.515 360.107 59.7144 359.282 60.1145L358.918 59.2082C359.304 58.9982 359.726 58.8347 360.187 58.7159C360.647 58.5969 361.108 58.5371 361.57 58.5371C362.504 58.5371 363.196 58.7439 363.647 59.1582C364.097 59.5715 364.323 60.2355 364.323 61.1496V66.4875H363.444Z" fill="#1B1918"/>
<path id="path88" fill-rule="evenodd" clip-rule="evenodd" d="M371.822 64.3541C371.822 65.0821 371.55 65.6436 371.007 66.0389C370.464 66.4335 369.701 66.631 368.719 66.631C367.68 66.631 366.869 66.4668 366.288 66.1386L366.289 65.0396C366.665 65.2303 367.069 65.3798 367.5 65.4894C367.931 65.5984 368.347 65.653 368.748 65.653C369.367 65.6529 369.844 65.5549 370.177 65.357C370.511 65.1596 370.678 64.8588 370.678 64.4542C370.678 64.1499 370.546 63.8892 370.281 63.6726C370.017 63.456 369.501 63.2004 368.733 62.9056C368.005 62.6338 367.486 62.3975 367.178 62.1955C366.871 61.9929 366.642 61.7634 366.492 61.5068C366.342 61.2498 366.267 60.9428 366.267 60.5861C366.267 59.9481 366.526 59.4449 367.046 59.0761C367.566 58.7073 368.278 58.5229 369.183 58.5229C370.027 58.5228 370.852 58.6943 371.658 59.0372L371.235 60.0005C370.449 59.6771 369.737 59.5155 369.098 59.5155C368.535 59.5154 368.111 59.6033 367.825 59.7794C367.539 59.9554 367.397 60.1979 367.397 60.5076C367.397 60.7167 367.45 60.8949 367.557 61.0424C367.664 61.1899 367.837 61.3307 368.076 61.4636C368.313 61.5966 368.771 61.7899 369.448 62.0418C370.377 62.3798 371.005 62.7201 371.332 63.0624C371.659 63.4049 371.822 63.8357 371.822 64.3541Z" fill="#1B1918"/>
<path id="path90" fill-rule="evenodd" clip-rule="evenodd" d="M289.504 39.6804C288.32 39.6804 287.388 40.0742 286.705 40.8602C286.021 41.6452 285.68 42.7188 285.68 44.0858C285.68 45.4902 286.009 46.5748 286.667 47.3413C287.328 48.1064 288.269 48.4887 289.487 48.4887C290.236 48.4885 291.094 48.3541 292.053 48.0856V49.1793C291.309 49.4571 290.389 49.5964 289.298 49.5964C287.713 49.5964 286.491 49.1191 285.632 48.1594C284.772 47.2005 284.341 45.8351 284.341 44.0693C284.341 42.964 284.547 41.9954 284.962 41.1638C285.377 40.3317 285.974 39.6919 286.755 39.2401C287.539 38.7903 288.459 38.5659 289.516 38.5659C290.644 38.5659 291.629 38.7716 292.473 39.1825L291.944 40.2528C291.129 39.8727 290.315 39.6806 289.504 39.6804Z" fill="#1B1918"/>
<path id="path92" fill-rule="evenodd" clip-rule="evenodd" d="M296.412 48.5928C297.175 48.5928 297.77 48.3818 298.206 47.967C298.64 47.5518 298.855 46.9682 298.855 46.2197V45.4941L297.636 45.5456C296.665 45.5803 295.966 45.7309 295.537 45.9969C295.108 46.2637 294.893 46.6789 294.893 47.2419C294.893 47.6816 295.027 48.0178 295.294 48.2474C295.56 48.477 295.935 48.5928 296.412 48.5928ZM294.598 40.171C295.221 39.5062 295.657 39.0175 295.907 38.7043C296.158 38.392 296.338 38.1346 296.452 37.9326H297.671C297.78 38.1393 297.967 38.4031 298.234 38.7298C298.501 39.0565 298.941 39.5365 299.555 40.1711L299.555 40.3409H298.679C298.248 40.0717 297.706 39.6174 297.054 38.9755C296.387 39.6314 295.849 40.088 295.444 40.3409H294.598V40.171ZM299.172 49.4503L298.929 48.3055H298.869C298.468 48.8077 298.068 49.1511 297.669 49.3292C297.268 49.5078 296.77 49.5961 296.172 49.5961C295.375 49.5961 294.747 49.3921 294.292 48.9791C293.84 48.5694 293.613 47.9851 293.613 47.2252C293.613 45.6012 294.916 44.7504 297.518 44.6715L298.886 44.6279V44.1297C298.886 43.4965 298.748 43.0308 298.478 42.7296C298.206 42.4282 297.77 42.2802 297.173 42.2802C296.501 42.2801 295.741 42.4843 294.893 42.8967L294.517 41.9629C294.916 41.75 295.349 41.58 295.822 41.4576C296.294 41.3349 296.77 41.2743 297.245 41.2743C298.206 41.2741 298.918 41.4856 299.382 41.9121C299.844 42.3357 300.076 43.0219 300.076 43.9579V49.4503H299.172Z" fill="#1B1918"/>
<path id="path94" fill-rule="evenodd" clip-rule="evenodd" d="M312.861 49.4503V44.2154C312.861 43.5756 312.723 43.0958 312.448 42.7736C312.174 42.4537 311.748 42.2942 311.171 42.2942C310.409 42.2941 309.848 42.5118 309.486 42.9477C309.125 43.3829 308.942 44.0528 308.942 44.9566V49.4503H307.72V44.2154C307.72 43.5756 307.584 43.0958 307.308 42.7736C307.034 42.4537 306.606 42.2942 306.024 42.2942C305.257 42.2941 304.699 42.5213 304.342 42.9803C303.987 43.4369 303.808 44.1874 303.808 45.2303V49.4503H302.588V41.404H303.582L303.781 42.5077H303.839C304.071 42.1161 304.395 41.8077 304.815 41.5875C305.233 41.3693 305.702 41.2607 306.221 41.2607C307.481 41.2607 308.304 41.7146 308.692 42.623H308.75C308.99 42.2039 309.34 41.87 309.794 41.6269C310.251 41.3812 310.77 41.2607 311.354 41.2607C312.264 41.2607 312.948 41.4919 313.401 41.9608C313.855 42.4282 314.082 43.1751 314.082 44.2035V49.4503H312.861Z" fill="#1B1918"/>
<path id="path96" fill-rule="evenodd" clip-rule="evenodd" d="M320.17 42.2941C319.347 42.2941 318.752 42.5213 318.383 42.9752C318.015 43.4317 317.827 44.1547 317.816 45.1488L317.816 45.4203C317.816 46.5511 318.006 47.3598 318.383 47.8464C318.761 48.333 319.366 48.5766 320.2 48.5766C320.896 48.5765 321.44 48.2962 321.836 47.7327C322.23 47.1696 322.428 46.3938 322.428 45.4044C322.428 44.403 322.23 43.6333 321.836 43.0978C321.44 42.5632 320.884 42.2942 320.17 42.2941ZM320.346 49.5961C319.823 49.5961 319.343 49.5006 318.909 49.3064C318.476 49.1141 318.112 48.815 317.816 48.4162H317.73C317.788 48.8851 317.816 49.3292 317.816 49.7515L317.816 53.0628H316.597V41.404H317.589L317.758 42.5077H317.816C318.13 42.0674 318.497 41.75 318.911 41.5531C319.329 41.3582 319.806 41.2607 320.346 41.2607C321.414 41.2607 322.24 41.6243 322.821 42.3524C323.403 43.0821 323.692 44.1042 323.692 45.4205C323.692 46.7412 323.396 47.7675 322.805 48.4977C322.214 49.2319 321.396 49.5961 320.346 49.5961Z" fill="#1B1918"/>
<path id="path98" fill-rule="evenodd" clip-rule="evenodd" d="M326.972 41.4043V46.623C326.972 47.279 327.12 47.7704 327.421 48.0925C327.717 48.4165 328.186 48.5769 328.823 48.5769C329.666 48.5768 330.283 48.348 330.672 47.8862C331.062 47.4276 331.256 46.6766 331.256 45.6337V41.4043H332.477V49.4506H331.469L331.293 48.3707H331.228C330.978 48.7664 330.631 49.0729 330.187 49.2812C329.743 49.492 329.238 49.5964 328.67 49.5964C327.687 49.5964 326.955 49.3649 326.466 48.8989C325.98 48.4356 325.736 47.6914 325.736 46.6698L325.737 41.4043H326.972Z" fill="#1B1918"/>
<path id="path100" fill-rule="evenodd" clip-rule="evenodd" d="M340.263 47.2559C340.263 48.0043 339.985 48.5813 339.424 48.9865C338.865 49.3942 338.082 49.5961 337.072 49.5961C336.004 49.5961 335.169 49.4295 334.572 49.0909V47.9601C334.959 48.1565 335.376 48.3097 335.818 48.4234C336.263 48.5351 336.69 48.5929 337.102 48.5929C337.737 48.5929 338.228 48.4884 338.571 48.2863C338.914 48.0827 339.085 47.7747 339.085 47.3572C339.086 47.0449 338.951 46.778 338.678 46.5558C338.406 46.3334 337.876 46.0691 337.085 45.7658C336.337 45.4879 335.805 45.2417 335.487 45.0356C335.171 44.8266 334.935 44.5903 334.782 44.3261C334.629 44.0627 334.551 43.7469 334.551 43.3788C334.551 42.7248 334.817 42.2061 335.352 41.8285C335.886 41.4482 336.618 41.2607 337.549 41.2607C338.419 41.2607 339.267 41.4342 340.094 41.7894L339.661 42.7783C338.852 42.4443 338.12 42.2802 337.461 42.2802C336.885 42.2801 336.449 42.3686 336.152 42.5492C335.86 42.7321 335.712 42.9824 335.712 43.2998C335.712 43.5152 335.767 43.6982 335.876 43.8492C335.987 43.9999 336.166 44.1459 336.409 44.2826C336.657 44.419 337.125 44.6185 337.822 44.8756C338.778 45.2256 339.424 45.5757 339.76 45.9279C340.096 46.2799 340.263 46.7225 340.263 47.2559Z" fill="#1B1918"/>
</g>
</svg>
