<svg width="445" height="243" viewBox="0 0 445 243" fill="none" xmlns="http://www.w3.org/2000/svg">
<g id="Vector">
<path d="M61.8554 120.301C61.8554 120.301 53.9521 119.918 50.0434 119.145C38.2986 116.824 27.5104 111.096 19.0429 102.683C10.5754 94.271 4.80893 83.5533 2.47274 71.8853C0.136562 60.2173 1.33557 48.123 5.91815 37.1319C10.5007 26.1408 18.2611 16.7467 28.2178 10.1372C38.1746 3.52777 49.8805 0 61.8554 0V19.1826C53.6993 19.1826 45.7266 21.5854 38.9452 26.0869C32.1638 30.5887 26.8783 36.9869 23.7571 44.4728C20.636 51.9586 19.8194 60.1959 21.4104 68.1428C23.0016 76.0899 26.9291 83.3897 32.6963 89.119C38.4633 94.8486 45.8111 98.7504 53.8104 100.331C56.4725 100.857 61.8554 101.118 61.8554 101.118V120.301Z" fill="#FCFCFC"/>
<path fill-rule="evenodd" clip-rule="evenodd" d="M103.216 94.3618C103.77 97.7903 104.027 101.275 103.975 104.779C103.799 116.674 100.077 128.251 93.2791 138.044C86.481 147.838 76.9121 155.409 65.7828 159.8C54.6535 164.191 42.4634 165.205 30.7544 162.713C19.045 160.222 8.34247 154.336 0 145.802L13.8521 132.438C19.534 138.251 26.8235 142.259 34.7985 143.956C42.7734 145.653 51.0759 144.963 58.656 141.972C66.236 138.981 72.7533 133.825 77.3834 127.154C82.0135 120.484 84.5487 112.599 84.6682 104.498C84.6957 102.637 84.5954 100.784 84.3708 98.9505L103.216 94.3618Z" fill="#FCFCFC"/>
<path fill-rule="evenodd" clip-rule="evenodd" d="M95.6503 71.5549C93.485 68.231 88.256 62.3311 88.256 62.3311L74.4038 75.6951C74.4038 75.6951 77.9653 79.7134 79.4401 81.9772C80.8174 84.0915 81.9888 86.317 82.9458 88.6236L101.068 81.9772C99.6155 78.3532 97.8043 74.8613 95.6503 71.5549Z" fill="#FCFCFC"/>
<path d="M97.7835 243C97.7835 243 92.4402 237.202 90.2103 233.921C83.51 224.061 79.9036 212.448 79.8464 200.551C79.7895 188.655 83.2848 177.009 89.8902 167.086C96.4955 157.162 105.914 149.408 116.956 144.803C127.997 140.198 140.165 138.95 151.921 141.215C163.677 143.48 174.492 149.158 183 157.53L169.412 171.159C163.617 165.457 156.251 161.59 148.244 160.047C140.237 158.504 131.95 159.354 124.43 162.491C116.91 165.627 110.495 170.908 105.996 177.667C101.497 184.425 99.1163 192.357 99.1551 200.46C99.194 208.563 101.65 216.472 106.214 223.188C107.732 225.423 111.372 229.371 111.372 229.371L97.7835 243Z" fill="#FCFCFC"/>
<path d="M125 21.5302C125 17.389 125.923 13.69 127.769 10.4334C129.655 7.13651 132.203 4.58345 135.413 2.77419C138.663 0.924731 142.294 0 146.307 0C151.002 0 155.114 1.20617 158.645 3.61851C162.177 6.03086 164.644 9.36793 166.049 13.6297H156.358C155.395 11.6194 154.031 10.1117 152.265 9.10659C150.54 8.10145 148.534 7.59888 146.247 7.59888C143.799 7.59888 141.612 8.18186 139.686 9.34783C137.8 10.4736 136.315 12.0818 135.232 14.1725C134.189 16.2632 133.667 18.7158 133.667 21.5302C133.667 24.3043 134.189 26.7569 135.232 28.8878C136.315 30.9785 137.8 32.6068 139.686 33.7728C141.612 34.8985 143.799 35.4614 146.247 35.4614C148.534 35.4614 150.54 34.9589 152.265 33.9537C154.031 32.9084 155.395 31.3806 156.358 29.3703H166.049C164.644 33.6723 162.177 37.0294 158.645 39.4418C155.155 41.8139 151.042 43 146.307 43C142.294 43 138.663 42.0954 135.413 40.2861C132.203 38.4367 129.655 35.8836 127.769 32.6269C125.923 29.3703 125 25.6713 125 21.5302ZM181.672 0.542776V42.6381H173.246V0.542776H181.672ZM187.951 21.5302C187.951 17.389 188.874 13.69 190.72 10.4334C192.606 7.13651 195.154 4.58345 198.364 2.77419C201.614 0.924731 205.246 0 209.258 0C213.953 0 218.066 1.20617 221.597 3.61851C225.128 6.03086 227.596 9.36793 229 13.6297H219.31C218.347 11.6194 216.982 10.1117 215.217 9.10659C213.491 8.10145 211.485 7.59888 209.198 7.59888C206.75 7.59888 204.563 8.18186 202.637 9.34783C200.751 10.4736 199.267 12.0818 198.183 14.1725C197.14 16.2632 196.618 18.7158 196.618 21.5302C196.618 24.3043 197.14 26.7569 198.183 28.8878C199.267 30.9785 200.751 32.6068 202.637 33.7728C204.563 34.8985 206.75 35.4614 209.198 35.4614C211.485 35.4614 213.491 34.9589 215.217 33.9537C216.982 32.9084 218.347 31.3806 219.31 29.3703H229C227.596 33.6723 225.128 37.0294 221.597 39.4418C218.106 41.8139 213.993 43 209.258 43C205.246 43 201.614 42.0954 198.364 40.2861C195.154 38.4367 192.606 35.8836 190.72 32.6269C188.874 29.3703 187.951 25.6713 187.951 21.5302Z" fill="#FCFCFC"/>
<path d="M124 73.0209C124 70.7564 124.524 68.725 125.573 66.9267C126.643 65.1284 128.082 63.7298 129.889 62.7307C131.718 61.7094 133.715 61.1989 135.878 61.1989C138.355 61.1989 140.552 61.8093 142.47 63.0304C144.411 64.2293 145.816 65.9387 146.686 68.1589H142.102C141.5 66.9377 140.663 66.0276 139.593 65.4282C138.522 64.8287 137.284 64.529 135.878 64.529C134.339 64.529 132.967 64.873 131.763 65.5614C130.558 66.2497 129.61 67.2374 128.919 68.5252C128.249 69.813 127.915 71.3116 127.915 73.0209C127.915 74.7303 128.249 76.2289 128.919 77.5167C129.61 78.8044 130.558 79.8035 131.763 80.5138C132.967 81.2021 134.339 81.5461 135.878 81.5461C137.284 81.5461 138.522 81.2464 139.593 80.647C140.663 80.0476 141.5 79.1374 142.102 77.9163H146.686C145.816 80.1365 144.411 81.8459 142.47 83.0447C140.552 84.2436 138.355 84.843 135.878 84.843C133.693 84.843 131.696 84.3435 129.889 83.3444C128.082 82.3231 126.643 80.9134 125.573 79.1151C124.524 77.3168 124 75.2854 124 73.0209ZM159.148 84.9429C157.408 84.9429 155.836 84.5543 154.43 83.7774C153.025 82.9781 151.921 81.8682 151.118 80.4472C150.315 79.0042 149.913 77.3392 149.913 75.452C149.913 73.5871 150.326 71.933 151.151 70.49C151.976 69.047 153.103 67.9368 154.531 67.1599C155.958 66.3829 157.553 65.9943 159.316 65.9943C161.078 65.9943 162.673 66.3829 164.1 67.1599C165.528 67.9368 166.655 69.047 167.48 70.49C168.305 71.933 168.718 73.5871 168.718 75.452C168.718 77.3168 168.294 78.9709 167.447 80.4139C166.599 81.8569 165.439 82.9781 163.967 83.7774C162.516 84.5543 160.91 84.9429 159.148 84.9429ZM159.148 81.646C160.13 81.646 161.044 81.4129 161.892 80.9467C162.762 80.4805 163.465 79.7812 164 78.8487C164.535 77.9163 164.803 76.784 164.803 75.452C164.803 74.1199 164.547 72.9986 164.034 72.0885C163.52 71.156 162.84 70.4567 161.992 69.9905C161.145 69.5243 160.23 69.2912 159.249 69.2912C158.267 69.2912 157.352 69.5243 156.505 69.9905C155.679 70.4567 155.021 71.156 154.531 72.0885C154.04 72.9986 153.795 74.1199 153.795 75.452C153.795 77.4277 154.297 78.9596 155.3 80.0476C156.326 81.1132 157.609 81.646 159.148 81.646ZM181.791 65.9943C183.241 65.9943 184.535 66.294 185.672 66.8934C186.832 67.4929 187.736 68.381 188.382 69.5576C189.029 70.7341 189.353 72.1551 189.353 73.8202V84.6432H185.572V74.3863C185.572 72.7435 185.159 71.4891 184.334 70.6232C183.508 69.7351 182.382 69.2912 180.954 69.2912C179.526 69.2912 178.389 69.7351 177.541 70.6232C176.716 71.4891 176.303 72.7435 176.303 74.3863V84.6432H172.489V66.294H176.303V68.392C176.928 67.6371 177.72 67.049 178.679 66.627C179.66 66.2051 180.698 65.9943 181.791 65.9943ZM201.647 65.9943C203.074 65.9943 204.335 66.283 205.428 66.8601C206.543 67.4153 207.413 68.1146 208.038 68.9581V66.294H211.886V84.9429C211.886 86.6303 211.529 88.1289 210.815 89.4386C210.101 90.7707 209.064 91.814 207.703 92.569C206.365 93.3239 204.759 93.7012 202.885 93.7012C200.386 93.7012 198.312 93.1128 196.661 91.9362C195.01 90.7817 194.073 89.2055 193.851 87.2074H197.632C197.921 88.1622 198.535 88.9281 199.472 89.5052C200.431 90.1047 201.569 90.4044 202.885 90.4044C204.424 90.4044 205.662 89.9382 206.599 89.0057C207.558 88.0733 208.038 86.7189 208.038 84.9429V81.8792C207.391 82.745 206.51 83.4776 205.395 84.0771C204.301 84.6542 203.052 84.9429 201.647 84.9429C200.041 84.9429 198.569 84.5433 197.23 83.744C195.914 82.9225 194.865 81.7903 194.085 80.3473C193.326 78.882 192.947 77.2279 192.947 75.3854C192.947 73.5428 193.326 71.911 194.085 70.49C194.865 69.069 195.914 67.9701 197.23 67.1931C198.569 66.3939 200.041 65.9943 201.647 65.9943ZM208.038 75.452C208.038 74.1865 207.77 73.0875 207.235 72.1551C206.722 71.2226 206.041 70.5123 205.194 70.0238C204.346 69.5353 203.431 69.2912 202.45 69.2912C201.468 69.2912 200.554 69.5353 199.706 70.0238C198.858 70.49 198.167 71.1893 197.632 72.1218C197.118 73.0319 196.862 74.1199 196.862 75.3854C196.862 76.6508 197.118 77.7608 197.632 78.7155C198.167 79.6703 198.858 80.4029 199.706 80.9134C200.576 81.402 201.491 81.646 202.45 81.646C203.431 81.646 204.346 81.402 205.194 80.9134C206.041 80.4249 206.722 79.7146 207.235 78.7821C207.77 77.8274 208.038 76.7174 208.038 75.452ZM220.71 68.9581C221.268 68.0257 222.004 67.304 222.919 66.7935C223.856 66.2607 224.96 65.9943 226.231 65.9943V69.9239H225.261C223.766 69.9239 222.629 70.3012 221.848 71.0561C221.09 71.8111 220.71 73.1208 220.71 74.9857V84.6432H216.896V66.294H220.71V68.9581ZM246.635 75.019C246.635 75.7074 246.591 76.3288 246.501 76.8839H232.415C232.526 78.3492 233.073 79.5257 234.054 80.4139C235.036 81.302 236.24 81.746 237.668 81.746C239.72 81.746 241.17 80.8911 242.018 79.1817H246.133C245.576 80.8691 244.561 82.2565 243.089 83.3444C241.639 84.4101 239.832 84.9429 237.668 84.9429C235.906 84.9429 234.322 84.5543 232.917 83.7774C231.534 82.9781 230.44 81.8682 229.637 80.4472C228.857 79.0042 228.466 77.3392 228.466 75.452C228.466 73.5648 228.845 71.911 229.604 70.49C230.385 69.047 231.467 67.9368 232.85 67.1599C234.255 66.3829 235.861 65.9943 237.668 65.9943C239.408 65.9943 240.958 66.3716 242.319 67.1265C243.68 67.8815 244.739 68.9471 245.498 70.3235C246.256 71.6779 246.635 73.243 246.635 75.019ZM242.654 73.8202C242.631 72.4215 242.129 71.3002 241.148 70.4567C240.166 69.6132 238.95 69.1912 237.501 69.1912C236.185 69.1912 235.058 69.6132 234.121 70.4567C233.184 71.2783 232.626 72.3992 232.448 73.8202H242.654ZM257.082 84.9429C255.63 84.9429 254.325 84.6875 253.167 84.177C252.03 83.6441 251.125 82.9338 250.456 82.0457C249.787 81.1355 249.43 80.1252 249.385 79.0152H253.334C253.401 79.7922 253.769 80.4472 254.439 80.98C255.128 81.4905 255.988 81.746 257.015 81.746C258.086 81.746 258.909 81.5462 259.491 81.1465C260.094 80.7246 260.395 80.1918 260.395 79.548C260.395 78.8597 260.06 78.3492 259.391 78.0162C258.742 77.6832 257.704 77.3168 256.279 76.9172C254.894 76.5399 253.769 76.1736 252.899 75.8183C252.03 75.4629 251.27 74.9191 250.624 74.1865C249.999 73.4539 249.687 72.4881 249.687 71.2892C249.687 70.3125 249.976 69.4244 250.557 68.6251C251.136 67.8036 251.963 67.1599 253.033 66.6936C254.124 66.2274 255.376 65.9943 256.781 65.9943C258.876 65.9943 260.562 66.5271 261.833 67.5928C263.125 68.6361 263.818 70.0681 263.908 71.8887H260.094C260.027 71.0671 259.692 70.4124 259.09 69.9239C258.487 69.4353 257.671 69.1912 256.647 69.1912C255.643 69.1912 254.874 69.3801 254.338 69.7574C253.803 70.1347 253.535 70.6342 253.535 71.2559C253.535 71.7445 253.713 72.1551 254.071 72.4881C254.425 72.8211 254.86 73.0875 255.376 73.2873C255.888 73.4648 256.647 73.698 257.651 73.9867C258.989 74.342 260.08 74.7083 260.93 75.0856C261.8 75.441 262.546 75.9738 263.172 76.6841C263.794 77.3944 264.119 78.3382 264.142 79.5147C264.142 80.5581 263.851 81.4905 263.272 82.3121C262.69 83.1336 261.867 83.7774 260.796 84.2436C259.746 84.7098 258.507 84.9429 257.082 84.9429ZM274.957 84.9429C273.504 84.9429 272.2 84.6875 271.042 84.177C269.904 83.6441 269.001 82.9338 268.332 82.0457C267.662 81.1355 267.304 80.1252 267.261 79.0152H271.209C271.276 79.7922 271.644 80.4472 272.313 80.98C273.003 81.4905 273.863 81.746 274.89 81.746C275.961 81.746 276.784 81.5462 277.366 81.1465C277.968 80.7246 278.269 80.1918 278.269 79.548C278.269 78.8597 277.935 78.3492 277.265 78.0162C276.616 77.6832 275.579 77.3168 274.154 76.9172C272.768 76.5399 271.644 76.1736 270.774 75.8183C269.904 75.4629 269.145 74.9191 268.499 74.1865C267.873 73.4539 267.562 72.4881 267.562 71.2892C267.562 70.3125 267.85 69.4244 268.432 68.6251C269.011 67.8036 269.837 67.1599 270.908 66.6936C271.999 66.2274 273.25 65.9943 274.656 65.9943C276.75 65.9943 278.437 66.5271 279.708 67.5928C281 68.6361 281.692 70.0681 281.783 71.8887H277.968C277.901 71.0671 277.567 70.4124 276.964 69.9239C276.362 69.4353 275.546 69.1912 274.522 69.1912C273.518 69.1912 272.748 69.3801 272.213 69.7574C271.678 70.1347 271.41 70.6342 271.41 71.2559C271.41 71.7445 271.587 72.1551 271.945 72.4881C272.3 72.8211 272.735 73.0875 273.25 73.2873C273.762 73.4648 274.522 73.698 275.526 73.9867C276.864 74.342 277.955 74.7083 278.805 75.0856C279.675 75.441 280.421 75.9738 281.047 76.6841C281.669 77.3944 281.993 78.3382 282.017 79.5147C282.017 80.5581 281.726 81.4905 281.147 82.3121C280.565 83.1336 279.742 83.7774 278.671 84.2436C277.62 84.7098 276.382 84.9429 274.957 84.9429ZM294.133 84.9429C292.393 84.9429 290.82 84.5543 289.415 83.7774C288.01 82.9781 286.905 81.8682 286.102 80.4472C285.299 79.0042 284.898 77.3392 284.898 75.452C284.898 73.5871 285.313 71.933 286.136 70.49C286.962 69.047 288.09 67.9368 289.515 67.1599C290.944 66.3829 292.54 65.9943 294.3 65.9943C296.064 65.9943 297.66 66.3829 299.085 67.1599C300.514 67.9368 301.642 69.047 302.465 70.49C303.291 71.933 303.703 73.5871 303.703 75.452C303.703 77.3168 303.281 78.9709 302.431 80.4139C301.585 81.8569 300.424 82.9781 298.951 83.7774C297.502 84.5543 295.896 84.9429 294.133 84.9429ZM294.133 81.646C295.117 81.646 296.03 81.4129 296.877 80.9467C297.747 80.4805 298.449 79.7812 298.985 78.8487C299.52 77.9163 299.788 76.784 299.788 75.452C299.788 74.1199 299.533 72.9986 299.018 72.0885C298.506 71.156 297.827 70.4567 296.977 69.9905C296.131 69.5243 295.217 69.2912 294.233 69.2912C293.253 69.2912 292.339 69.5243 291.49 69.9905C290.666 70.4567 290.007 71.156 289.515 72.0885C289.027 72.9986 288.779 74.1199 288.779 75.452C288.779 77.4277 289.281 78.9596 290.285 80.0476C291.312 81.1132 292.594 81.646 294.133 81.646ZM314.895 75.3854C314.895 73.5428 315.273 71.911 316.033 70.49C316.813 69.069 317.863 67.9701 319.178 67.1931C320.517 66.3939 321.999 65.9943 323.628 65.9943C324.833 65.9943 326.014 66.2607 327.175 66.7935C328.356 67.304 329.293 67.9924 329.986 68.8582V60H333.834V84.6432H329.986V81.8792C329.36 82.7673 328.49 83.5 327.376 84.0771C326.282 84.6542 325.024 84.9429 323.595 84.9429C321.989 84.9429 320.517 84.5433 319.178 83.744C317.863 82.9225 316.813 81.7903 316.033 80.3473C315.273 78.882 314.895 77.2279 314.895 75.3854ZM329.986 75.452C329.986 74.1865 329.718 73.0875 329.183 72.1551C328.671 71.2226 327.988 70.5123 327.142 70.0238C326.295 69.5353 325.378 69.2912 324.398 69.2912C323.418 69.2912 322.501 69.5353 321.654 70.0238C320.808 70.49 320.115 71.1893 319.58 72.1218C319.068 73.0319 318.81 74.1199 318.81 75.3854C318.81 76.6508 319.068 77.7608 319.58 78.7155C320.115 79.6703 320.808 80.4029 321.654 80.9134C322.524 81.402 323.438 81.646 324.398 81.646C325.378 81.646 326.295 81.402 327.142 80.9134C327.988 80.4249 328.671 79.7146 329.183 78.7821C329.718 77.8274 329.986 76.7174 329.986 75.452ZM355.741 75.019C355.741 75.7074 355.697 76.3288 355.607 76.8839H341.52C341.634 78.3492 342.179 79.5257 343.159 80.4139C344.143 81.302 345.348 81.746 346.773 81.746C348.828 81.746 350.276 80.8911 351.123 79.1817H355.239C354.683 80.8691 353.666 82.2565 352.194 83.3444C350.745 84.4101 348.938 84.9429 346.773 84.9429C345.013 84.9429 343.427 84.5543 342.022 83.7774C340.64 82.9781 339.546 81.8682 338.743 80.4472C337.963 79.0042 337.571 77.3392 337.571 75.452C337.571 73.5648 337.953 71.911 338.709 70.49C339.492 69.047 340.573 67.9368 341.955 67.1599C343.36 66.3829 344.966 65.9943 346.773 65.9943C348.513 65.9943 350.066 66.3716 351.424 67.1265C352.786 67.8815 353.847 68.9471 354.603 70.3235C355.362 71.6779 355.741 73.243 355.741 75.019ZM351.759 73.8202C351.739 72.4215 351.237 71.3002 350.253 70.4567C349.273 69.6132 348.058 69.1912 346.606 69.1912C345.291 69.1912 344.163 69.6132 343.226 70.4567C342.289 71.2783 341.734 72.3992 341.553 73.8202H351.759ZM129.086 98.1304V121.275H125.272V98.1304H129.086ZM143.396 102.626C144.846 102.626 146.14 102.926 147.278 103.525C148.438 104.125 149.341 105.013 149.988 106.189C150.635 107.366 150.958 108.787 150.958 110.452V121.275H147.177V111.018C147.177 109.375 146.765 108.121 145.939 107.255C145.114 106.367 143.987 105.923 142.56 105.923C141.132 105.923 139.994 106.367 139.147 107.255C138.321 108.121 137.909 109.375 137.909 111.018V121.275H134.094V102.926H137.909V105.024C138.533 104.269 139.325 103.681 140.284 103.259C141.266 102.837 142.303 102.626 143.396 102.626ZM157.764 100.495C157.073 100.495 156.493 100.262 156.024 99.7954C155.556 99.3292 155.322 98.7521 155.322 98.0638C155.322 97.3754 155.556 96.7983 156.024 96.3321C156.493 95.8658 157.073 95.6327 157.764 95.6327C158.434 95.6327 159.002 95.8658 159.471 96.3321C159.939 96.7983 160.174 97.3754 160.174 98.0638C160.174 98.7521 159.939 99.3292 159.471 99.7954C159.002 100.262 158.434 100.495 157.764 100.495ZM159.638 102.926V121.275H155.824V102.926H159.638ZM163.375 112.084C163.375 110.197 163.754 108.543 164.513 107.122C165.293 105.679 166.364 104.569 167.725 103.792C169.085 103.015 170.647 102.626 172.409 102.626C174.64 102.626 176.48 103.159 177.93 104.225C179.403 105.268 180.395 106.766 180.908 108.72H176.793C176.458 107.81 175.923 107.099 175.187 106.589C174.451 106.078 173.525 105.823 172.409 105.823C170.848 105.823 169.599 106.378 168.662 107.488C167.747 108.576 167.29 110.108 167.29 112.084C167.29 114.06 167.747 115.603 168.662 116.713C169.599 117.823 170.848 118.378 172.409 118.378C174.618 118.378 176.079 117.412 176.793 115.48H180.908C180.373 117.345 179.369 118.833 177.897 119.943C176.425 121.031 174.595 121.575 172.409 121.575C170.647 121.575 169.085 121.186 167.725 120.409C166.364 119.61 165.293 118.5 164.513 117.079C163.754 115.636 163.375 113.971 163.375 112.084ZM186.651 100.495C185.959 100.495 185.379 100.262 184.911 99.7954C184.442 99.3292 184.208 98.7521 184.208 98.0638C184.208 97.3754 184.442 96.7983 184.911 96.3321C185.379 95.8658 185.959 95.6327 186.651 95.6327C187.32 95.6327 187.889 95.8658 188.357 96.3321C188.826 96.7983 189.06 97.3754 189.06 98.0638C189.06 98.7521 188.826 99.3292 188.357 99.7954C187.889 100.262 187.32 100.495 186.651 100.495ZM188.524 102.926V121.275H184.71V102.926H188.524ZM192.261 112.017C192.261 110.175 192.64 108.543 193.399 107.122C194.179 105.701 195.228 104.602 196.544 103.825C197.882 103.026 199.355 102.626 200.961 102.626C202.411 102.626 203.671 102.915 204.742 103.492C205.835 104.047 206.704 104.746 207.352 105.59V102.926H211.2V121.275H207.352V118.544C206.704 119.41 205.823 120.132 204.708 120.709C203.593 121.286 202.321 121.575 200.894 121.575C199.31 121.575 197.86 121.175 196.544 120.376C195.228 119.554 194.179 118.422 193.399 116.979C192.64 115.514 192.261 113.86 192.261 112.017ZM207.352 112.084C207.352 110.818 207.084 109.719 206.549 108.787C206.035 107.854 205.355 107.144 204.507 106.656C203.66 106.167 202.745 105.923 201.764 105.923C200.782 105.923 199.867 106.167 199.02 106.656C198.172 107.122 197.481 107.821 196.945 108.754C196.432 109.664 196.176 110.752 196.176 112.017C196.176 113.283 196.432 114.393 196.945 115.347C197.481 116.302 198.172 117.035 199.02 117.545C199.89 118.034 200.804 118.278 201.764 118.278C202.745 118.278 203.66 118.034 204.507 117.545C205.355 117.057 206.035 116.346 206.549 115.414C207.084 114.459 207.352 113.349 207.352 112.084ZM223.972 118.378C226.181 118.378 227.642 117.412 228.356 115.48H232.471C231.981 117.168 231.1 118.555 229.828 119.643C228.579 120.709 227.006 121.331 225.11 121.508V122.873C226.404 122.873 227.452 123.173 228.255 123.773C229.058 124.394 229.46 125.26 229.46 126.37C229.46 127.48 229.058 128.357 228.255 129.001C227.452 129.667 226.438 130 225.211 130H220.794V127.602H224.441C225.066 127.602 225.534 127.513 225.846 127.336C226.159 127.158 226.315 126.836 226.315 126.37C226.315 125.904 226.159 125.582 225.846 125.404C225.534 125.227 225.066 125.138 224.441 125.138H222.601V121.475C221.084 121.297 219.745 120.798 218.585 119.976C217.426 119.133 216.522 118.045 215.875 116.713C215.251 115.358 214.938 113.815 214.938 112.084C214.938 110.197 215.318 108.543 216.076 107.122C216.857 105.679 217.928 104.569 219.288 103.792C220.649 103.015 222.21 102.626 223.972 102.626C226.203 102.626 228.044 103.159 229.493 104.225C230.966 105.268 231.959 106.766 232.471 108.72H228.356C228.021 107.81 227.486 107.099 226.75 106.589C226.014 106.078 225.088 105.823 223.972 105.823C222.411 105.823 221.162 106.378 220.225 107.488C219.31 108.576 218.853 110.108 218.853 112.084C218.853 114.06 219.31 115.603 220.225 116.713C221.162 117.823 222.411 118.378 223.972 118.378ZM235.001 112.017C235.001 110.175 235.381 108.543 236.139 107.122C236.92 105.701 237.968 104.602 239.284 103.825C240.623 103.026 242.095 102.626 243.701 102.626C245.151 102.626 246.411 102.915 247.482 103.492C248.575 104.047 249.445 104.746 250.092 105.59V102.926H253.94V121.275H250.092V118.544C249.445 119.41 248.564 120.132 247.449 120.709C246.334 121.286 245.062 121.575 243.634 121.575C242.051 121.575 240.6 121.175 239.284 120.376C237.968 119.554 236.92 118.422 236.139 116.979C235.381 115.514 235.001 113.86 235.001 112.017ZM250.092 112.084C250.092 110.818 249.824 109.719 249.289 108.787C248.776 107.854 248.096 107.144 247.248 106.656C246.4 106.167 245.486 105.923 244.504 105.923C243.523 105.923 242.608 106.167 241.76 106.656C240.913 107.122 240.221 107.821 239.686 108.754C239.173 109.664 238.916 110.752 238.916 112.017C238.916 113.283 239.173 114.393 239.686 115.347C240.221 116.302 240.913 117.035 241.76 117.545C242.63 118.034 243.545 118.278 244.504 118.278C245.486 118.278 246.4 118.034 247.248 117.545C248.096 117.057 248.776 116.346 249.289 115.414C249.824 114.459 250.092 113.349 250.092 112.084ZM239.652 101.028C239.831 99.7398 240.255 98.7741 240.924 98.1304C241.593 97.4643 242.43 97.1313 243.433 97.1313C243.857 97.1313 244.226 97.1979 244.538 97.3311C244.85 97.4643 245.229 97.6641 245.675 97.9305C246.01 98.1527 246.289 98.3192 246.512 98.4301C246.757 98.541 247.025 98.5966 247.315 98.5966C247.694 98.5966 248.007 98.4857 248.252 98.2636C248.52 98.0195 248.687 97.6641 248.754 97.1979H250.895C250.717 98.4857 250.293 99.4624 249.624 100.128C248.954 100.772 248.118 101.094 247.114 101.094C246.69 101.094 246.311 101.028 245.977 100.894C245.642 100.739 245.274 100.528 244.872 100.262C244.471 100.018 244.159 99.8511 243.935 99.7621C243.735 99.6512 243.5 99.5956 243.233 99.5956C242.854 99.5956 242.53 99.7178 242.262 99.9619C242.017 100.206 241.861 100.561 241.794 101.028H239.652ZM266.946 121.575C265.206 121.575 263.634 121.186 262.228 120.409C260.823 119.61 259.719 118.5 258.916 117.079C258.113 115.636 257.711 113.971 257.711 112.084C257.711 110.219 258.126 108.565 258.949 107.122C259.776 105.679 260.903 104.569 262.329 103.792C263.757 103.015 265.353 102.626 267.114 102.626C268.877 102.626 270.473 103.015 271.898 103.792C273.327 104.569 274.455 105.679 275.278 107.122C276.104 108.565 276.516 110.219 276.516 112.084C276.516 113.949 276.094 115.603 275.244 117.046C274.398 118.489 273.237 119.61 271.765 120.409C270.316 121.186 268.71 121.575 266.946 121.575ZM266.946 118.278C267.93 118.278 268.843 118.045 269.69 117.578C270.56 117.112 271.263 116.413 271.798 115.48C272.333 114.548 272.601 113.416 272.601 112.084C272.601 110.752 272.347 109.63 271.831 108.72C271.32 107.788 270.64 107.088 269.79 106.622C268.944 106.156 268.03 105.923 267.047 105.923C266.066 105.923 265.153 106.156 264.303 106.622C263.48 107.088 262.821 107.788 262.329 108.72C261.84 109.63 261.593 110.752 261.593 112.084C261.593 114.06 262.094 115.591 263.098 116.679C264.126 117.745 265.407 118.278 266.946 118.278ZM287.709 109.653C287.709 107.388 288.234 105.357 289.281 103.559C290.352 101.76 291.791 100.362 293.598 99.3625C295.428 98.3411 297.422 97.8306 299.587 97.8306C302.063 97.8306 304.261 98.4411 306.179 99.6622C308.119 100.861 309.525 102.57 310.395 104.791H305.811C305.208 103.57 304.372 102.659 303.301 102.06C302.23 101.461 300.992 101.161 299.587 101.161C298.048 101.161 296.676 101.505 295.471 102.193C294.267 102.882 293.32 103.869 292.627 105.157C291.958 106.445 291.623 107.943 291.623 109.653C291.623 111.362 291.958 112.861 292.627 114.148C293.32 115.436 294.267 116.435 295.471 117.146C296.676 117.834 298.048 118.178 299.587 118.178C300.992 118.178 302.23 117.878 303.301 117.279C304.372 116.679 305.208 115.769 305.811 114.548H310.395C309.525 116.768 308.119 118.478 306.179 119.677C304.261 120.875 302.063 121.475 299.587 121.475C297.402 121.475 295.404 120.975 293.598 119.976C291.791 118.955 290.352 117.545 289.281 115.747C288.234 113.949 287.709 111.917 287.709 109.653ZM316.799 100.495C316.11 100.495 315.528 100.262 315.059 99.7954C314.591 99.3292 314.357 98.7521 314.357 98.0638C314.357 97.3754 314.591 96.7983 315.059 96.3321C315.528 95.8658 316.11 95.6327 316.799 95.6327C317.468 95.6327 318.037 95.8658 318.506 96.3321C318.974 96.7983 319.208 97.3754 319.208 98.0638C319.208 98.7521 318.974 99.3292 318.506 99.7954C318.037 100.262 317.468 100.495 316.799 100.495ZM318.673 102.926V121.275H314.858V102.926H318.673ZM340.58 111.651C340.58 112.339 340.536 112.961 340.446 113.516H326.359C326.469 114.981 327.018 116.158 327.998 117.046C328.979 117.934 330.183 118.378 331.612 118.378C333.663 118.378 335.115 117.523 335.962 115.814H340.078C339.519 117.501 338.505 118.888 337.033 119.976C335.584 121.042 333.777 121.575 331.612 121.575C329.849 121.575 328.266 121.186 326.861 120.409C325.479 119.61 324.385 118.5 323.582 117.079C322.802 115.636 322.41 113.971 322.41 112.084C322.41 110.197 322.789 108.543 323.548 107.122C324.328 105.679 325.412 104.569 326.794 103.792C328.199 103.015 329.805 102.626 331.612 102.626C333.352 102.626 334.901 103.003 336.263 103.758C337.625 104.513 338.682 105.579 339.442 106.955C340.201 108.31 340.58 109.875 340.58 111.651ZM336.598 110.452C336.574 109.053 336.072 107.932 335.092 107.089C334.112 106.245 332.894 105.823 331.445 105.823C330.13 105.823 329.002 106.245 328.065 107.089C327.128 107.91 326.57 109.031 326.392 110.452H336.598ZM353.636 102.626C355.085 102.626 356.38 102.926 357.517 103.525C358.678 104.125 359.582 105.013 360.228 106.189C360.873 107.366 361.198 108.787 361.198 110.452V121.275H357.417V111.018C357.417 109.375 357.005 108.121 356.179 107.255C355.352 106.367 354.228 105.923 352.799 105.923C351.371 105.923 350.233 106.367 349.386 107.255C348.56 108.121 348.148 109.375 348.148 111.018V121.275H344.334V102.926H348.148V105.024C348.774 104.269 349.564 103.681 350.524 103.259C351.504 102.837 352.542 102.626 353.636 102.626ZM370.513 106.023V116.18C370.513 116.868 370.671 117.368 370.982 117.678C371.316 117.967 371.875 118.111 372.655 118.111H374.997V121.275H371.986C370.269 121.275 368.951 120.875 368.037 120.076C367.124 119.277 366.665 117.978 366.665 116.18V106.023H364.491V102.926H366.665V98.3635H370.513V102.926H374.997V106.023H370.513ZM382.328 102.926V121.275H378.514V102.926H382.328ZM383.868 97.9971L376.473 101.627V98.8297L383.868 94.7669V97.9971ZM395.063 106.023H391.65V121.275H387.802V106.023H385.628V102.926H387.802V101.627C387.802 99.518 388.361 97.9862 389.475 97.0314C390.613 96.0547 392.387 95.5661 394.796 95.5661V98.7298C393.638 98.7298 392.822 98.9519 392.353 99.3958C391.885 99.8177 391.65 100.561 391.65 101.627V102.926H395.063V106.023ZM400.387 100.495C399.694 100.495 399.116 100.262 398.647 99.7954C398.179 99.3292 397.944 98.7521 397.944 98.0638C397.944 97.3754 398.179 96.7983 398.647 96.3321C399.116 95.8658 399.694 95.6327 400.387 95.6327C401.056 95.6327 401.625 95.8658 402.094 96.3321C402.562 96.7983 402.796 97.3754 402.796 98.0638C402.796 98.7521 402.562 99.3292 402.094 99.7954C401.625 100.262 401.056 100.495 400.387 100.495ZM402.261 102.926V121.275H398.446V102.926H402.261ZM405.998 112.084C405.998 110.197 406.376 108.543 407.136 107.122C407.916 105.679 408.986 104.569 410.348 103.792C411.707 103.015 413.269 102.626 415.033 102.626C417.261 102.626 419.102 103.159 420.554 104.225C422.026 105.268 423.016 106.766 423.532 108.72H419.416C419.081 107.81 418.546 107.099 417.81 106.589C417.074 106.078 416.147 105.823 415.033 105.823C413.47 105.823 412.222 106.378 411.285 107.488C410.368 108.576 409.913 110.108 409.913 112.084C409.913 114.06 410.368 115.603 411.285 116.713C412.222 117.823 413.47 118.378 415.033 118.378C417.241 118.378 418.7 117.412 419.416 115.48H423.532C422.996 117.345 421.992 118.833 420.52 119.943C419.048 121.031 417.218 121.575 415.033 121.575C413.269 121.575 411.707 121.186 410.348 120.409C408.986 119.61 407.916 118.5 407.136 117.079C406.376 115.636 405.998 113.971 405.998 112.084ZM426.061 112.017C426.061 110.175 426.439 108.543 427.199 107.122C427.979 105.701 429.026 104.602 430.344 103.825C431.683 103.026 433.155 102.626 434.761 102.626C436.21 102.626 437.471 102.915 438.542 103.492C439.633 104.047 440.503 104.746 441.152 105.59V102.926H445V121.275H441.152V118.544C440.503 119.41 439.623 120.132 438.509 120.709C437.391 121.286 436.12 121.575 434.694 121.575C433.108 121.575 431.659 121.175 430.344 120.376C429.026 119.554 427.979 118.422 427.199 116.979C426.439 115.514 426.061 113.86 426.061 112.017ZM441.152 112.084C441.152 110.818 440.884 109.719 440.349 108.787C439.834 107.854 439.154 107.144 438.308 106.656C437.458 106.167 436.544 105.923 435.564 105.923C434.58 105.923 433.667 106.167 432.82 106.656C431.97 107.122 431.281 107.821 430.746 108.754C430.23 109.664 429.976 110.752 429.976 112.017C429.976 113.283 430.23 114.393 430.746 115.347C431.281 116.302 431.97 117.035 432.82 117.545C433.69 118.034 434.604 118.278 435.564 118.278C436.544 118.278 437.458 118.034 438.308 117.545C439.154 117.057 439.834 116.346 440.349 115.414C440.884 114.459 441.152 113.349 441.152 112.084Z" fill="#FCFCFC"/>
</g>
</svg>
