<svg width="350" height="70" viewBox="0 0 350 70" fill="none" xmlns="http://www.w3.org/2000/svg">
<g id="UCB - cor">
<g id="UCB - cor_2">
<path d="M65.5342 70H349.955V0.000128461H65.5342V70Z" fill="#21409A"/>
<path d="M0 70H64.3921V0.000128461H0V70Z" fill="#0095DA"/>
<path d="M65.7493 18.4102C66.9528 35.321 66.9661 52.2705 65.4699 69.1798C65.4699 69.1798 65.2646 70.4371 64.8929 69.8381L64.7278 69.1798C63.2337 52.2705 63.2379 35.321 64.435 18.4102V5.72542H59.0829V4.3142H64.435V0H65.7493V4.3142H71.1106V5.72542H65.7493V18.4102Z" fill="white"/>
<path d="M18.6014 59.9805L18.7171 59.3406L42.7019 41.9997C52.7304 34.7741 52.3424 27.8465 46.1416 14.5712L46.3285 13.9772L46.9352 14.0767C55.3433 25.1081 56.714 35.4599 44.7597 44.0396C37.6298 49.1583 27.8405 55.0532 19.2243 60.121L18.6014 59.9805Z" fill="white"/>
<path d="M27.1338 64.2723L27.1634 63.6415L48.2792 43.159C56.9038 34.7855 56.458 29.2218 51.0868 12.694L51.3612 12.0879L51.9389 12.3373C59.0617 26.5308 60.8789 36.9864 50.253 46.2237C40.8375 54.3647 34.8681 58.9904 27.7842 64.3316L27.1338 64.2723Z" fill="white"/>
<path d="M57.8088 47.0168L57.8018 47.0507L44.8874 67.5163L44.2433 67.7042L44.0373 67.0791L54.5433 44.8802L54.5568 44.8632C61.4468 32.4235 59.8193 23.4794 57.0956 11.4981L57.4321 10.9436L58.0057 11.2402C62.9684 24.9301 65.0522 36.6028 57.8088 47.0168Z" fill="white"/>
<path d="M110.972 60.1211C102.356 55.0533 92.5621 49.1583 85.4351 44.0403C73.4766 35.4592 74.8536 25.1081 83.2525 14.0768L83.862 13.9765L84.0518 14.5705C77.8475 27.8458 77.4602 34.7748 87.4858 41.9998L111.475 59.3406L111.588 59.9813L110.972 60.1211Z" fill="white"/>
<path d="M102.406 64.3313C95.3288 58.9901 89.3531 54.3644 79.9489 46.2234C69.3159 36.9861 71.1309 26.5304 78.2565 12.3376L78.8336 12.0876L79.1038 12.6943C73.7347 29.2222 73.2868 34.7859 81.9072 43.1593L103.029 63.6412L103.064 64.2727L102.406 64.3313Z" fill="white"/>
<path d="M72.3862 47.0168C65.1463 36.6028 67.2266 24.9301 72.1865 11.2402L72.7607 10.9436L73.0972 11.4981C70.3763 23.4794 68.7446 32.4235 75.6332 44.8632L75.6516 44.8802L86.1527 67.0791L85.9446 67.7042L85.3076 67.5163L72.3953 47.0507L72.3862 47.0168Z" fill="white"/>
<path d="M152.749 30.3931H155.996V17.6616H152.749V30.3931Z" fill="white"/>
<path d="M206.026 30.3931H209.246V17.6616H206.026V30.3931Z" fill="white"/>
<path d="M207.626 12.3534C208.737 12.3534 209.41 13.1219 209.433 14.1221C209.433 15.0721 208.737 15.8186 207.606 15.8186C206.555 15.8186 205.846 15.0721 205.846 14.1221C205.846 13.1219 206.575 12.3534 207.626 12.3534Z" fill="white"/>
<path d="M198.188 25.0973C195.695 24.2285 194.662 22.8371 194.689 21.37C194.689 19.1268 196.549 17.3715 199.486 17.3715C200.907 17.3715 202.129 17.7579 202.868 18.1316L202.24 20.4002C201.685 20.0852 200.667 19.6671 199.551 19.6671C198.401 19.6671 197.769 20.2124 197.769 20.9971C197.769 21.8256 198.351 22.207 199.978 22.7883C202.294 23.6069 203.349 24.7893 203.388 26.6759C203.388 28.9792 201.576 30.6772 198.197 30.6772C196.674 30.6772 195.296 30.2746 194.364 29.7625L194.972 27.4288C195.695 27.8879 197.107 28.3485 198.24 28.3485C199.636 28.3485 200.279 27.7785 200.279 26.9422C200.279 26.0805 199.752 25.6376 198.188 25.0973Z" fill="white"/>
<path d="M188.547 17.6618L188.631 20.0845H188.742C189.361 18.2925 190.861 17.3715 192.216 17.3715L192.968 17.4485V20.4821C192.709 20.4291 192.422 20.3804 192.031 20.3804C190.489 20.3804 189.45 21.3693 189.141 22.825L189.052 23.8068V30.3932H185.846V21.7613C185.846 20.0308 185.821 18.806 185.744 17.6618H188.547Z" fill="white"/>
<path d="M161.485 17.6618L163.527 24.1303C163.914 25.2258 164.177 26.2775 164.404 27.3214H164.478C164.719 26.2775 165.007 25.2582 165.349 24.1303L167.352 17.6618H170.751L165.895 30.3932H162.725L158.009 17.6618H161.485Z" fill="white"/>
<path d="M154.392 12.3534C155.477 12.3534 156.16 13.1219 156.185 14.1221C156.185 15.0721 155.477 15.8186 154.355 15.8186C153.274 15.8186 152.586 15.0721 152.586 14.1221C152.586 13.1219 153.297 12.3534 154.392 12.3534Z" fill="white"/>
<path d="M140.545 17.6618L140.69 19.5653H140.784C141.328 18.5764 142.707 17.3715 144.815 17.3715C147.033 17.3715 149.334 18.806 149.334 22.8327V30.3932H146.131V23.1979C146.131 21.3692 145.451 19.9842 143.704 19.9842C142.415 19.9842 141.54 20.9024 141.203 21.8743L141.069 22.9168V30.3932H137.826V21.4575C137.826 19.9842 137.807 18.7714 137.74 17.6618H140.545Z" fill="white"/>
<path d="M120.547 12.771H123.755V23.0494C123.755 26.5153 125.179 28.096 127.363 28.096C129.679 28.096 131.066 26.5153 131.066 23.0494V12.771H134.264V22.8333C134.264 28.2719 131.496 30.6769 127.243 30.6769C123.171 30.6769 120.547 28.4358 120.547 22.8361V12.771Z" fill="white"/>
<path d="M252.851 26.8113V11.8323H249.653V19.0502H249.595C249.014 18.1045 247.768 17.3706 246.012 17.3706C242.973 17.3706 240.297 19.9027 240.318 24.1604C240.318 28.0953 242.725 30.6769 245.751 30.6769C247.622 30.6769 249.13 29.7806 249.916 28.3758H249.959L250.08 30.3937H252.955C252.919 29.5249 252.851 28.1215 252.851 26.8113ZM249.653 24.8837L249.531 25.8146C249.227 27.2146 248.077 28.0953 246.769 28.0953C244.727 28.0953 243.587 26.3882 243.587 24.0559C243.587 21.6855 244.727 19.8597 246.785 19.8597C248.248 19.8597 249.273 20.876 249.563 22.1389L249.653 22.9781V24.8837Z" fill="white"/>
<path d="M267.194 23.5541C267.194 20.7634 265.861 17.371 261.701 17.371C257.646 17.371 255.482 20.7062 255.482 24.2286C255.482 28.1219 257.918 30.6773 262.045 30.6773C263.874 30.6773 265.39 30.3093 266.48 29.8672L266.011 27.6494C265.041 27.9983 263.991 28.2285 262.491 28.2285C260.45 28.2285 258.657 27.2312 258.555 24.93H267.087C267.133 24.6567 267.194 24.1594 267.194 23.5541ZM258.56 22.6761C258.704 21.3702 259.541 19.5655 261.532 19.5655C263.67 19.5655 264.203 21.5079 264.147 22.6761H258.56Z" fill="white"/>
<path d="M237.738 27.3386V22.7433C237.738 19.9738 236.555 17.371 232.494 17.371C230.489 17.371 228.844 17.9156 227.905 18.4948L228.526 20.5862C229.387 20.031 230.686 19.6355 231.95 19.6355C234.18 19.6355 234.525 21.0418 234.525 21.8738V22.0709C229.827 22.0525 226.964 23.6658 226.964 26.8986C226.964 28.8339 228.422 30.6767 230.975 30.6767C232.618 30.6767 233.949 29.9711 234.731 28.9794H234.817L235.033 30.3927H237.918C237.793 29.6123 237.738 28.4765 237.738 27.3386ZM234.618 25.9253L234.511 26.6245C234.217 27.5427 233.285 28.3762 231.989 28.3762C230.971 28.3762 230.169 27.7836 230.169 26.5468C230.169 24.6044 232.345 24.1305 234.618 24.1595V25.9253Z" fill="white"/>
<path d="M183.26 23.5541C183.26 20.7634 181.923 17.371 177.774 17.371C173.697 17.371 171.558 20.7062 171.558 24.2286C171.558 28.1219 173.981 30.6773 178.119 30.6773C179.943 30.6773 181.457 30.3093 182.562 29.8672L182.064 27.6494C181.117 27.9983 180.042 28.2285 178.562 28.2285C176.523 28.2285 174.719 27.2312 174.631 24.93H183.151C183.204 24.6567 183.26 24.1594 183.26 23.5541ZM174.631 22.6761C174.764 21.3702 175.616 19.5655 177.593 19.5655C179.73 19.5655 180.251 21.5079 180.23 22.6761H174.631Z" fill="white"/>
<path d="M224.418 26.8113V11.8323H221.204V19.0502H221.153C220.584 18.1045 219.324 17.3706 217.593 17.3706C214.538 17.3706 211.855 19.9027 211.896 24.1604C211.896 28.0953 214.291 30.6769 217.327 30.6769C219.17 30.6769 220.724 29.7806 221.475 28.3758H221.535L221.644 30.3937H224.527C224.475 29.5249 224.418 28.1215 224.418 26.8113ZM221.204 24.8837L221.105 25.8146C220.802 27.2146 219.648 28.0953 218.338 28.0953C216.299 28.0953 215.156 26.3882 215.156 24.0559C215.156 21.6855 216.299 19.8597 218.36 19.8597C219.827 19.8597 220.854 20.876 221.137 22.1389L221.204 22.9781V24.8837Z" fill="white"/>
<path d="M173.888 57.7701H177.168V38.9975H173.888V57.7701Z" fill="white"/>
<path d="M180.679 57.7701H183.955V44.8924H180.679V57.7701Z" fill="white"/>
<path d="M182.284 43.0303C181.196 43.0303 180.49 42.2653 180.49 41.2786C180.49 40.2721 181.235 39.51 182.306 39.51C183.419 39.51 184.117 40.2721 184.14 41.2786C184.14 42.2653 183.419 43.0303 182.284 43.0303Z" fill="white"/>
<path d="M314.892 57.7701H318.169V44.8924H314.892V57.7701Z" fill="white"/>
<path d="M316.52 39.51C317.637 39.51 318.327 40.2721 318.344 41.2786C318.344 42.2653 317.637 43.0303 316.497 43.0303C315.418 43.0303 314.7 42.2653 314.7 41.2786C314.7 40.2721 315.45 39.51 316.52 39.51Z" fill="white"/>
<path d="M308.108 57.7701H311.376V38.9975H308.108V57.7701Z" fill="white"/>
<path d="M303.749 39.3036H306.924L303.694 43.2229H301.463L303.749 39.3036Z" fill="white"/>
<path d="M301.346 57.7602H304.612V44.8818H301.346V57.7602Z" fill="white"/>
<path d="M293.436 52.3901C290.913 51.5248 289.871 50.1376 289.908 48.6374C289.908 46.3722 291.758 44.5994 294.753 44.5994C296.169 44.5994 297.424 44.9765 298.165 45.3643L297.508 47.6528C296.971 47.3469 295.942 46.9182 294.804 46.9182C293.645 46.9182 293.012 47.4797 293.012 48.2673C293.012 49.1014 293.612 49.4723 295.26 50.079C297.581 50.911 298.653 52.0984 298.674 54.0118C298.674 56.3222 296.837 58.0703 293.48 58.0703C291.902 58.0703 290.513 57.6522 289.557 57.1083L290.193 54.7795C290.913 55.2295 292.318 55.6971 293.48 55.6971C294.915 55.6971 295.541 55.1016 295.541 54.2647C295.541 53.4044 295.029 52.9438 293.436 52.3901Z" fill="white"/>
<path d="M270.597 47.3472H270.702C271.334 45.5122 272.85 44.5989 274.219 44.5989L274.987 44.6865V47.7385C274.717 47.6863 274.43 47.6227 274.024 47.6227C272.47 47.6227 271.431 48.6377 271.117 50.0934L271.035 51.09V57.7704H267.764V49.0367C267.764 47.2872 267.753 46.0511 267.667 44.8815H270.507L270.597 47.3472Z" fill="white"/>
<path d="M193.769 44.5995C194.961 44.5995 196.183 44.8481 196.9 45.214L196.327 47.6233C195.806 47.4015 195.049 47.1324 193.889 47.1324C191.406 47.1324 189.911 48.9391 189.95 51.3067C189.95 53.9554 191.663 55.45 193.889 55.45C195.033 55.45 195.806 55.2296 196.445 54.9633L196.88 57.3592C196.202 57.67 194.854 58.0704 193.252 58.0704C189.239 58.0704 186.619 55.45 186.619 51.4565C186.619 47.612 189.246 44.5995 193.769 44.5995Z" fill="white"/>
<path d="M168.593 39.3036L165.346 43.2229H163.106L165.405 39.3036H168.593Z" fill="white"/>
<path d="M156.732 44.8818V47.3235H153.621V52.9924C153.621 54.5499 154.057 55.3812 155.284 55.3812C155.878 55.3812 156.195 55.324 156.559 55.2294L156.6 57.7015C156.128 57.8915 155.284 58.0702 154.258 58.0702C153.078 58.0702 152.069 57.6294 151.466 56.962C150.761 56.2168 150.468 55.0613 150.468 53.364V47.3235H148.618V44.8818H150.468V42.5149L153.621 41.5628V44.8818H156.732Z" fill="white"/>
<path d="M130.087 39.6474C132.213 39.6474 133.749 40.1072 134.418 40.4561L133.71 43.0306C132.863 42.6676 131.706 42.3511 130.197 42.3511C126.583 42.3511 123.975 44.6107 123.975 48.91C123.975 52.835 126.278 55.3241 130.185 55.3241C131.506 55.3241 132.89 55.0607 133.724 54.6602L134.254 57.2248C133.488 57.6288 131.805 58.0703 129.657 58.0703C123.989 58.0703 120.567 54.4815 120.567 49.0442C120.567 43.186 124.641 39.6474 130.087 39.6474Z" fill="white"/>
<path d="M286.918 54.6603V50.0063C286.918 47.2121 285.724 44.5994 281.61 44.5994C279.583 44.5994 277.903 45.1511 276.965 45.719L277.599 47.852C278.459 47.287 279.793 46.895 281.069 46.895C283.319 46.895 283.662 48.3034 283.662 49.1467V49.3445C278.903 49.3162 276.045 50.9733 276.045 54.2273C276.045 56.1682 277.489 58.0697 280.079 58.0697C281.733 58.0697 283.09 57.3457 283.886 56.3222H283.954L284.178 57.7702H287.092C286.972 56.9629 286.918 55.8349 286.918 54.6603ZM283.743 53.2321L283.646 53.9554C283.339 54.8877 282.405 55.712 281.101 55.712C280.074 55.712 279.249 55.1427 279.249 53.872C279.249 51.9169 281.45 51.4246 283.743 51.4557V53.2321Z" fill="white"/>
<path d="M209.266 54.6603V50.0063C209.266 47.2121 208.07 44.5994 203.97 44.5994C201.94 44.5994 200.256 45.1511 199.303 45.719L199.955 47.852C200.823 47.287 202.14 46.895 203.417 46.895C205.681 46.895 206.017 48.3034 206.017 49.1467V49.3445C201.281 49.3162 198.382 50.9733 198.382 54.2273C198.382 56.1682 199.837 58.0697 202.423 58.0697C204.093 58.0697 205.436 57.3457 206.236 56.3222H206.311L206.504 57.7702H209.446C209.316 56.9629 209.266 55.8349 209.266 54.6603ZM206.087 53.2321L205.991 53.9554C205.704 54.8877 204.755 55.712 203.461 55.712C202.423 55.712 201.616 55.1427 201.616 53.872C201.616 51.9169 203.803 51.4246 206.087 51.4557V53.2321Z" fill="white"/>
<path d="M230.011 54.1471V38.9966H226.761V46.2999H226.715C226.124 45.3379 224.873 44.5991 223.094 44.5991C220.003 44.5991 217.318 47.1694 217.329 51.4561C217.329 55.4397 219.761 58.07 222.827 58.07C224.723 58.07 226.248 57.1589 227.007 55.7116H227.069L227.202 57.7699H230.123C230.078 56.8933 230.011 55.4496 230.011 54.1471ZM226.761 52.1927L226.65 53.1371C226.331 54.5278 225.181 55.4397 223.862 55.4397C221.805 55.4397 220.654 53.7022 220.654 51.355C220.654 48.938 221.805 47.1178 223.885 47.1178C225.356 47.1178 226.382 48.1399 226.68 49.4106L226.761 50.2603V52.1927Z" fill="white"/>
<path d="M146.623 54.6603V50.0063C146.623 47.2121 145.449 44.5994 141.318 44.5994C139.295 44.5994 137.625 45.1511 136.691 45.719L137.303 47.852C138.193 47.287 139.499 46.895 140.77 46.895C143.049 46.895 143.401 48.3034 143.401 49.1467V49.3445C138.64 49.3162 135.757 50.9733 135.757 54.2273C135.757 56.1682 137.206 58.0697 139.804 58.0697C141.447 58.0697 142.81 57.3457 143.603 56.3222H143.682L143.876 57.7702H146.823C146.687 56.9629 146.623 55.8349 146.623 54.6603ZM143.473 53.2321L143.369 53.9554C143.075 54.8877 142.118 55.712 140.826 55.712C139.804 55.712 138.985 55.1427 138.985 53.872C138.985 51.9169 141.178 51.4246 143.473 51.4557V53.2321Z" fill="white"/>
<path d="M164.848 44.5996C160.987 44.5996 158.203 47.1862 158.203 51.4248C158.203 55.5271 160.99 58.0706 164.623 58.0706C167.889 58.0706 171.24 55.9396 171.24 51.2136C171.24 47.2865 168.684 44.5996 164.848 44.5996ZM164.739 55.6973C162.747 55.6973 161.538 53.8206 161.538 51.3231C161.538 49.202 162.473 46.9813 164.776 46.9813C166.991 46.9813 167.882 49.2952 167.882 51.2906C167.882 53.8715 166.582 55.6973 164.739 55.6973Z" fill="white"/>
<path d="M244.48 50.8686C244.48 48.0412 243.157 44.6 238.96 44.6C234.842 44.6 232.683 47.9529 232.683 51.5241C232.683 55.4498 235.123 58.071 239.291 58.071C241.147 58.071 242.674 57.6698 243.796 57.2255L243.309 54.9907C242.339 55.3552 241.244 55.5621 239.741 55.5621C237.687 55.5621 235.872 54.5507 235.785 52.2262H244.383C244.447 51.9443 244.48 51.457 244.48 50.8686ZM235.785 49.9553C235.921 48.6373 236.771 46.8172 238.779 46.8172C240.93 46.8172 241.48 48.7715 241.441 49.9553H235.785Z" fill="white"/>
<path d="M331.634 54.6603V50.0063C331.634 47.2121 330.445 44.5994 326.338 44.5994C324.279 44.5994 322.61 45.1511 321.668 45.719L322.291 47.852C323.168 47.287 324.496 46.895 325.758 46.895C328.028 46.895 328.378 48.3034 328.378 49.1467V49.3445C323.628 49.3162 320.74 50.9733 320.74 54.2273C320.74 56.1682 322.2 58.0697 324.785 58.0697C326.445 58.0697 327.804 57.3457 328.59 56.3222H328.658L328.891 57.7702H331.798C331.689 56.9629 331.634 55.8349 331.634 54.6603ZM328.448 53.2321L328.343 53.9554C328.065 54.8877 327.11 55.712 325.816 55.712C324.785 55.712 323.977 55.1427 323.977 53.872C323.977 51.9169 326.157 51.4246 328.448 51.4557V53.2321Z" fill="white"/>
<path d="M261.415 48.1993V48.14C263.348 47.4252 264.383 45.9243 264.383 44.2765C264.383 42.7628 263.635 41.6186 262.533 40.9624C261.305 40.1078 259.832 39.8189 257.436 39.8189C255.624 39.8189 253.738 39.9757 252.695 40.1749V57.7015C253.518 57.8032 254.899 57.9438 256.691 57.9438C259.94 57.9438 262.018 57.3858 263.292 56.2846C264.313 55.4391 265.014 54.1826 265.014 52.6117C265.014 50.1375 263.292 48.6775 261.415 48.1993ZM255.916 42.3503C256.274 42.2663 256.842 42.2133 257.779 42.2133C259.832 42.2133 261.11 42.9903 261.11 44.6607C261.11 46.1616 259.832 47.2119 257.586 47.2119H255.916V42.3503ZM257.647 55.4759C256.888 55.4759 256.351 55.4759 255.914 55.4059V49.5845H257.527C259.782 49.5845 261.579 50.4186 261.579 52.4804C261.579 54.6926 259.72 55.4759 257.647 55.4759Z" fill="white"/>
</g>
</g>
</svg>
