<svg width="153" height="70" viewBox="0 0 153 70" fill="none" xmlns="http://www.w3.org/2000/svg">
<g id="UDF - cor">
<g id="Vector">
<path fill-rule="evenodd" clip-rule="evenodd" d="M69.8453 23.7186C69.8453 32.0486 70.009 33.2491 71.3934 35.064C71.7991 35.596 72.873 36.3953 73.7798 36.8406C75.311 37.5927 75.6729 37.6503 78.8641 37.6503C82.0513 37.6503 82.4184 37.5921 83.9404 36.8446C84.8426 36.4017 85.9664 35.5714 86.4376 34.9996C88.0321 33.0653 88.1693 32.1708 88.1693 23.7132V16.0337H83.8746L83.874 23.4062C83.8737 29.8594 83.8113 30.9013 83.3729 31.7605C82.577 33.3218 81.5552 33.8956 79.356 34.0158C77.7065 34.106 77.2937 34.0256 76.4568 33.4521C74.2745 31.9558 74.2934 32.0383 74.1941 23.6006L74.1053 16.0337H69.8453V23.7186ZM91.8913 37.5071L96.2576 37.5028C102.869 37.4965 105.783 36.5837 108.367 33.7103C110.09 31.794 110.876 29.6458 110.905 26.7704C110.962 21.1604 107.815 17.3851 102.193 16.3189C101.366 16.162 98.7093 16.0337 96.2902 16.0337H91.8913V37.5071ZM113.937 37.5071H118.518V28.3451H125.39V24.9094H118.518V19.7558H125.344L125.838 18.2526C126.11 17.4257 126.392 16.5886 126.464 16.3916C126.567 16.1121 125.21 16.0337 120.267 16.0337H113.937V37.5071ZM96.4723 33.785H98.5149C101.358 33.785 102.677 33.3227 104.211 31.7889C105.651 30.3484 106.207 28.9315 106.207 26.7017C106.207 22.4331 103.708 20.0521 98.9775 19.8127L96.4723 19.6856V33.785Z" fill="#00386B"/>
<path d="M73.6079 44.2229C73.044 44.2229 72.5361 44.3207 72.084 44.5164C71.6367 44.7075 71.2546 44.9871 70.9377 45.3552C70.6255 45.7187 70.3855 46.1591 70.2177 46.6764C70.0499 47.1936 69.9661 47.7761 69.9661 48.4239C69.9661 49.2813 70.0989 50.0269 70.3645 50.6607C70.6348 51.2898 71.0355 51.7768 71.5668 52.1216C72.1027 52.4665 72.7714 52.6389 73.5729 52.6389C74.0296 52.6389 74.4583 52.6016 74.8591 52.527C75.2645 52.4478 75.6583 52.35 76.0404 52.2335V53.268C75.6676 53.4078 75.2762 53.5103 74.8661 53.5755C74.456 53.6454 73.969 53.6804 73.4052 53.6804C72.366 53.6804 71.4969 53.466 70.7979 53.0373C70.1035 52.6039 69.5816 51.9935 69.2321 51.2059C68.8873 50.4184 68.7148 49.4887 68.7148 48.4169C68.7148 47.6433 68.822 46.9373 69.0364 46.2989C69.2554 45.6558 69.5723 45.1013 69.987 44.6353C70.4064 44.1693 70.919 43.8104 71.5248 43.5588C72.1353 43.3025 72.8343 43.1744 73.6219 43.1744C74.1391 43.1744 74.6377 43.2256 75.1177 43.3281C75.5977 43.4307 76.0311 43.5774 76.4179 43.7685L75.9425 44.7751C75.6163 44.626 75.2575 44.4978 74.8661 44.3906C74.4793 44.2788 74.0599 44.2229 73.6079 44.2229Z" fill="#00386B"/>
<path d="M81.0313 45.7397C81.6837 45.7397 82.2429 45.8842 82.7089 46.1731C83.1749 46.462 83.5314 46.8674 83.7784 47.3894C84.0254 47.9066 84.1489 48.5124 84.1489 49.2068V49.9267H78.8574C78.8714 50.8261 79.0951 51.5111 79.5284 51.9818C79.9618 52.4525 80.5723 52.6878 81.3598 52.6878C81.8445 52.6878 82.2732 52.6435 82.646 52.555C83.0188 52.4665 83.4056 52.336 83.8063 52.1636V53.1841C83.4196 53.3565 83.0351 53.4823 82.653 53.5616C82.2755 53.6408 81.8282 53.6804 81.3109 53.6804C80.5746 53.6804 79.9315 53.5313 79.3817 53.233C78.8364 52.9301 78.4124 52.4874 78.1095 51.9049C77.8066 51.3224 77.6551 50.6094 77.6551 49.766C77.6551 48.9411 77.7926 48.2282 78.0675 47.627C78.3471 47.0212 78.7386 46.5552 79.2418 46.229C79.7498 45.9028 80.3463 45.7397 81.0313 45.7397ZM81.0173 46.6903C80.3975 46.6903 79.9036 46.8931 79.5354 47.2985C79.1673 47.7039 78.9483 48.2701 78.8784 48.9971H82.9326C82.9279 48.5404 82.8557 48.1396 82.7159 47.7948C82.5808 47.4453 82.3734 47.175 82.0938 46.9839C81.8142 46.7882 81.4554 46.6903 81.0173 46.6903Z" fill="#00386B"/>
<path d="M89.7479 45.7397C90.6566 45.7397 91.3439 45.9634 91.8099 46.4107C92.276 46.8534 92.509 47.5664 92.509 48.5497V53.5406H91.3626V48.6266C91.3626 47.9882 91.2158 47.5105 90.9222 47.1936C90.6333 46.8767 90.1883 46.7183 89.5871 46.7183C88.739 46.7183 88.1425 46.9583 87.7977 47.4383C87.4528 47.9183 87.2804 48.6149 87.2804 49.5283V53.5406H86.1201V45.8795H87.0567L87.2315 46.9839H87.2944C87.4575 46.7136 87.6649 46.4876 87.9165 46.3059C88.1681 46.1195 88.4501 45.9797 88.7623 45.8865C89.0745 45.7886 89.403 45.7397 89.7479 45.7397Z" fill="#00386B"/>
<path d="M97.374 52.7297C97.5651 52.7297 97.7608 52.7134 97.9612 52.6808C98.1616 52.6482 98.3247 52.6086 98.4505 52.562V53.4637C98.3153 53.5243 98.1266 53.5755 97.8843 53.6175C97.6466 53.6594 97.4136 53.6804 97.1853 53.6804C96.7799 53.6804 96.4117 53.6105 96.0809 53.4707C95.75 53.3262 95.4844 53.0839 95.284 52.7437C95.0883 52.4035 94.9904 51.9329 94.9904 51.3317V46.7882H93.9V46.222L94.9974 45.7677L95.4588 44.104H96.1578V45.8795H98.4016V46.7882H96.1578V51.2968C96.1578 51.7768 96.2673 52.1356 96.4863 52.3733C96.71 52.6109 97.0059 52.7297 97.374 52.7297Z" fill="#00386B"/>
<path d="M103.483 45.7397C103.637 45.7397 103.798 45.749 103.966 45.7677C104.133 45.7816 104.283 45.8026 104.413 45.8306L104.266 46.907C104.14 46.8744 104.001 46.8488 103.847 46.8301C103.693 46.8115 103.549 46.8022 103.413 46.8022C103.106 46.8022 102.815 46.8651 102.54 46.9909C102.269 47.1121 102.032 47.2892 101.827 47.5222C101.622 47.7505 101.461 48.0278 101.344 48.354C101.228 48.6755 101.17 49.0343 101.17 49.4304V53.5406H100.002V45.8795H100.967L101.093 47.2915H101.142C101.3 47.0072 101.491 46.7486 101.715 46.5156C101.939 46.2779 102.197 46.0892 102.491 45.9494C102.789 45.8096 103.12 45.7397 103.483 45.7397Z" fill="#00386B"/>
<path d="M112.466 49.6961C112.466 50.3252 112.384 50.8867 112.221 51.3807C112.058 51.8746 111.822 52.2917 111.515 52.6319C111.207 52.9721 110.835 53.233 110.396 53.4148C109.963 53.5919 109.471 53.6804 108.922 53.6804C108.409 53.6804 107.938 53.5919 107.51 53.4148C107.086 53.233 106.717 52.9721 106.405 52.6319C106.098 52.2917 105.858 51.8746 105.685 51.3807C105.517 50.8867 105.434 50.3252 105.434 49.6961C105.434 48.8573 105.576 48.1443 105.86 47.5571C106.144 46.9653 106.55 46.5156 107.076 46.208C107.607 45.8958 108.239 45.7397 108.971 45.7397C109.67 45.7397 110.28 45.8958 110.802 46.208C111.328 46.5203 111.736 46.9723 112.025 47.5641C112.319 48.1513 112.466 48.8619 112.466 49.6961ZM106.636 49.6961C106.636 50.3112 106.717 50.8448 106.88 51.2968C107.044 51.7488 107.295 52.0983 107.635 52.3453C107.976 52.5923 108.414 52.7158 108.95 52.7158C109.481 52.7158 109.916 52.5923 110.257 52.3453C110.602 52.0983 110.855 51.7488 111.019 51.2968C111.182 50.8448 111.263 50.3112 111.263 49.6961C111.263 49.0856 111.182 48.559 111.019 48.1163C110.855 47.669 110.604 47.3241 110.264 47.0818C109.923 46.8395 109.483 46.7183 108.943 46.7183C108.146 46.7183 107.561 46.9816 107.188 47.5082C106.82 48.0348 106.636 48.7641 106.636 49.6961Z" fill="#00386B"/>
<path d="M76.9701 59.6409V66.2535C76.9701 66.9758 76.8233 67.6189 76.5297 68.1828C76.2408 68.7466 75.8027 69.1917 75.2156 69.5179C74.6284 69.8394 73.8921 70.0002 73.0067 70.0002C71.7439 70.0002 70.7816 69.6577 70.1198 68.9726C69.4628 68.2876 69.1342 67.3719 69.1342 66.2256V59.6409H70.3295V66.2605C70.3295 67.1273 70.5579 67.796 71.0146 68.2667C71.4759 68.7373 72.1633 68.9726 73.0766 68.9726C73.7011 68.9726 74.2113 68.8608 74.6075 68.6371C75.0082 68.4088 75.3041 68.0919 75.4952 67.6865C75.6909 67.2764 75.7888 66.8034 75.7888 66.2675V59.6409H76.9701Z" fill="#00386B"/>
<path d="M83.1353 62.0595C84.044 62.0595 84.7314 62.2832 85.1974 62.7305C85.6634 63.1732 85.8964 63.8862 85.8964 64.8695V69.8604H84.75V64.9464C84.75 64.308 84.6032 63.8303 84.3096 63.5134C84.0207 63.1965 83.5757 63.0381 82.9745 63.0381C82.1264 63.0381 81.5299 63.2781 81.1851 63.7581C80.8402 64.2381 80.6678 64.9347 80.6678 65.8481V69.8604H79.5075V62.1993H80.4441L80.6189 63.3037H80.6818C80.8449 63.0334 81.0523 62.8074 81.3039 62.6257C81.5556 62.4393 81.8375 62.2995 82.1497 62.2063C82.4619 62.1084 82.7905 62.0595 83.1353 62.0595Z" fill="#00386B"/>
<path d="M89.4473 62.1993V69.8604H88.287V62.1993H89.4473ZM88.8811 59.3334C89.0722 59.3334 89.2353 59.3963 89.3704 59.5221C89.5102 59.6433 89.5801 59.8343 89.5801 60.0953C89.5801 60.3516 89.5102 60.5427 89.3704 60.6685C89.2353 60.7943 89.0722 60.8572 88.8811 60.8572C88.6807 60.8572 88.513 60.7943 88.3778 60.6685C88.2474 60.5427 88.1821 60.3516 88.1821 60.0953C88.1821 59.8343 88.2474 59.6433 88.3778 59.5221C88.513 59.3963 88.6807 59.3334 88.8811 59.3334Z" fill="#00386B"/>
<path d="M93.5924 69.8604L90.6846 62.1993H91.9288L93.6134 66.8337C93.7299 67.1506 93.8487 67.5001 93.9699 67.8822C94.091 68.2643 94.1749 68.5719 94.2215 68.8049H94.2704C94.3264 68.5719 94.4196 68.2643 94.55 67.8822C94.6805 67.4954 94.7994 67.1459 94.9065 66.8337L96.5911 62.1993H97.8354L94.9205 69.8604H93.5924Z" fill="#00386B"/>
<path d="M102.015 62.0595C102.668 62.0595 103.227 62.204 103.693 62.4929C104.159 62.7818 104.516 63.1872 104.763 63.7091C105.009 64.2264 105.133 64.8322 105.133 65.5266V66.2465H99.8415C99.8555 67.1459 100.079 67.8309 100.513 68.3016C100.946 68.7723 101.556 69.0076 102.344 69.0076C102.829 69.0076 103.257 68.9633 103.63 68.8748C104.003 68.7862 104.39 68.6558 104.79 68.4833V69.5039C104.404 69.6763 104.019 69.8021 103.637 69.8814C103.26 69.9606 102.812 70.0002 102.295 70.0002C101.559 70.0002 100.916 69.8511 100.366 69.5528C99.8205 69.2499 99.3965 68.8072 99.0936 68.2247C98.7907 67.6422 98.6392 66.9292 98.6392 66.0858C98.6392 65.2609 98.7767 64.548 99.0516 63.9468C99.3312 63.341 99.7227 62.875 100.226 62.5488C100.734 62.2226 101.33 62.0595 102.015 62.0595ZM102.001 63.0101C101.382 63.0101 100.888 63.2129 100.52 63.6183C100.151 64.0237 99.9324 64.5899 99.8625 65.3169H103.917C103.912 64.8602 103.84 64.4594 103.7 64.1146C103.565 63.7651 103.358 63.4948 103.078 63.3037C102.798 63.108 102.439 63.0101 102.001 63.0101Z" fill="#00386B"/>
<path d="M110.585 62.0595C110.739 62.0595 110.9 62.0688 111.068 62.0875C111.235 62.1014 111.384 62.1224 111.515 62.1504L111.368 63.2268C111.242 63.1942 111.102 63.1686 110.949 63.1499C110.795 63.1313 110.65 63.122 110.515 63.122C110.208 63.122 109.916 63.1849 109.642 63.3107C109.371 63.4319 109.134 63.609 108.929 63.842C108.724 64.0703 108.563 64.3476 108.446 64.6738C108.33 64.9953 108.271 65.3541 108.271 65.7502V69.8604H107.104V62.1993H108.069L108.195 63.6113H108.244C108.402 63.327 108.593 63.0684 108.817 62.8354C109.04 62.5977 109.299 62.409 109.593 62.2692C109.891 62.1294 110.222 62.0595 110.585 62.0595Z" fill="#00386B"/>
<path d="M117.918 67.7634C117.918 68.2527 117.794 68.6651 117.547 69.0006C117.305 69.3315 116.955 69.5808 116.499 69.7485C116.047 69.9163 115.506 70.0002 114.877 70.0002C114.341 70.0002 113.878 69.9582 113.486 69.8744C113.095 69.7905 112.752 69.6717 112.459 69.5179V68.4484C112.771 68.6022 113.144 68.742 113.577 68.8678C114.01 68.9936 114.453 69.0565 114.905 69.0565C115.567 69.0565 116.047 68.9493 116.345 68.735C116.643 68.5206 116.792 68.2294 116.792 67.8612C116.792 67.6515 116.732 67.4675 116.611 67.309C116.494 67.1459 116.296 66.9898 116.016 66.8407C115.737 66.6869 115.35 66.5191 114.856 66.3374C114.367 66.151 113.943 65.9669 113.584 65.7852C113.23 65.5988 112.955 65.3728 112.759 65.1072C112.568 64.8415 112.473 64.4967 112.473 64.0726C112.473 63.4249 112.733 62.9286 113.255 62.5837C113.782 62.2342 114.472 62.0595 115.324 62.0595C115.786 62.0595 116.217 62.1061 116.618 62.1993C117.023 62.2878 117.4 62.409 117.75 62.5628L117.359 63.4925C117.042 63.3573 116.704 63.2431 116.345 63.1499C115.986 63.0567 115.62 63.0101 115.248 63.0101C114.712 63.0101 114.299 63.0987 114.01 63.2758C113.726 63.4528 113.584 63.6952 113.584 64.0027C113.584 64.2404 113.649 64.4361 113.78 64.5899C113.915 64.7437 114.129 64.8881 114.423 65.0233C114.716 65.1584 115.103 65.3169 115.583 65.4986C116.063 65.6757 116.478 65.8597 116.827 66.0508C117.177 66.2372 117.445 66.4656 117.631 66.7358C117.822 67.0015 117.918 67.344 117.918 67.7634Z" fill="#00386B"/>
<path d="M120.944 62.1993V69.8604H119.784V62.1993H120.944ZM120.378 59.3334C120.569 59.3334 120.732 59.3963 120.868 59.5221C121.007 59.6433 121.077 59.8343 121.077 60.0953C121.077 60.3516 121.007 60.5427 120.868 60.6685C120.732 60.7943 120.569 60.8572 120.378 60.8572C120.178 60.8572 120.01 60.7943 119.875 60.6685C119.744 60.5427 119.679 60.3516 119.679 60.0953C119.679 59.8343 119.744 59.6433 119.875 59.5221C120.01 59.3963 120.178 59.3334 120.378 59.3334Z" fill="#00386B"/>
<path d="M125.879 69.0495C126.07 69.0495 126.266 69.0332 126.467 69.0006C126.667 68.968 126.83 68.9284 126.956 68.8818V69.7835C126.821 69.8441 126.632 69.8953 126.39 69.9373C126.152 69.9792 125.919 70.0002 125.691 70.0002C125.285 70.0002 124.917 69.9303 124.586 69.7905C124.255 69.646 123.99 69.4037 123.789 69.0635C123.594 68.7233 123.496 68.2527 123.496 67.6515V63.108H122.405V62.5418L123.503 62.0875L123.964 60.4238H124.663V62.1993H126.907V63.108H124.663V67.6166C124.663 68.0966 124.773 68.4554 124.992 68.693C125.215 68.9307 125.511 69.0495 125.879 69.0495Z" fill="#00386B"/>
<path d="M131.374 62.0735C132.287 62.0735 132.965 62.2785 133.408 62.6886C133.85 63.0987 134.072 63.7534 134.072 64.6528V69.8604H133.226L133.002 68.728H132.946C132.732 69.0076 132.508 69.2429 132.275 69.434C132.042 69.6204 131.772 69.7625 131.464 69.8604C131.162 69.9536 130.789 70.0002 130.346 70.0002C129.88 70.0002 129.465 69.9186 129.102 69.7555C128.743 69.5924 128.459 69.3455 128.249 69.0146C128.044 68.6837 127.941 68.2643 127.941 67.7564C127.941 66.9921 128.244 66.405 128.85 65.9949C129.456 65.5848 130.379 65.3611 131.618 65.3238L132.939 65.2679V64.7996C132.939 64.1379 132.797 63.6742 132.513 63.4086C132.229 63.143 131.828 63.0101 131.311 63.0101C130.91 63.0101 130.528 63.0684 130.164 63.1849C129.801 63.3014 129.456 63.4389 129.13 63.5973L128.773 62.7166C129.118 62.5395 129.514 62.388 129.962 62.2622C130.409 62.1364 130.88 62.0735 131.374 62.0735ZM132.925 66.0858L131.758 66.1347C130.803 66.172 130.129 66.3281 129.738 66.603C129.346 66.878 129.151 67.2671 129.151 67.7704C129.151 68.2084 129.284 68.5323 129.549 68.742C129.815 68.9517 130.167 69.0565 130.605 69.0565C131.285 69.0565 131.842 68.8678 132.275 68.4903C132.709 68.1129 132.925 67.5467 132.925 66.7918V66.0858ZM133.289 58.893V59.0328C133.196 59.1679 133.068 59.331 132.904 59.5221C132.746 59.7085 132.569 59.9066 132.373 60.1163C132.177 60.3213 131.979 60.517 131.779 60.7034C131.583 60.8898 131.402 61.0506 131.234 61.1857H130.458V61.018C130.607 60.8409 130.77 60.6289 130.947 60.3819C131.124 60.1302 131.297 59.8739 131.464 59.613C131.632 59.3474 131.772 59.1074 131.884 58.893H133.289Z" fill="#00386B"/>
<path d="M139.943 62.0595C140.097 62.0595 140.258 62.0688 140.426 62.0875C140.593 62.1014 140.743 62.1224 140.873 62.1504L140.726 63.2268C140.6 63.1942 140.461 63.1686 140.307 63.1499C140.153 63.1313 140.009 63.122 139.873 63.122C139.566 63.122 139.275 63.1849 139 63.3107C138.729 63.4319 138.492 63.609 138.287 63.842C138.082 64.0703 137.921 64.3476 137.804 64.6738C137.688 64.9953 137.63 65.3541 137.63 65.7502V69.8604H136.462V62.1993H137.427L137.553 63.6113H137.602C137.76 63.327 137.951 63.0684 138.175 62.8354C138.399 62.5977 138.657 62.409 138.951 62.2692C139.249 62.1294 139.58 62.0595 139.943 62.0595Z" fill="#00386B"/>
<path d="M143.48 62.1993V69.8604H142.32V62.1993H143.48ZM142.914 59.3334C143.105 59.3334 143.268 59.3963 143.403 59.5221C143.543 59.6433 143.613 59.8343 143.613 60.0953C143.613 60.3516 143.543 60.5427 143.403 60.6685C143.268 60.7943 143.105 60.8572 142.914 60.8572C142.714 60.8572 142.546 60.7943 142.411 60.6685C142.28 60.5427 142.215 60.3516 142.215 60.0953C142.215 59.8343 142.28 59.6433 142.411 59.5221C142.546 59.3963 142.714 59.3334 142.914 59.3334Z" fill="#00386B"/>
<path d="M152.546 66.0159C152.546 66.645 152.465 67.2065 152.302 67.7005C152.139 68.1944 151.903 68.6115 151.596 68.9517C151.288 69.2919 150.915 69.5528 150.477 69.7346C150.044 69.9116 149.552 70.0002 149.002 70.0002C148.49 70.0002 148.019 69.9116 147.59 69.7346C147.166 69.5528 146.798 69.2919 146.486 68.9517C146.179 68.6115 145.939 68.1944 145.766 67.7005C145.598 67.2065 145.514 66.645 145.514 66.0159C145.514 65.1771 145.657 64.4641 145.941 63.8769C146.225 63.2851 146.631 62.8354 147.157 62.5278C147.688 62.2156 148.32 62.0595 149.051 62.0595C149.75 62.0595 150.361 62.2156 150.883 62.5278C151.409 62.84 151.817 63.2921 152.106 63.8839C152.4 64.4711 152.546 65.1817 152.546 66.0159ZM146.717 66.0159C146.717 66.631 146.798 67.1646 146.961 67.6166C147.124 68.0686 147.376 68.4181 147.716 68.6651C148.057 68.9121 148.495 69.0356 149.03 69.0356C149.562 69.0356 149.997 68.9121 150.338 68.6651C150.682 68.4181 150.936 68.0686 151.1 67.6166C151.263 67.1646 151.344 66.631 151.344 66.0159C151.344 65.4054 151.263 64.8788 151.1 64.4361C150.936 63.9887 150.685 63.6439 150.345 63.4016C150.004 63.1593 149.564 63.0381 149.023 63.0381C148.227 63.0381 147.642 63.3014 147.269 63.828C146.901 64.3546 146.717 65.0839 146.717 66.0159Z" fill="#00386B"/>
</g>
<path id="Vector_2" fill-rule="evenodd" clip-rule="evenodd" d="M30.6275 0.855862C30.1353 1.34423 27.1408 5.66694 23.9735 10.4618L18.2144 19.1793L11.7389 21.3201C-0.662444 25.4189 -0.850074 25.7525 6.02612 31.4514C7.84395 32.9582 9.37346 34.2045 9.4243 34.2212C9.47566 34.238 8.0931 37.1225 6.35155 40.6314C0.245704 52.9361 -1.14804 57.7294 0.854356 59.5387C2.96964 61.45 4.4778 60.6565 17.4181 50.8278L23.4711 46.2304L31.825 53.9392C36.4196 58.1792 41.0015 62.276 42.0068 63.0441C44.3021 64.797 46.6218 64.8803 48.1416 63.2654C49.7337 61.5734 49.5527 58.9269 47.4618 53.3209C46.4824 50.6953 44.7323 45.2303 43.5724 41.1767L41.4632 33.8065L42.7919 32.749C43.5226 32.1672 47.5869 29.5223 51.8235 26.8708C64.7791 18.764 64.2305 19.1747 64.3993 17.4558C64.5046 16.3806 64.2163 15.6044 63.4566 14.9175C62.5149 14.0662 61.4349 13.9027 55.7277 13.7484C52.0793 13.6494 46.5836 13.8306 43.5149 14.1514C40.4468 14.4723 37.8362 14.6347 37.7137 14.5124C37.5271 14.3261 35.5557 2.96011 35.5272 1.90722C35.5221 1.71787 35.1586 1.20412 34.7192 0.76499C33.6616 -0.290432 31.74 -0.247788 30.6275 0.855862ZM25.4033 12.1117C20.9877 18.5483 20.944 18.2807 26.2113 17.0801C28.6734 16.5192 30.7739 15.9892 30.8797 15.9019C30.9855 15.815 30.7861 13.9078 30.4363 11.6629C30.0275 9.03881 29.5703 7.58234 29.1554 7.58234C28.8005 7.58234 27.1123 9.62059 25.4033 12.1117ZM41.6198 18.1944C39.0993 18.4254 38.3345 18.6777 38.3986 19.2585C38.4449 19.6773 38.8618 21.7937 39.3251 23.9619C39.9083 26.6921 40.3512 27.7953 40.7666 27.5501C45.106 24.991 53.3317 19.0544 53.1786 18.5924C52.9529 17.9112 46.9706 17.7051 41.6198 18.1944ZM24.4464 20.2525C21.8526 20.7429 19.6438 21.2338 19.5375 21.3434C18.9594 21.9399 13.1494 32.7698 13.1728 33.2074C13.1881 33.4932 15.0512 35.2355 17.3129 37.0793L21.4255 40.4319L27.8563 36.0752L34.287 31.719L32.998 25.4885C31.5066 18.2797 32.3029 18.7671 24.4464 20.2525ZM9.45837 23.9406C6.72732 24.8153 4.50068 25.8098 4.50068 26.1545C4.50068 26.4992 5.95646 27.9227 7.73564 29.3188L10.9711 31.8571L13.4561 27.4617C14.8234 25.0438 16.0178 22.8943 16.1108 22.6852C16.4286 21.9719 14.4227 22.3506 9.45837 23.9406ZM8.15259 42.9768C5.05086 49.583 4.57695 51.7101 6.35918 51.0273C6.81732 50.8516 9.82601 48.8428 13.0452 46.5624L18.8983 42.4169L15.8942 39.707C11.2116 35.4822 11.7852 35.2401 8.15259 42.9768ZM31.0388 40.8462C28.4685 42.6819 26.3806 44.3439 26.3995 44.5399C26.4178 44.7353 29.547 47.5853 33.3524 50.8734C37.6537 54.589 40.4519 56.6714 40.7483 56.3754C41.0442 56.08 40.7864 54.5865 40.0669 52.4284C39.4308 50.5191 38.1906 46.3807 37.311 43.2322L35.7123 37.5083L31.0388 40.8462Z" fill="#00ADEF"/>
</g>
</svg>
