<svg width="274" height="70" viewBox="0 0 274 70" fill="none" xmlns="http://www.w3.org/2000/svg">
<g id="UnB - cor">
<path id="Vector" fill-rule="evenodd" clip-rule="evenodd" d="M0 39.925V69.9999H34.1193H68.2385L68.1877 56.4022L68.1369 42.8045L66.4557 42.7604C63.8386 42.6918 59.2364 42.318 57.0961 42.0003C51 41.0956 46.8475 39.693 39.2603 35.9758C31.2783 32.0652 27.0324 29.333 11.5704 18.158C5.47864 13.7551 0.383307 10.0848 0.247231 10.0015C0.0498418 9.88046 0 15.9161 0 39.925ZM128.758 18.011C113.249 29.2612 110.002 31.3727 102.057 35.3757C95.5328 38.6629 91.7723 40.1421 87.2231 41.211C83.4867 42.0887 78.1236 42.6997 74.1199 42.7036L71.9937 42.7056V56.3528V69.9999H106.112H140.229V39.9366C140.229 23.4018 140.163 9.88046 140.081 9.88916C139.999 9.89787 134.904 13.5527 128.758 18.011Z" fill="#008137"/>
<path id="Vector_2" fill-rule="evenodd" clip-rule="evenodd" d="M0.055182 2.60028L0.110364 5.20075L11.9775 13.7842C28.2176 25.5307 30.6321 27.1414 37.5665 30.8546C48.3256 36.6157 54.7106 38.4856 65.0332 38.8975L68.2472 39.0257V19.5129V0H34.1236H0L0.055182 2.60028ZM72.0051 19.4818V38.9636H73.6576C74.5665 38.9636 76.4577 38.8734 77.8606 38.7634C86.1483 38.1127 90.9035 36.7093 99.6871 32.3216C108.231 28.0536 110.179 26.7929 127.138 14.55L140.241 5.09157V2.54569V0H106.123H72.0051V19.4818ZM167.42 15.6944C167.362 15.8455 167.346 22.0554 167.384 29.4937C167.452 42.7091 167.463 43.0544 167.889 44.6005C169.643 50.9747 174.013 54.2791 181.637 54.9958C186.094 55.4149 190.232 54.7536 193.635 53.0779C196.13 51.8495 197.957 50.0449 199.134 47.646C200.866 44.1153 200.99 42.729 200.919 27.591L200.862 15.5261L196.362 15.4729L191.863 15.4197L191.856 27.8345C191.848 41.2735 191.777 42.3772 190.794 44.3746C189.493 47.018 187.073 48.2298 183.549 48.0036C180.148 47.7852 178.099 46.3439 176.978 43.3807C176.547 42.2433 176.54 42.0398 176.439 28.8766L176.337 15.5261L171.931 15.4729C168.317 15.4292 167.507 15.4689 167.42 15.6944ZM243.576 15.6744C243.524 15.8105 243.504 24.5995 243.532 35.2057L243.583 54.4897L251.495 54.5467C262.138 54.6234 264.22 54.3855 267.763 52.6875C271.477 50.9074 273.535 47.6687 273.545 43.589C273.556 38.9132 271.081 35.6424 266.526 34.3143C265.874 34.124 265.206 33.9274 265.043 33.8774C264.88 33.8273 265.301 33.5835 265.98 33.3352C268.363 32.4634 270.235 30.5831 270.879 28.414C271.9 24.9759 271.169 21.5811 268.894 19.1954C266.821 17.0227 263.803 15.9424 258.912 15.6228C254.47 15.3325 243.692 15.3687 243.576 15.6744ZM252.385 26.48V31.0522L254.017 31.0469C260.139 31.0267 262 30.0864 262.228 26.8979C262.394 24.5791 261.575 23.1299 259.7 22.4286C259.056 22.1875 257.933 22.0708 255.599 22.0022L252.385 21.9076V26.48ZM223.331 24.4428C220.883 25.1011 218.661 26.9074 217.613 29.0918L217.022 30.3224L216.897 28.5611C216.827 27.5924 216.707 26.3103 216.629 25.712L216.487 24.6242H212.333H208.18L208.187 25.6626C208.192 26.2336 208.214 32.9775 208.237 40.6485L208.279 54.5961L212.68 54.5429L217.08 54.4897L217.18 45.0949C217.277 35.8263 217.285 35.6847 217.74 34.5566C218.783 31.9695 220.237 30.8697 222.626 30.86C224.888 30.8509 226.235 31.7759 226.906 33.7979C227.074 34.304 227.165 37.4506 227.216 44.551L227.289 54.5886H231.728H236.167L236.16 43.8588C236.152 32.053 236.076 31.0581 235.006 28.7722C233.973 26.5653 232.141 25.09 229.589 24.4106C228.245 24.0526 224.714 24.0708 223.331 24.4428ZM252.385 42.9304V48.1129L256.192 48.0121C260.41 47.9003 261.5 47.6715 262.76 46.6325C263.905 45.6893 264.328 44.6667 264.341 42.8204C264.353 40.9167 263.948 39.98 262.697 39.021C261.415 38.0384 260.759 37.9142 256.39 37.8273L252.385 37.7478V42.9304Z" fill="#013F7A"/>
</g>
</svg>
